<mxfile host="app.diagrams.net" agent="Mozilla/5.0 (Macintosh; Intel Mac OS X 10_15_7) AppleWebKit/537.36 (KHTML, like Gecko) Chrome/131.0.0.0 Safari/537.36" version="24.8.6">
  <diagram name="Página-1" id="pwbEKcgToSZVsx1STa5g">
    <mxGraphModel dx="8818" dy="5577" grid="1" gridSize="10" guides="1" tooltips="1" connect="1" arrows="1" fold="1" page="1" pageScale="1" pageWidth="2339" pageHeight="3300" math="0" shadow="0">
      <root>
        <mxCell id="0" />
        <mxCell id="1" parent="0" />
        <mxCell id="FblqEJ61d_rF8akwRJso-242" value="Inicio" style="html=1;overflow=block;blockSpacing=1;whiteSpace=wrap;ellipse;fontSize=16.7;fontColor=#ffffff;align=center;spacing=3.8;strokeColor=#008573;strokeOpacity=100;fillOpacity=100;rounded=1;absoluteArcSize=1;arcSize=9;fillColor=#008a0e;strokeWidth=1.5;lucidId=_B6sFXerDlku;" parent="1" vertex="1">
          <mxGeometry x="-3795" y="840" width="60" height="60" as="geometry" />
        </mxCell>
        <mxCell id="FblqEJ61d_rF8akwRJso-243" value="" style="html=1;jettySize=18;whiteSpace=wrap;fontSize=13;strokeColor=#5E5E5E;strokeWidth=1.5;rounded=1;arcSize=12;edgeStyle=orthogonalEdgeStyle;startArrow=none;endArrow=block;endFill=1;exitX=1.013;exitY=0.5;exitPerimeter=0;entryX=-0.006;entryY=0.753;entryPerimeter=0;lucidId=0C6skvfy4qHW;" parent="1" source="FblqEJ61d_rF8akwRJso-242" target="FblqEJ61d_rF8akwRJso-244" edge="1">
          <mxGeometry width="100" height="100" relative="1" as="geometry">
            <Array as="points" />
          </mxGeometry>
        </mxCell>
        <mxCell id="FblqEJ61d_rF8akwRJso-244" value="RegistarTramite" style="html=1;overflow=block;blockSpacing=1;whiteSpace=wrap;shape=component;align=left;spacingLeft=36;fontSize=13;fontStyle=1;spacing=0;strokeColor=#6D1F00;strokeOpacity=100;fillOpacity=100;rounded=1;absoluteArcSize=1;arcSize=9;fillColor=#a0522d;strokeWidth=1.5;lucidId=lD6s_1Mw1OkF;fontColor=#ffffff;" parent="1" vertex="1">
          <mxGeometry x="-3435" y="802" width="120" height="90" as="geometry" />
        </mxCell>
        <mxCell id="FblqEJ61d_rF8akwRJso-245" value="&lt;div style=&quot;display: flex; justify-content: flex-start; text-align: left; align-items: baseline; font-size: 0; line-height: 1.25;margin-top: -2px;&quot;&gt;&lt;span&gt;&lt;span style=&quot;font-size:16.7px;&quot;&gt;{&#xa;&lt;/span&gt;&lt;/span&gt;&lt;/div&gt;&lt;div style=&quot;display: flex; justify-content: flex-start; text-align: left; align-items: baseline; font-size: 0; line-height: 1.25;margin-top: -2px;&quot;&gt;&lt;span&gt;&lt;span style=&quot;font-size:16.7px;&quot;&gt;  &quot;Solicitud&quot;: {&#xa;&lt;/span&gt;&lt;/span&gt;&lt;/div&gt;&lt;div style=&quot;display: flex; justify-content: flex-start; text-align: left; align-items: baseline; font-size: 0; line-height: 1.25;margin-top: -2px;&quot;&gt;&lt;span&gt;&lt;span style=&quot;font-size:16.7px;&quot;&gt;    &quot;IdTipoSolicitud&quot;: 1,&#xa;&lt;/span&gt;&lt;/span&gt;&lt;/div&gt;&lt;div style=&quot;display: flex; justify-content: flex-start; text-align: left; align-items: baseline; font-size: 0; line-height: 1.25;margin-top: -2px;&quot;&gt;&lt;span&gt;&lt;span style=&quot;font-size:16.7px;&quot;&gt;    &quot;Cliente&quot;: {&#xa;&lt;/span&gt;&lt;/span&gt;&lt;/div&gt;&lt;div style=&quot;display: flex; justify-content: flex-start; text-align: left; align-items: baseline; font-size: 0; line-height: 1.25;margin-top: -2px;&quot;&gt;&lt;span&gt;&lt;span style=&quot;font-size:16.7px;&quot;&gt;      &quot;IdTipoDocumento&quot;: 1,&#xa;&lt;/span&gt;&lt;/span&gt;&lt;/div&gt;&lt;div style=&quot;display: flex; justify-content: flex-start; text-align: left; align-items: baseline; font-size: 0; line-height: 1.25;margin-top: -2px;&quot;&gt;&lt;span&gt;&lt;span style=&quot;font-size:16.7px;&quot;&gt;      &quot;NumeroDocumento&quot;: &quot;12345678&quot;,&#xa;&lt;/span&gt;&lt;/span&gt;&lt;/div&gt;&lt;div style=&quot;display: flex; justify-content: flex-start; text-align: left; align-items: baseline; font-size: 0; line-height: 1.25;margin-top: -2px;&quot;&gt;&lt;span&gt;&lt;span style=&quot;font-size:16.7px;&quot;&gt;      &quot;RazonSocial&quot;: &quot;Empresa Ejemplo S.A.&quot;,&#xa;&lt;/span&gt;&lt;/span&gt;&lt;/div&gt;&lt;div style=&quot;display: flex; justify-content: flex-start; text-align: left; align-items: baseline; font-size: 0; line-height: 1.25;margin-top: -2px;&quot;&gt;&lt;span&gt;&lt;span style=&quot;font-size:16.7px;&quot;&gt;      &quot;Nombres&quot;: &quot;Juan&quot;,&#xa;&lt;/span&gt;&lt;/span&gt;&lt;/div&gt;&lt;div style=&quot;display: flex; justify-content: flex-start; text-align: left; align-items: baseline; font-size: 0; line-height: 1.25;margin-top: -2px;&quot;&gt;&lt;span&gt;&lt;span style=&quot;font-size:16.7px;&quot;&gt;      &quot;ApellidoPaterno&quot;: &quot;Pérez&quot;,&#xa;&lt;/span&gt;&lt;/span&gt;&lt;/div&gt;&lt;div style=&quot;display: flex; justify-content: flex-start; text-align: left; align-items: baseline; font-size: 0; line-height: 1.25;margin-top: -2px;&quot;&gt;&lt;span&gt;&lt;span style=&quot;font-size:16.7px;&quot;&gt;      &quot;ApellidoMaterno&quot;: &quot;López&quot;,&#xa;&lt;/span&gt;&lt;/span&gt;&lt;/div&gt;&lt;div style=&quot;display: flex; justify-content: flex-start; text-align: left; align-items: baseline; font-size: 0; line-height: 1.25;margin-top: -2px;&quot;&gt;&lt;span&gt;&lt;span style=&quot;font-size:16.7px;&quot;&gt;      &quot;IdCliente&quot;: &quot;CL12345&quot;,&#xa;&lt;/span&gt;&lt;/span&gt;&lt;/div&gt;&lt;div style=&quot;display: flex; justify-content: flex-start; text-align: left; align-items: baseline; font-size: 0; line-height: 1.25;margin-top: -2px;&quot;&gt;&lt;span&gt;&lt;span style=&quot;font-size:16.7px;&quot;&gt;      &quot;DireccionCompleta&quot;: &quot;Calle Falsa 123&quot;,&#xa;&lt;/span&gt;&lt;/span&gt;&lt;/div&gt;&lt;div style=&quot;display: flex; justify-content: flex-start; text-align: left; align-items: baseline; font-size: 0; line-height: 1.25;margin-top: -2px;&quot;&gt;&lt;span&gt;&lt;span style=&quot;font-size:16.7px;&quot;&gt;      &quot;FechaNacimiento&quot;: &quot;1985-05-15&quot;,&#xa;&lt;/span&gt;&lt;/span&gt;&lt;/div&gt;&lt;div style=&quot;display: flex; justify-content: flex-start; text-align: left; align-items: baseline; font-size: 0; line-height: 1.25;margin-top: -2px;&quot;&gt;&lt;span&gt;&lt;span style=&quot;font-size:16.7px;&quot;&gt;      &quot;Telefono&quot;: &quot;987654321&quot;,&#xa;&lt;/span&gt;&lt;/span&gt;&lt;/div&gt;&lt;div style=&quot;display: flex; justify-content: flex-start; text-align: left; align-items: baseline; font-size: 0; line-height: 1.25;margin-top: -2px;&quot;&gt;&lt;span&gt;&lt;span style=&quot;font-size:16.7px;&quot;&gt;      &quot;Sexo&quot;: &quot;M&quot;,&#xa;&lt;/span&gt;&lt;/span&gt;&lt;/div&gt;&lt;div style=&quot;display: flex; justify-content: flex-start; text-align: left; align-items: baseline; font-size: 0; line-height: 1.25;margin-top: -2px;&quot;&gt;&lt;span&gt;&lt;span style=&quot;font-size:16.7px;&quot;&gt;      &quot;IdTipoPersona&quot;: 1,&#xa;&lt;/span&gt;&lt;/span&gt;&lt;/div&gt;&lt;div style=&quot;display: flex; justify-content: flex-start; text-align: left; align-items: baseline; font-size: 0; line-height: 1.25;margin-top: -2px;&quot;&gt;&lt;span&gt;&lt;span style=&quot;font-size:16.7px;&quot;&gt;      &quot;IdTipoEmpresa&quot;: 2,&#xa;&lt;/span&gt;&lt;/span&gt;&lt;/div&gt;&lt;div style=&quot;display: flex; justify-content: flex-start; text-align: left; align-items: baseline; font-size: 0; line-height: 1.25;margin-top: -2px;&quot;&gt;&lt;span&gt;&lt;span style=&quot;font-size:16.7px;&quot;&gt;      &quot;CorreoElectronico&quot;: &quot;cliente@ejemplo.com&quot;,&#xa;&lt;/span&gt;&lt;/span&gt;&lt;/div&gt;&lt;div style=&quot;display: flex; justify-content: flex-start; text-align: left; align-items: baseline; font-size: 0; line-height: 1.25;margin-top: -2px;&quot;&gt;&lt;span&gt;&lt;span style=&quot;font-size:16.7px;&quot;&gt;      &quot;IdTipoVia&quot;: 1,&#xa;&lt;/span&gt;&lt;/span&gt;&lt;/div&gt;&lt;div style=&quot;display: flex; justify-content: flex-start; text-align: left; align-items: baseline; font-size: 0; line-height: 1.25;margin-top: -2px;&quot;&gt;&lt;span&gt;&lt;span style=&quot;font-size:16.7px;&quot;&gt;      &quot;Numero&quot;: &quot;123&quot;,&#xa;&lt;/span&gt;&lt;/span&gt;&lt;/div&gt;&lt;div style=&quot;display: flex; justify-content: flex-start; text-align: left; align-items: baseline; font-size: 0; line-height: 1.25;margin-top: -2px;&quot;&gt;&lt;span&gt;&lt;span style=&quot;font-size:16.7px;&quot;&gt;      &quot;Kilometro&quot;: &quot;0&quot;,&#xa;&lt;/span&gt;&lt;/span&gt;&lt;/div&gt;&lt;div style=&quot;display: flex; justify-content: flex-start; text-align: left; align-items: baseline; font-size: 0; line-height: 1.25;margin-top: -2px;&quot;&gt;&lt;span&gt;&lt;span style=&quot;font-size:16.7px;&quot;&gt;      &quot;Manzana&quot;: &quot;A&quot;,&#xa;&lt;/span&gt;&lt;/span&gt;&lt;/div&gt;&lt;div style=&quot;display: flex; justify-content: flex-start; text-align: left; align-items: baseline; font-size: 0; line-height: 1.25;margin-top: -2px;&quot;&gt;&lt;span&gt;&lt;span style=&quot;font-size:16.7px;&quot;&gt;      &quot;Departamento&quot;: &quot;101&quot;,&#xa;&lt;/span&gt;&lt;/span&gt;&lt;/div&gt;&lt;div style=&quot;display: flex; justify-content: flex-start; text-align: left; align-items: baseline; font-size: 0; line-height: 1.25;margin-top: -2px;&quot;&gt;&lt;span&gt;&lt;span style=&quot;font-size:16.7px;&quot;&gt;      &quot;Piso&quot;: &quot;1&quot;,&#xa;&lt;/span&gt;&lt;/span&gt;&lt;/div&gt;&lt;div style=&quot;display: flex; justify-content: flex-start; text-align: left; align-items: baseline; font-size: 0; line-height: 1.25;margin-top: -2px;&quot;&gt;&lt;span&gt;&lt;span style=&quot;font-size:16.7px;&quot;&gt;      &quot;Interior&quot;: &quot;B&quot;,&#xa;&lt;/span&gt;&lt;/span&gt;&lt;/div&gt;&lt;div style=&quot;display: flex; justify-content: flex-start; text-align: left; align-items: baseline; font-size: 0; line-height: 1.25;margin-top: -2px;&quot;&gt;&lt;span&gt;&lt;span style=&quot;font-size:16.7px;&quot;&gt;      &quot;Lote&quot;: &quot;12&quot;,&#xa;&lt;/span&gt;&lt;/span&gt;&lt;/div&gt;&lt;div style=&quot;display: flex; justify-content: flex-start; text-align: left; align-items: baseline; font-size: 0; line-height: 1.25;margin-top: -2px;&quot;&gt;&lt;span&gt;&lt;span style=&quot;font-size:16.7px;&quot;&gt;      &quot;Urbanizacion&quot;: &quot;Residencial Ejemplo&quot;&#xa;&lt;/span&gt;&lt;/span&gt;&lt;/div&gt;&lt;div style=&quot;display: flex; justify-content: flex-start; text-align: left; align-items: baseline; font-size: 0; line-height: 1.25;margin-top: -2px;&quot;&gt;&lt;span&gt;&lt;span style=&quot;font-size:16.7px;&quot;&gt;    },&#xa;&lt;/span&gt;&lt;/span&gt;&lt;/div&gt;&lt;div style=&quot;display: flex; justify-content: flex-start; text-align: left; align-items: baseline; font-size: 0; line-height: 1.25;margin-top: -2px;&quot;&gt;&lt;span&gt;&lt;span style=&quot;font-size:16.7px;&quot;&gt;    &quot;IdRamo&quot;: 5,&#xa;&lt;/span&gt;&lt;/span&gt;&lt;/div&gt;&lt;div style=&quot;display: flex; justify-content: flex-start; text-align: left; align-items: baseline; font-size: 0; line-height: 1.25;margin-top: -2px;&quot;&gt;&lt;span&gt;&lt;span style=&quot;font-size:16.7px;&quot;&gt;    &quot;IdOficina&quot;: 2,&#xa;&lt;/span&gt;&lt;/span&gt;&lt;/div&gt;&lt;div style=&quot;display: flex; justify-content: flex-start; text-align: left; align-items: baseline; font-size: 0; line-height: 1.25;margin-top: -2px;&quot;&gt;&lt;span&gt;&lt;span style=&quot;font-size:16.7px;&quot;&gt;    &quot;IdIntermediario&quot;: 10,&#xa;&lt;/span&gt;&lt;/span&gt;&lt;/div&gt;&lt;div style=&quot;display: flex; justify-content: flex-start; text-align: left; align-items: baseline; font-size: 0; line-height: 1.25;margin-top: -2px;&quot;&gt;&lt;span&gt;&lt;span style=&quot;font-size:16.7px;&quot;&gt;    &quot;Transaccion&quot;: {&#xa;&lt;/span&gt;&lt;/span&gt;&lt;/div&gt;&lt;div style=&quot;display: flex; justify-content: flex-start; text-align: left; align-items: baseline; font-size: 0; line-height: 1.25;margin-top: -2px;&quot;&gt;&lt;span&gt;&lt;span style=&quot;font-size:16.7px;&quot;&gt;      &quot;IdTransaccionOrigen&quot;: &quot;TX98765&quot;,&#xa;&lt;/span&gt;&lt;/span&gt;&lt;/div&gt;&lt;div style=&quot;display: flex; justify-content: flex-start; text-align: left; align-items: baseline; font-size: 0; line-height: 1.25;margin-top: -2px;&quot;&gt;&lt;span&gt;&lt;span style=&quot;font-size:16.7px;&quot;&gt;      &quot;IdAplicacionOrigen&quot;: 3&#xa;&lt;/span&gt;&lt;/span&gt;&lt;/div&gt;&lt;div style=&quot;display: flex; justify-content: flex-start; text-align: left; align-items: baseline; font-size: 0; line-height: 1.25;margin-top: -2px;&quot;&gt;&lt;span&gt;&lt;span style=&quot;font-size:16.7px;&quot;&gt;    },&#xa;&lt;/span&gt;&lt;/span&gt;&lt;/div&gt;&lt;div style=&quot;display: flex; justify-content: flex-start; text-align: left; align-items: baseline; font-size: 0; line-height: 1.25;margin-top: -2px;&quot;&gt;&lt;span&gt;&lt;span style=&quot;font-size:16.7px;&quot;&gt;    &quot;Observacion&quot;: &quot;Mock de solicitud&quot;,&#xa;&lt;/span&gt;&lt;/span&gt;&lt;/div&gt;&lt;div style=&quot;display: flex; justify-content: flex-start; text-align: left; align-items: baseline; font-size: 0; line-height: 1.25;margin-top: -2px;&quot;&gt;&lt;span&gt;&lt;span style=&quot;font-size:16.7px;&quot;&gt;    &quot;IdPoliza&quot;: 123456,&#xa;&lt;/span&gt;&lt;/span&gt;&lt;/div&gt;&lt;div style=&quot;display: flex; justify-content: flex-start; text-align: left; align-items: baseline; font-size: 0; line-height: 1.25;margin-top: -2px;&quot;&gt;&lt;span&gt;&lt;span style=&quot;font-size:16.7px;&quot;&gt;    &quot;IndicadorPolizaElectronica&quot;: true,&#xa;&lt;/span&gt;&lt;/span&gt;&lt;/div&gt;&lt;div style=&quot;display: flex; justify-content: flex-start; text-align: left; align-items: baseline; font-size: 0; line-height: 1.25;margin-top: -2px;&quot;&gt;&lt;span&gt;&lt;span style=&quot;font-size:16.7px;&quot;&gt;    &quot;PorcentajePrimerPago&quot;: 20.5,&#xa;&lt;/span&gt;&lt;/span&gt;&lt;/div&gt;&lt;div style=&quot;display: flex; justify-content: flex-start; text-align: left; align-items: baseline; font-size: 0; line-height: 1.25;margin-top: -2px;&quot;&gt;&lt;span&gt;&lt;span style=&quot;font-size:16.7px;&quot;&gt;    &quot;CantidadCuotas&quot;: 12,&#xa;&lt;/span&gt;&lt;/span&gt;&lt;/div&gt;&lt;div style=&quot;display: flex; justify-content: flex-start; text-align: left; align-items: baseline; font-size: 0; line-height: 1.25;margin-top: -2px;&quot;&gt;&lt;span&gt;&lt;span style=&quot;font-size:16.7px;&quot;&gt;    &quot;IdFormaPago&quot;: &quot;001&quot;&#xa;&lt;/span&gt;&lt;/span&gt;&lt;/div&gt;&lt;div style=&quot;display: flex; justify-content: flex-start; text-align: left; align-items: baseline; font-size: 0; line-height: 1.25;margin-top: -2px;&quot;&gt;&lt;span&gt;&lt;span style=&quot;font-size:16.7px;&quot;&gt;  }&#xa;&lt;/span&gt;&lt;/span&gt;&lt;/div&gt;&lt;div style=&quot;display: flex; justify-content: flex-start; text-align: left; align-items: baseline; font-size: 0; line-height: 1.25;margin-top: -2px;&quot;&gt;&lt;span&gt;&lt;span style=&quot;font-size:16.7px;&quot;&gt;}&lt;/span&gt;&lt;/span&gt;&lt;/div&gt;" style="html=1;overflow=block;blockSpacing=1;whiteSpace=wrap;fontSize=13;spacing=3.8;verticalAlign=middle;rounded=1;absoluteArcSize=1;arcSize=9;strokeWidth=NaN;lucidId=FE6sqcSKsNBO;" parent="1" vertex="1">
          <mxGeometry x="-3840" y="945" width="375" height="870" as="geometry" />
        </mxCell>
        <mxCell id="FblqEJ61d_rF8akwRJso-246" value="Request" style="html=1;overflow=block;blockSpacing=1;whiteSpace=wrap;fontSize=16.7;align=center;spacing=0;rounded=1;absoluteArcSize=1;arcSize=9;strokeWidth=NaN;lucidId=FG6sjm-eP82e;" parent="1" vertex="1">
          <mxGeometry x="-3780" y="900" width="180" height="45" as="geometry" />
        </mxCell>
        <mxCell id="FblqEJ61d_rF8akwRJso-247" value="&lt;div style=&quot;display: flex; justify-content: flex-start; text-align: left; align-items: baseline; font-size: 0; line-height: 1.25;margin-top: -2px;&quot;&gt;&lt;span&gt;&lt;span style=&quot;font-size:13px;color:#0e0e0e;font-weight: bold;&quot;&gt;Solicitud (Obligatoria)&lt;/span&gt;&lt;span style=&quot;font-size:16px;&quot;&gt; &#xa;&lt;/span&gt;&lt;span style=&quot;font-size:14px;color:#0e0e0e;&quot;&gt;&#xa;&lt;/span&gt;&lt;span style=&quot;font-size:16px;&quot;&gt; &#xa;&lt;/span&gt;&lt;span style=&quot;font-size:14px;color:#0e0e0e;&quot;&gt;&lt;span style=&quot;font-size:14px;color:#0e0e0e;&quot;&gt;&#x9;•&#x9;&lt;/span&gt;&lt;span style=&quot;font-size:14px;color:#0e0e0e;font-weight: bold;&quot;&gt;IdTipoSolicitud&lt;/span&gt;: Obligatorio.&lt;/span&gt;&lt;span style=&quot;font-size:16px;&quot;&gt; &#xa;&lt;/span&gt;&lt;span style=&quot;font-size:14px;color:#0e0e0e;&quot;&gt;&lt;span style=&quot;font-size:14px;color:#0e0e0e;&quot;&gt;&#x9;•&#x9;&lt;/span&gt;&lt;span style=&quot;font-size:14px;color:#0e0e0e;font-weight: bold;&quot;&gt;Cliente&lt;/span&gt;: Obligatorio.&lt;/span&gt;&lt;span style=&quot;font-size:16px;&quot;&gt; &#xa;&lt;/span&gt;&lt;span style=&quot;font-size:14px;color:#0e0e0e;&quot;&gt;&lt;span style=&quot;font-size:14px;color:#0e0e0e;&quot;&gt;&#x9;•&#x9;&lt;/span&gt;&lt;span style=&quot;font-size:14px;color:#0e0e0e;font-weight: bold;&quot;&gt;IdTipoDocumento&lt;/span&gt;: Obligatorio.&lt;/span&gt;&lt;span style=&quot;font-size:16px;&quot;&gt; &#xa;&lt;/span&gt;&lt;span style=&quot;font-size:14px;color:#0e0e0e;&quot;&gt;&lt;span style=&quot;font-size:14px;color:#0e0e0e;&quot;&gt;&#x9;•&#x9;&lt;/span&gt;&lt;span style=&quot;font-size:14px;color:#0e0e0e;font-weight: bold;&quot;&gt;NumeroDocumento&lt;/span&gt;: Obligatorio.&lt;/span&gt;&lt;span style=&quot;font-size:16px;&quot;&gt; &#xa;&lt;/span&gt;&lt;span style=&quot;font-size:14px;color:#0e0e0e;&quot;&gt;&lt;span style=&quot;font-size:14px;color:#0e0e0e;&quot;&gt;&#x9;•&#x9;&lt;/span&gt;&lt;span style=&quot;font-size:14px;color:#0e0e0e;font-weight: bold;&quot;&gt;RazonSocial&lt;/span&gt;: Opcional (solo para personas jurídicas).&lt;/span&gt;&lt;span style=&quot;font-size:16px;&quot;&gt; &#xa;&lt;/span&gt;&lt;span style=&quot;font-size:14px;color:#0e0e0e;&quot;&gt;&lt;span style=&quot;font-size:14px;color:#0e0e0e;&quot;&gt;&#x9;•&#x9;&lt;/span&gt;&lt;span style=&quot;font-size:14px;color:#0e0e0e;font-weight: bold;&quot;&gt;Nombres&lt;/span&gt;: Opcional (solo para personas naturales).&lt;/span&gt;&lt;span style=&quot;font-size:16px;&quot;&gt; &#xa;&lt;/span&gt;&lt;span style=&quot;font-size:14px;color:#0e0e0e;&quot;&gt;&lt;span style=&quot;font-size:14px;color:#0e0e0e;&quot;&gt;&#x9;•&#x9;&lt;/span&gt;&lt;span style=&quot;font-size:14px;color:#0e0e0e;font-weight: bold;&quot;&gt;ApellidoPaterno&lt;/span&gt;: Opcional (solo para personas naturales).&lt;/span&gt;&lt;span style=&quot;font-size:16px;&quot;&gt; &#xa;&lt;/span&gt;&lt;span style=&quot;font-size:14px;color:#0e0e0e;&quot;&gt;&lt;span style=&quot;font-size:14px;color:#0e0e0e;&quot;&gt;&#x9;•&#x9;&lt;/span&gt;&lt;span style=&quot;font-size:14px;color:#0e0e0e;font-weight: bold;&quot;&gt;ApellidoMaterno&lt;/span&gt;: Opcional (solo para personas naturales).&lt;/span&gt;&lt;span style=&quot;font-size:16px;&quot;&gt; &#xa;&lt;/span&gt;&lt;span style=&quot;font-size:14px;color:#0e0e0e;&quot;&gt;&lt;span style=&quot;font-size:14px;color:#0e0e0e;&quot;&gt;&#x9;•&#x9;&lt;/span&gt;&lt;span style=&quot;font-size:14px;color:#0e0e0e;font-weight: bold;&quot;&gt;IdCliente&lt;/span&gt;: Opcional (se genera si no está presente).&lt;/span&gt;&lt;span style=&quot;font-size:16px;&quot;&gt; &#xa;&lt;/span&gt;&lt;span style=&quot;font-size:14px;color:#0e0e0e;&quot;&gt;&lt;span style=&quot;font-size:14px;color:#0e0e0e;&quot;&gt;&#x9;•&#x9;&lt;/span&gt;&lt;span style=&quot;font-size:14px;color:#0e0e0e;font-weight: bold;&quot;&gt;DireccionCompleta&lt;/span&gt;: Obligatorio.&lt;/span&gt;&lt;span style=&quot;font-size:16px;&quot;&gt; &#xa;&lt;/span&gt;&lt;span style=&quot;font-size:14px;color:#0e0e0e;&quot;&gt;&lt;span style=&quot;font-size:14px;color:#0e0e0e;&quot;&gt;&#x9;•&#x9;&lt;/span&gt;&lt;span style=&quot;font-size:14px;color:#0e0e0e;font-weight: bold;&quot;&gt;FechaNacimiento&lt;/span&gt;: Opcional.&lt;/span&gt;&lt;span style=&quot;font-size:16px;&quot;&gt; &#xa;&lt;/span&gt;&lt;span style=&quot;font-size:14px;color:#0e0e0e;&quot;&gt;&lt;span style=&quot;font-size:14px;color:#0e0e0e;&quot;&gt;&#x9;•&#x9;&lt;/span&gt;&lt;span style=&quot;font-size:14px;color:#0e0e0e;font-weight: bold;&quot;&gt;Telefono&lt;/span&gt;: Opcional.&lt;/span&gt;&lt;span style=&quot;font-size:16px;&quot;&gt; &#xa;&lt;/span&gt;&lt;span style=&quot;font-size:14px;color:#0e0e0e;&quot;&gt;&lt;span style=&quot;font-size:14px;color:#0e0e0e;&quot;&gt;&#x9;•&#x9;&lt;/span&gt;&lt;span style=&quot;font-size:14px;color:#0e0e0e;font-weight: bold;&quot;&gt;Sexo&lt;/span&gt;: Opcional.&lt;/span&gt;&lt;span style=&quot;font-size:16px;&quot;&gt; &#xa;&lt;/span&gt;&lt;span style=&quot;font-size:14px;color:#0e0e0e;&quot;&gt;&lt;span style=&quot;font-size:14px;color:#0e0e0e;&quot;&gt;&#x9;•&#x9;&lt;/span&gt;&lt;span style=&quot;font-size:14px;color:#0e0e0e;font-weight: bold;&quot;&gt;IdTipoPersona&lt;/span&gt;: Obligatorio.&lt;/span&gt;&lt;span style=&quot;font-size:16px;&quot;&gt; &#xa;&lt;/span&gt;&lt;span style=&quot;font-size:14px;color:#0e0e0e;&quot;&gt;&lt;span style=&quot;font-size:14px;color:#0e0e0e;&quot;&gt;&#x9;•&#x9;&lt;/span&gt;&lt;span style=&quot;font-size:14px;color:#0e0e0e;font-weight: bold;&quot;&gt;IdTipoEmpresa&lt;/span&gt;: Opcional (solo para personas jurídicas).&lt;/span&gt;&lt;span style=&quot;font-size:16px;&quot;&gt; &#xa;&lt;/span&gt;&lt;span style=&quot;font-size:14px;color:#0e0e0e;&quot;&gt;&lt;span style=&quot;font-size:14px;color:#0e0e0e;&quot;&gt;&#x9;•&#x9;&lt;/span&gt;&lt;span style=&quot;font-size:14px;color:#0e0e0e;font-weight: bold;&quot;&gt;CorreoElectronico&lt;/span&gt;: Opcional.&lt;/span&gt;&lt;span style=&quot;font-size:16px;&quot;&gt; &#xa;&lt;/span&gt;&lt;span style=&quot;font-size:14px;color:#0e0e0e;&quot;&gt;&lt;span style=&quot;font-size:14px;color:#0e0e0e;&quot;&gt;&#x9;•&#x9;&lt;/span&gt;&lt;span style=&quot;font-size:14px;color:#0e0e0e;font-weight: bold;&quot;&gt;IdTipoVia&lt;/span&gt;: Opcional.&lt;/span&gt;&lt;span style=&quot;font-size:16px;&quot;&gt; &#xa;&lt;/span&gt;&lt;span style=&quot;font-size:14px;color:#0e0e0e;&quot;&gt;&lt;span style=&quot;font-size:14px;color:#0e0e0e;&quot;&gt;&#x9;•&#x9;&lt;/span&gt;&lt;span style=&quot;font-size:14px;color:#0e0e0e;font-weight: bold;&quot;&gt;Numero&lt;/span&gt;: Opcional.&lt;/span&gt;&lt;span style=&quot;font-size:16px;&quot;&gt; &#xa;&lt;/span&gt;&lt;span style=&quot;font-size:14px;color:#0e0e0e;&quot;&gt;&lt;span style=&quot;font-size:14px;color:#0e0e0e;&quot;&gt;&#x9;•&#x9;&lt;/span&gt;&lt;span style=&quot;font-size:14px;color:#0e0e0e;font-weight: bold;&quot;&gt;Kilometro&lt;/span&gt;: Opcional.&lt;/span&gt;&lt;span style=&quot;font-size:16px;&quot;&gt; &#xa;&lt;/span&gt;&lt;span style=&quot;font-size:14px;color:#0e0e0e;&quot;&gt;&lt;span style=&quot;font-size:14px;color:#0e0e0e;&quot;&gt;&#x9;•&#x9;&lt;/span&gt;&lt;span style=&quot;font-size:14px;color:#0e0e0e;font-weight: bold;&quot;&gt;Manzana&lt;/span&gt;: Opcional.&lt;/span&gt;&lt;span style=&quot;font-size:16px;&quot;&gt; &#xa;&lt;/span&gt;&lt;span style=&quot;font-size:14px;color:#0e0e0e;&quot;&gt;&lt;span style=&quot;font-size:14px;color:#0e0e0e;&quot;&gt;&#x9;•&#x9;&lt;/span&gt;&lt;span style=&quot;font-size:14px;color:#0e0e0e;font-weight: bold;&quot;&gt;Departamento&lt;/span&gt;: Opcional.&lt;/span&gt;&lt;span style=&quot;font-size:16px;&quot;&gt; &#xa;&lt;/span&gt;&lt;span style=&quot;font-size:14px;color:#0e0e0e;&quot;&gt;&lt;span style=&quot;font-size:14px;color:#0e0e0e;&quot;&gt;&#x9;•&#x9;&lt;/span&gt;&lt;span style=&quot;font-size:14px;color:#0e0e0e;font-weight: bold;&quot;&gt;Piso&lt;/span&gt;: Opcional.&lt;/span&gt;&lt;span style=&quot;font-size:16px;&quot;&gt; &#xa;&lt;/span&gt;&lt;span style=&quot;font-size:14px;color:#0e0e0e;&quot;&gt;&lt;span style=&quot;font-size:14px;color:#0e0e0e;&quot;&gt;&#x9;•&#x9;&lt;/span&gt;&lt;span style=&quot;font-size:14px;color:#0e0e0e;font-weight: bold;&quot;&gt;Interior&lt;/span&gt;: Opcional.&lt;/span&gt;&lt;span style=&quot;font-size:16px;&quot;&gt; &#xa;&lt;/span&gt;&lt;span style=&quot;font-size:14px;color:#0e0e0e;&quot;&gt;&lt;span style=&quot;font-size:14px;color:#0e0e0e;&quot;&gt;&#x9;•&#x9;&lt;/span&gt;&lt;span style=&quot;font-size:14px;color:#0e0e0e;font-weight: bold;&quot;&gt;Lote&lt;/span&gt;: Opcional.&lt;/span&gt;&lt;span style=&quot;font-size:16px;&quot;&gt; &#xa;&lt;/span&gt;&lt;span style=&quot;font-size:14px;color:#0e0e0e;&quot;&gt;&lt;span style=&quot;font-size:14px;color:#0e0e0e;&quot;&gt;&#x9;•&#x9;&lt;/span&gt;&lt;span style=&quot;font-size:14px;color:#0e0e0e;font-weight: bold;&quot;&gt;Urbanizacion&lt;/span&gt;: Opcional.&lt;/span&gt;&lt;span style=&quot;font-size:16px;&quot;&gt; &#xa;&lt;/span&gt;&lt;span style=&quot;font-size:14px;color:#0e0e0e;&quot;&gt;&lt;span style=&quot;font-size:14px;color:#0e0e0e;&quot;&gt;&#x9;•&#x9;&lt;/span&gt;&lt;span style=&quot;font-size:14px;color:#0e0e0e;font-weight: bold;&quot;&gt;IdRamo&lt;/span&gt;: Obligatorio.&lt;/span&gt;&lt;span style=&quot;font-size:16px;&quot;&gt; &#xa;&lt;/span&gt;&lt;span style=&quot;font-size:14px;color:#0e0e0e;&quot;&gt;&lt;span style=&quot;font-size:14px;color:#0e0e0e;&quot;&gt;&#x9;•&#x9;&lt;/span&gt;&lt;span style=&quot;font-size:14px;color:#0e0e0e;font-weight: bold;&quot;&gt;IdOficina&lt;/span&gt;: Obligatorio.&lt;/span&gt;&lt;span style=&quot;font-size:16px;&quot;&gt; &#xa;&lt;/span&gt;&lt;span style=&quot;font-size:14px;color:#0e0e0e;&quot;&gt;&lt;span style=&quot;font-size:14px;color:#0e0e0e;&quot;&gt;&#x9;•&#x9;&lt;/span&gt;&lt;span style=&quot;font-size:14px;color:#0e0e0e;font-weight: bold;&quot;&gt;IdIntermediario&lt;/span&gt;: Obligatorio.&lt;/span&gt;&lt;span style=&quot;font-size:16px;&quot;&gt; &#xa;&lt;/span&gt;&lt;span style=&quot;font-size:14px;color:#0e0e0e;&quot;&gt;&lt;span style=&quot;font-size:14px;color:#0e0e0e;&quot;&gt;&#x9;•&#x9;&lt;/span&gt;&lt;span style=&quot;font-size:14px;color:#0e0e0e;font-weight: bold;&quot;&gt;Transaccion&lt;/span&gt;: Obligatorio.&lt;/span&gt;&lt;span style=&quot;font-size:16px;&quot;&gt; &#xa;&lt;/span&gt;&lt;span style=&quot;font-size:14px;color:#0e0e0e;&quot;&gt;&lt;span style=&quot;font-size:14px;color:#0e0e0e;&quot;&gt;&#x9;•&#x9;&lt;/span&gt;&lt;span style=&quot;font-size:14px;color:#0e0e0e;font-weight: bold;&quot;&gt;IdTransaccionOrigen&lt;/span&gt;: Obligatorio.&lt;/span&gt;&lt;span style=&quot;font-size:16px;&quot;&gt; &#xa;&lt;/span&gt;&lt;span style=&quot;font-size:14px;color:#0e0e0e;&quot;&gt;&lt;span style=&quot;font-size:14px;color:#0e0e0e;&quot;&gt;&#x9;•&#x9;&lt;/span&gt;&lt;span style=&quot;font-size:14px;color:#0e0e0e;font-weight: bold;&quot;&gt;IdAplicacionOrigen&lt;/span&gt;: Obligatorio.&lt;/span&gt;&lt;span style=&quot;font-size:16px;&quot;&gt; &#xa;&lt;/span&gt;&lt;span style=&quot;font-size:14px;color:#0e0e0e;&quot;&gt;&lt;span style=&quot;font-size:14px;color:#0e0e0e;&quot;&gt;&#x9;•&#x9;&lt;/span&gt;&lt;span style=&quot;font-size:14px;color:#0e0e0e;font-weight: bold;&quot;&gt;Observacion&lt;/span&gt;: Opcional.&lt;/span&gt;&lt;span style=&quot;font-size:16px;&quot;&gt; &#xa;&lt;/span&gt;&lt;span style=&quot;font-size:14px;color:#0e0e0e;&quot;&gt;&lt;span style=&quot;font-size:14px;color:#0e0e0e;&quot;&gt;&#x9;•&#x9;&lt;/span&gt;&lt;span style=&quot;font-size:14px;color:#0e0e0e;font-weight: bold;&quot;&gt;IdPoliza&lt;/span&gt;: Opcional.&lt;/span&gt;&lt;span style=&quot;font-size:16px;&quot;&gt; &#xa;&lt;/span&gt;&lt;span style=&quot;font-size:14px;color:#0e0e0e;&quot;&gt;&lt;span style=&quot;font-size:14px;color:#0e0e0e;&quot;&gt;&#x9;•&#x9;&lt;/span&gt;&lt;span style=&quot;font-size:14px;color:#0e0e0e;font-weight: bold;&quot;&gt;IndicadorPolizaElectronica&lt;/span&gt;: Obligatorio.&lt;/span&gt;&lt;span style=&quot;font-size:16px;&quot;&gt; &#xa;&lt;/span&gt;&lt;span style=&quot;font-size:14px;color:#0e0e0e;&quot;&gt;&lt;span style=&quot;font-size:14px;color:#0e0e0e;&quot;&gt;&#x9;•&#x9;&lt;/span&gt;&lt;span style=&quot;font-size:14px;color:#0e0e0e;font-weight: bold;&quot;&gt;PorcentajePrimerPago&lt;/span&gt;: Opcional.&lt;/span&gt;&lt;span style=&quot;font-size:16px;&quot;&gt; &#xa;&lt;/span&gt;&lt;span style=&quot;font-size:14px;color:#0e0e0e;&quot;&gt;&lt;span style=&quot;font-size:14px;color:#0e0e0e;&quot;&gt;&#x9;•&#x9;&lt;/span&gt;&lt;span style=&quot;font-size:14px;color:#0e0e0e;font-weight: bold;&quot;&gt;CantidadCuotas&lt;/span&gt;: Opcional.&lt;/span&gt;&lt;span style=&quot;font-size:16px;&quot;&gt; &#xa;&lt;/span&gt;&lt;span style=&quot;font-size:14px;color:#0e0e0e;&quot;&gt;&lt;span style=&quot;font-size:14px;color:#0e0e0e;&quot;&gt;&#x9;•&#x9;&lt;/span&gt;&lt;span style=&quot;font-size:14px;color:#0e0e0e;font-weight: bold;&quot;&gt;IdFormaPago&lt;/span&gt;: Opcional.&lt;/span&gt;&lt;/span&gt;&lt;/div&gt;" style="html=1;overflow=block;blockSpacing=1;whiteSpace=wrap;fontSize=13;align=left;spacing=3.8;verticalAlign=top;strokeColor=none;fillOpacity=0;rounded=1;absoluteArcSize=1;arcSize=9;fillColor=#ffffff;strokeWidth=0;lucidId=VH6sOw~~_yas;" parent="1" vertex="1">
          <mxGeometry x="-3435" y="945" width="450" height="870" as="geometry" />
        </mxCell>
        <mxCell id="FblqEJ61d_rF8akwRJso-248" value="" style="html=1;jettySize=18;whiteSpace=wrap;fontSize=13;strokeColor=#5E5E5E;strokeWidth=1.5;rounded=1;arcSize=12;edgeStyle=orthogonalEdgeStyle;startArrow=none;endArrow=block;endFill=1;exitX=0.5;exitY=1.008;exitPerimeter=0;entryX=0.5;entryY=-0.001;entryPerimeter=0;lucidId=mJ6sEp9HN8DR;" parent="1" source="FblqEJ61d_rF8akwRJso-244" target="FblqEJ61d_rF8akwRJso-245" edge="1">
          <mxGeometry width="100" height="100" relative="1" as="geometry">
            <Array as="points" />
          </mxGeometry>
        </mxCell>
        <mxCell id="FblqEJ61d_rF8akwRJso-249" value="" style="html=1;jettySize=18;whiteSpace=wrap;fontSize=13;strokeColor=#5E5E5E;strokeWidth=1.5;rounded=1;arcSize=12;edgeStyle=orthogonalEdgeStyle;startArrow=none;endArrow=block;endFill=1;exitX=1.006;exitY=0.5;exitPerimeter=0;entryX=0.119;entryY=0.497;entryPerimeter=0;lucidId=wN6sV0BAL.AV;" parent="1" source="FblqEJ61d_rF8akwRJso-244" target="FblqEJ61d_rF8akwRJso-250" edge="1">
          <mxGeometry width="100" height="100" relative="1" as="geometry">
            <Array as="points" />
          </mxGeometry>
        </mxCell>
        <mxCell id="FblqEJ61d_rF8akwRJso-250" value="Validar Request" style="html=1;overflow=block;blockSpacing=1;whiteSpace=wrap;shape=component;align=left;spacingLeft=36;fontSize=16.7;spacing=0;rounded=1;absoluteArcSize=1;arcSize=9;strokeWidth=NaN;lucidId=BN6sFm_gjKA6;fillColor=#f0a30a;fontColor=#000000;strokeColor=#BD7000;" parent="1" vertex="1">
          <mxGeometry x="-3150" y="802" width="120" height="90" as="geometry" />
        </mxCell>
        <mxCell id="FblqEJ61d_rF8akwRJso-251" value="" style="html=1;jettySize=18;whiteSpace=wrap;fontSize=13;strokeColor=#5E5E5E;strokeWidth=1.5;rounded=1;arcSize=12;edgeStyle=orthogonalEdgeStyle;startArrow=none;endArrow=block;endFill=1;exitX=1.006;exitY=0.5;exitPerimeter=0;entryX=0.011;entryY=0.5;entryPerimeter=0;lucidId=cO6sFgADnF~S;" parent="1" source="FblqEJ61d_rF8akwRJso-250" target="FblqEJ61d_rF8akwRJso-252" edge="1">
          <mxGeometry width="100" height="100" relative="1" as="geometry">
            <Array as="points" />
          </mxGeometry>
        </mxCell>
        <mxCell id="FblqEJ61d_rF8akwRJso-252" value="Resultado" style="html=1;overflow=block;blockSpacing=1;whiteSpace=wrap;shape=rhombus;fontSize=16.7;align=center;spacing=3.8;rounded=1;absoluteArcSize=1;arcSize=9;strokeWidth=NaN;lucidId=DO6sC208uZP9;fillColor=#008a00;fontColor=#ffffff;strokeColor=#005700;" parent="1" vertex="1">
          <mxGeometry x="-2895" y="795" width="120" height="105" as="geometry" />
        </mxCell>
        <mxCell id="FblqEJ61d_rF8akwRJso-253" value="" style="group;html=1;" parent="1" vertex="1">
          <mxGeometry x="-2955" y="990" width="294" height="120" as="geometry" />
        </mxCell>
        <mxCell id="FblqEJ61d_rF8akwRJso-254" value="" style="shape=stencil(UzV2Ls5ILEhVNTIoLinKz04tz0wpyVA1dlE1MsrMy0gtyiwBslSNXVWNndPyi1LTi/JL81Ig/IJEkEoQKze/DGRCBUSfAUiHkUElMs8NojAnMw9JoYW5nrkZsYoNDVDNNSZBLYyPVTHZSlEUAhmI8EjLzMmBBCeyPHr4AYUgYW/sCgA=);whiteSpace=wrap;fontSize=13;strokeOpacity=100;fillOpacity=100;fillColor=#ffffff;align=left;spacing=0;" parent="FblqEJ61d_rF8akwRJso-253" vertex="1">
          <mxGeometry width="294" height="120" relative="1" as="geometry" />
        </mxCell>
        <mxCell id="FblqEJ61d_rF8akwRJso-255" value="" style="shape=stencil(UzV2Ls5ILEhVNTIoLinKz04tz0wpyVA1dlE1MsrMy0gtyiwBslSNXVWNndPyi1LTi/JL81Ig/IJEkEoQKze/DGRCBUSfhbmeuRlIl5FBJUTEAMxzgyjOyczDq9gYj2pDAwOi1RJwBpCB8EBaZk4OxP/I8ugeBgpBAsvYFQA=);whiteSpace=wrap;fontSize=13;strokeOpacity=100;fillOpacity=100;fillColor=#ffffff;align=left;spacing=0;" parent="FblqEJ61d_rF8akwRJso-253" vertex="1">
          <mxGeometry width="294" height="120" relative="1" as="geometry" />
        </mxCell>
        <mxCell id="FblqEJ61d_rF8akwRJso-256" value="&lt;div style=&quot;display: flex; justify-content: flex-start; text-align: left; align-items: baseline; font-size: 0; line-height: 1.25;margin-top: -2px;&quot;&gt;&lt;span&gt;&lt;span style=&quot;font-size:14.3px;color:#000000;font-weight: bold;font-family: Arimo;&quot;&gt;HTTP 400&lt;/span&gt;&lt;span style=&quot;font-size:14.3px;color:#000000;font-family: Arimo;&quot;&gt;&#xa;&lt;/span&gt;&lt;/span&gt;&lt;/div&gt;&lt;div style=&quot;display: flex; justify-content: center; text-align: center; align-items: baseline; font-size: 0; line-height: 1.25;margin-top: -2px;&quot;&gt;&lt;span&gt;&lt;span style=&quot;font-size:14.3px;color:#000000;font-family: Arimo;&quot;&gt;{&lt;/span&gt;&lt;span style=&quot;font-size:14.3px;color:#000000;font-family: Arimo;&quot;&gt;&#xa;&lt;/span&gt;&lt;/span&gt;&lt;/div&gt;&lt;div style=&quot;display: flex; justify-content: center; text-align: center; align-items: baseline; font-size: 0; line-height: 1.25;margin-top: -2px;&quot;&gt;&lt;span&gt;&lt;span style=&quot;font-size:14.3px;color:#000000;font-family: Arimo;&quot;&gt;  &quot;estado&quot;: &quot;incorrecto&quot;,&lt;/span&gt;&lt;span style=&quot;font-size:14.3px;color:#000000;font-family: Arimo;&quot;&gt;&#xa;&lt;/span&gt;&lt;/span&gt;&lt;/div&gt;&lt;div style=&quot;display: flex; justify-content: center; text-align: center; align-items: baseline; font-size: 0; line-height: 1.25;margin-top: -2px;&quot;&gt;&lt;span&gt;&lt;span style=&quot;font-size:14.3px;color:#000000;font-family: Arimo;&quot;&gt;  &quot;mensaje&quot;: &quot;[nombrecampo] es obligatorio&quot;,&lt;/span&gt;&lt;span style=&quot;font-size:14.3px;color:#000000;font-family: Arimo;&quot;&gt;&#xa;&lt;/span&gt;&lt;/span&gt;&lt;/div&gt;&lt;div style=&quot;display: flex; justify-content: center; text-align: center; align-items: baseline; font-size: 0; line-height: 1.25;margin-top: -2px;&quot;&gt;&lt;span&gt;&lt;span style=&quot;font-size:14.3px;color:#000000;font-family: Arimo;&quot;&gt;  &quot;data&quot;: {}&lt;/span&gt;&lt;span style=&quot;font-size:14.3px;color:#000000;font-family: Arimo;&quot;&gt;&#xa;&lt;/span&gt;&lt;/span&gt;&lt;/div&gt;&lt;div style=&quot;display: flex; justify-content: center; text-align: center; align-items: baseline; font-size: 0; line-height: 1.25;margin-top: -2px;&quot;&gt;&lt;span&gt;&lt;span style=&quot;font-size:14.3px;color:#000000;font-family: Arimo;&quot;&gt;}&lt;/span&gt;&lt;/span&gt;&lt;/div&gt;" style="strokeColor=none;fillColor=none;overflow=visible;whiteSpace=wrap;html=1;fontFamily=Arimo;align=left;spacing=0;strokeOpacity=100;fillOpacity=100;fontSize=13;" parent="FblqEJ61d_rF8akwRJso-253" vertex="1">
          <mxGeometry width="294" height="120" relative="1" as="geometry" />
        </mxCell>
        <mxCell id="FblqEJ61d_rF8akwRJso-257" value="" style="html=1;jettySize=18;whiteSpace=wrap;fontSize=13;strokeColor=#5E5E5E;strokeWidth=1.5;rounded=1;arcSize=12;edgeStyle=orthogonalEdgeStyle;startArrow=none;endArrow=block;endFill=1;exitX=0.5;exitY=0.991;exitPerimeter=0;entryX=0.408;entryY=-0.004;entryPerimeter=0;lucidId=iP6s7Ya86~TJ;" parent="1" source="FblqEJ61d_rF8akwRJso-252" target="FblqEJ61d_rF8akwRJso-253" edge="1">
          <mxGeometry width="100" height="100" relative="1" as="geometry">
            <Array as="points" />
          </mxGeometry>
        </mxCell>
        <mxCell id="FblqEJ61d_rF8akwRJso-258" value="Error" style="text;html=1;resizable=0;labelBackgroundColor=default;align=center;verticalAlign=middle;fontStyle=1;fontColor=#333333;fontSize=13.3;" parent="FblqEJ61d_rF8akwRJso-257" vertex="1">
          <mxGeometry x="-0.21700253841878336" relative="1" as="geometry" />
        </mxCell>
        <mxCell id="FblqEJ61d_rF8akwRJso-259" value="" style="html=1;jettySize=18;whiteSpace=wrap;fontSize=13;strokeColor=#5E5E5E;strokeWidth=1.5;rounded=1;arcSize=12;edgeStyle=orthogonalEdgeStyle;startArrow=none;endArrow=block;endFill=1;exitX=0.989;exitY=0.5;exitPerimeter=0;entryX=0.119;entryY=0.503;entryPerimeter=0;lucidId=zP6sM8-JJeMt;" parent="1" source="FblqEJ61d_rF8akwRJso-252" target="FblqEJ61d_rF8akwRJso-261" edge="1">
          <mxGeometry width="100" height="100" relative="1" as="geometry">
            <Array as="points" />
          </mxGeometry>
        </mxCell>
        <mxCell id="FblqEJ61d_rF8akwRJso-260" value="Exito" style="text;html=1;resizable=0;labelBackgroundColor=default;align=center;verticalAlign=middle;fontStyle=1;fontColor=#333333;fontSize=13.3;" parent="FblqEJ61d_rF8akwRJso-259" vertex="1">
          <mxGeometry x="-0.4155287460456798" relative="1" as="geometry" />
        </mxCell>
        <mxCell id="FblqEJ61d_rF8akwRJso-261" value="ObtenerCodigoInsunix" style="html=1;overflow=block;blockSpacing=1;whiteSpace=wrap;shape=component;align=left;spacingLeft=36;fontSize=16.7;spacing=0;rounded=1;absoluteArcSize=1;arcSize=9;strokeWidth=NaN;lucidId=fR6s~80chCw2;fillColor=#0050ef;fontColor=#ffffff;strokeColor=#001DBC;" parent="1" vertex="1">
          <mxGeometry x="-2640" y="802" width="195" height="90" as="geometry" />
        </mxCell>
        <mxCell id="FblqEJ61d_rF8akwRJso-262" value="Parametro&#xa;Solicitud.Cliente.IdCliente" style="html=1;overflow=block;blockSpacing=1;whiteSpace=wrap;fontSize=13;spacing=3.8;strokeColor=none;fillOpacity=0;rounded=1;absoluteArcSize=1;arcSize=9;fillColor=#ffffff;strokeWidth=0;lucidId=LU6saiCrNoGe;" parent="1" vertex="1">
          <mxGeometry x="-2623" y="720" width="161" height="56" as="geometry" />
        </mxCell>
        <mxCell id="FblqEJ61d_rF8akwRJso-263" value="" style="html=1;jettySize=18;whiteSpace=wrap;fontSize=13;strokeColor=#5E5E5E;strokeWidth=1.5;rounded=1;arcSize=12;edgeStyle=orthogonalEdgeStyle;startArrow=none;endArrow=block;endFill=1;exitX=0.5;exitY=-0.008;exitPerimeter=0;entryX=0.5;entryY=1;entryPerimeter=0;lucidId=~U6sZ1Hm9Yhk;" parent="1" source="FblqEJ61d_rF8akwRJso-261" target="FblqEJ61d_rF8akwRJso-262" edge="1">
          <mxGeometry width="100" height="100" relative="1" as="geometry">
            <Array as="points" />
          </mxGeometry>
        </mxCell>
        <mxCell id="FblqEJ61d_rF8akwRJso-265" value="INSUDB.findclient_inx" style="html=1;overflow=block;blockSpacing=1;whiteSpace=wrap;fontSize=16.7;align=center;spacing=0;rounded=1;absoluteArcSize=1;arcSize=9;strokeWidth=NaN;lucidId=Wd7sbwYJWoSk;" parent="1" vertex="1">
          <mxGeometry x="-2623" y="1005" width="180" height="45" as="geometry" />
        </mxCell>
        <mxCell id="FblqEJ61d_rF8akwRJso-266" value="&lt;div style=&quot;display: flex; justify-content: flex-start; text-align: left; align-items: baseline; font-size: 0; line-height: 1.25;margin-top: -2px;&quot;&gt;&lt;span&gt;&lt;span style=&quot;font-size:15px;color:#0e0e0e;font-weight: bold;&quot;&gt;Parámetros de entrada&lt;/span&gt;&lt;span style=&quot;font-size:16px;&quot;&gt; &#xa;&lt;/span&gt;&lt;span style=&quot;font-size:14px;color:#0e0e0e;&quot;&gt;&#xa;&lt;/span&gt;&lt;span style=&quot;font-size:16px;&quot;&gt; &#xa;&lt;/span&gt;&lt;span style=&quot;font-size:14px;color:#0e0e0e;&quot;&gt;&#x9;•&#x9;codigoVtime (string):&lt;/span&gt;&lt;span style=&quot;font-size:16px;&quot;&gt; &#xa;&lt;/span&gt;&lt;span style=&quot;font-size:14px;color:#0e0e0e;&quot;&gt;&#x9;•&#x9;Este es el único parámetro de entrada.&lt;/span&gt;&lt;span style=&quot;font-size:16px;&quot;&gt; &#xa;&lt;/span&gt;&lt;span style=&quot;font-size:14px;color:#0e0e0e;&quot;&gt;&#x9;•&#x9;Representa un código relacionado con el cliente en un sistema llamado VisualTime.&lt;/span&gt;&lt;span style=&quot;font-size:16px;&quot;&gt; &#xa;&lt;/span&gt;&lt;span style=&quot;font-size:14px;color:#0e0e0e;&quot;&gt;&#xa;&lt;/span&gt;&lt;span style=&quot;font-size:16px;&quot;&gt; &#xa;&lt;/span&gt;&lt;span style=&quot;font-size:15px;color:#0e0e0e;font-weight: bold;&quot;&gt;Parámetros de salida&lt;/span&gt;&lt;span style=&quot;font-size:16px;&quot;&gt; &#xa;&lt;/span&gt;&lt;span style=&quot;font-size:14px;color:#0e0e0e;&quot;&gt;&#xa;&lt;/span&gt;&lt;span style=&quot;font-size:16px;&quot;&gt; &#xa;&lt;/span&gt;&lt;span style=&quot;font-size:14px;color:#0e0e0e;&quot;&gt;&lt;span style=&quot;font-size:14px;color:#0e0e0e;&quot;&gt;&#x9;•&#x9;&lt;/span&gt;&lt;span style=&quot;font-size:14px;color:#0e0e0e;font-weight: bold;&quot;&gt;Retorna un &lt;/span&gt;&lt;span style=&quot;font-size:14px;color:#0e0e0e;&quot;&gt;string&lt;/span&gt;&lt;span style=&quot;font-size:14px;color:#0e0e0e;font-weight: bold;&quot;&gt;:&lt;/span&gt;&lt;span style=&quot;font-size:16px;&quot;&gt; &#xa;&lt;/span&gt;&lt;span style=&quot;font-size:14px;color:#0e0e0e;&quot;&gt;&#x9;•&#x9;Devuelve un valor (sCodigoInsunix) que parece ser el resultado de la ejecución del stored procedure (SP) llamado.&lt;/span&gt;&lt;span style=&quot;font-size:16px;&quot;&gt; &#xa;&lt;/span&gt;&lt;span style=&quot;font-size:14px;color:#0e0e0e;&quot;&gt;&#x9;•&#x9;Si ocurre un error específico (por ejemplo, el error 1403 de Oracle), devuelve una cadena vacía (string.Empty).&lt;/span&gt;&lt;span style=&quot;font-size:16px;&quot;&gt; &#xa;&lt;/span&gt;&lt;span style=&quot;font-size:14px;color:#0e0e0e;&quot;&gt;&#x9;•&#x9;Si el parámetro de retorno del SP es nulo, también retorna una cadena vacía.&lt;/span&gt;&lt;/span&gt;&lt;/span&gt;&lt;/div&gt;" style="html=1;overflow=block;blockSpacing=1;whiteSpace=wrap;fontSize=13;align=left;spacing=3.8;verticalAlign=top;strokeColor=none;fillOpacity=0;rounded=1;absoluteArcSize=1;arcSize=9;fillColor=#ffffff;strokeWidth=0;lucidId=Ie7sDi0ksqJB;" parent="1" vertex="1">
          <mxGeometry x="-2623" y="1050" width="358" height="405" as="geometry" />
        </mxCell>
        <mxCell id="FblqEJ61d_rF8akwRJso-267" value="" style="html=1;jettySize=18;whiteSpace=wrap;fontSize=13;strokeColor=#5E5E5E;strokeWidth=1.5;rounded=1;arcSize=12;edgeStyle=orthogonalEdgeStyle;startArrow=none;endArrow=block;endFill=1;exitX=1.004;exitY=0.5;exitPerimeter=0;entryX=0.119;entryY=0.5;entryPerimeter=0;lucidId=8f7sFJxu_Q.S;" parent="1" source="FblqEJ61d_rF8akwRJso-261" target="FblqEJ61d_rF8akwRJso-268" edge="1">
          <mxGeometry width="100" height="100" relative="1" as="geometry">
            <Array as="points" />
          </mxGeometry>
        </mxCell>
        <mxCell id="FblqEJ61d_rF8akwRJso-268" value="ObtenerIdClienteEqui" style="html=1;overflow=block;blockSpacing=1;whiteSpace=wrap;shape=component;align=left;spacingLeft=36;fontSize=16.7;spacing=0;strokeColor=#001DBC;strokeOpacity=100;fillOpacity=100;rounded=1;absoluteArcSize=1;arcSize=9;fillColor=#0050ef;strokeWidth=1.5;lucidId=-f7s-5v3RVYg;fontColor=#ffffff;" parent="1" vertex="1">
          <mxGeometry x="-2310" y="802" width="210" height="90" as="geometry" />
        </mxCell>
        <mxCell id="FblqEJ61d_rF8akwRJso-269" value="Parametro&#xa;sCodigoInsunix" style="html=1;overflow=block;blockSpacing=1;whiteSpace=wrap;fontSize=13;spacing=3.8;strokeColor=none;fillOpacity=0;rounded=1;absoluteArcSize=1;arcSize=9;fillColor=#ffffff;strokeWidth=0;lucidId=Qi7sj.Bten-I;" parent="1" vertex="1">
          <mxGeometry x="-2255" y="736" width="100" height="40" as="geometry" />
        </mxCell>
        <mxCell id="FblqEJ61d_rF8akwRJso-271" value="PKG_TRAMITE.REA_CLIENT" style="html=1;overflow=block;blockSpacing=1;whiteSpace=wrap;fontSize=14;fontColor=#0e0e0e;align=left;spacing=3.8;verticalAlign=top;strokeColor=none;fillOpacity=0;rounded=1;absoluteArcSize=1;arcSize=9;fillColor=#ffffff;strokeWidth=0;lucidId=jr7sHMeP.ZHh;" parent="1" vertex="1">
          <mxGeometry x="-2294" y="1016" width="196" height="24" as="geometry" />
        </mxCell>
        <mxCell id="FblqEJ61d_rF8akwRJso-272" value="&lt;div style=&quot;display: flex; justify-content: flex-start; text-align: left; align-items: baseline; font-size: 0; line-height: 1.25;margin-top: -2px;&quot;&gt;&lt;span&gt;&lt;span style=&quot;font-size:15px;color:#0e0e0e;font-weight: bold;&quot;&gt;Parámetros de entrada&lt;/span&gt;&lt;span style=&quot;font-size:16px;&quot;&gt; &#xa;&lt;/span&gt;&lt;span style=&quot;font-size:14px;color:#0e0e0e;&quot;&gt;&#xa;&lt;/span&gt;&lt;span style=&quot;font-size:16px;&quot;&gt; &#xa;&lt;/span&gt;&lt;span style=&quot;font-size:14px;color:#0e0e0e;&quot;&gt;&#x9;•&#x9;idClienteVT (string):&lt;/span&gt;&lt;span style=&quot;font-size:16px;&quot;&gt; &#xa;&lt;/span&gt;&lt;span style=&quot;font-size:14px;color:#0e0e0e;&quot;&gt;&#x9;•&#x9;Representa el código del cliente proveniente del sistema VisualTime.&lt;/span&gt;&lt;span style=&quot;font-size:16px;&quot;&gt; &#xa;&lt;/span&gt;&lt;span style=&quot;font-size:14px;color:#0e0e0e;&quot;&gt;&#x9;•&#x9;Se pasa como parámetro de entrada al stored procedure.&lt;/span&gt;&lt;/span&gt;&lt;/div&gt;" style="html=1;overflow=block;blockSpacing=1;whiteSpace=wrap;fontSize=13;align=left;spacing=3.8;verticalAlign=top;strokeColor=none;fillOpacity=0;rounded=1;absoluteArcSize=1;arcSize=9;fillColor=#ffffff;strokeWidth=0;lucidId=ur7s-PigaJAk;" parent="1" vertex="1">
          <mxGeometry x="-2280" y="1050" width="495" height="150" as="geometry" />
        </mxCell>
        <mxCell id="FblqEJ61d_rF8akwRJso-273" value="&lt;div style=&quot;display: flex; justify-content: flex-start; text-align: left; align-items: baseline; font-size: 0; line-height: 1.25;margin-top: -2px;&quot;&gt;&lt;span&gt;&lt;span style=&quot;font-size:15px;color:#0e0e0e;font-weight: bold;&quot;&gt;Parámetros de salida&lt;/span&gt;&lt;span style=&quot;font-size:16px;&quot;&gt; &#xa;&lt;/span&gt;&lt;span style=&quot;font-size:14px;color:#0e0e0e;&quot;&gt;&#xa;&lt;/span&gt;&lt;span style=&quot;font-size:16px;&quot;&gt; &#xa;&lt;/span&gt;&lt;span style=&quot;font-size:14px;color:#0e0e0e;&quot;&gt;&lt;span style=&quot;font-size:14px;color:#0e0e0e;&quot;&gt;&#x9;•&#x9;&lt;/span&gt;&lt;span style=&quot;font-size:14px;color:#0e0e0e;font-weight: bold;&quot;&gt;Retorna un &lt;/span&gt;&lt;span style=&quot;font-size:14px;color:#0e0e0e;&quot;&gt;string&lt;/span&gt;&lt;span style=&quot;font-size:14px;color:#0e0e0e;font-weight: bold;&quot;&gt;:&lt;/span&gt;&lt;span style=&quot;font-size:16px;&quot;&gt; &#xa;&lt;/span&gt;&lt;span style=&quot;font-size:14px;color:#0e0e0e;&quot;&gt;&#x9;•&#x9;Este valor corresponde al resultado del parámetro de salida CODREGCLIENTE del stored procedure.&lt;/span&gt;&lt;span style=&quot;font-size:16px;&quot;&gt; &#xa;&lt;/span&gt;&lt;span style=&quot;font-size:14px;color:#0e0e0e;&quot;&gt;&#x9;•&#x9;Si el valor de CODREGCLIENTE es &quot;0&quot;, la función devuelve una cadena vacía (string.Empty).&lt;/span&gt;&lt;span style=&quot;font-size:16px;&quot;&gt; &#xa;&lt;/span&gt;&lt;span style=&quot;font-size:14px;color:#0e0e0e;&quot;&gt;&#x9;•&#x9;De lo contrario, devuelve el valor de CODREGCLIENTE como cadena.&lt;/span&gt;&lt;/span&gt;&lt;/span&gt;&lt;/div&gt;" style="html=1;overflow=block;blockSpacing=1;whiteSpace=wrap;fontSize=13;align=left;spacing=3.8;verticalAlign=top;strokeColor=none;fillOpacity=0;rounded=1;absoluteArcSize=1;arcSize=9;fillColor=#ffffff;strokeWidth=0;lucidId=Pr7s4mCLgonz;" parent="1" vertex="1">
          <mxGeometry x="-2250" y="1200" width="705" height="210" as="geometry" />
        </mxCell>
        <mxCell id="FblqEJ61d_rF8akwRJso-274" value="Resultado" style="html=1;overflow=block;blockSpacing=1;whiteSpace=wrap;shape=rhombus;fontSize=16.7;align=center;spacing=3.8;rounded=1;absoluteArcSize=1;arcSize=9;strokeWidth=NaN;lucidId=1s7s0~puhB2u;fillColor=#008a00;fontColor=#ffffff;strokeColor=#005700;" parent="1" vertex="1">
          <mxGeometry x="-1950" y="795" width="120" height="105" as="geometry" />
        </mxCell>
        <mxCell id="FblqEJ61d_rF8akwRJso-275" value="" style="html=1;jettySize=18;whiteSpace=wrap;fontSize=13;strokeColor=#5E5E5E;strokeWidth=1.5;rounded=1;arcSize=12;edgeStyle=orthogonalEdgeStyle;startArrow=none;endArrow=block;endFill=1;exitX=1.004;exitY=0.5;exitPerimeter=0;entryX=0.011;entryY=0.5;entryPerimeter=0;lucidId=8s7s3d6ZCO8t;" parent="1" source="FblqEJ61d_rF8akwRJso-268" target="FblqEJ61d_rF8akwRJso-274" edge="1">
          <mxGeometry width="100" height="100" relative="1" as="geometry">
            <Array as="points" />
          </mxGeometry>
        </mxCell>
        <mxCell id="FblqEJ61d_rF8akwRJso-276" value="" style="html=1;jettySize=18;whiteSpace=wrap;fontSize=13;strokeColor=#5E5E5E;strokeWidth=1.5;rounded=1;arcSize=12;edgeStyle=orthogonalEdgeStyle;startArrow=none;endArrow=block;endFill=1;exitX=0.5;exitY=0.009;exitPerimeter=0;entryX=0.5;entryY=1.007;entryPerimeter=0;lucidId=_u7sx4cH6YHV;" parent="1" source="FblqEJ61d_rF8akwRJso-274" target="FblqEJ61d_rF8akwRJso-278" edge="1">
          <mxGeometry width="100" height="100" relative="1" as="geometry">
            <Array as="points" />
          </mxGeometry>
        </mxCell>
        <mxCell id="FblqEJ61d_rF8akwRJso-277" value="isEmpty" style="text;html=1;resizable=0;labelBackgroundColor=default;align=center;verticalAlign=middle;fontStyle=1;fontColor=#333333;fontSize=13.3;" parent="FblqEJ61d_rF8akwRJso-276" vertex="1">
          <mxGeometry x="-0.18383862113928084" relative="1" as="geometry" />
        </mxCell>
        <mxCell id="FblqEJ61d_rF8akwRJso-278" value="RegistrarClienteOV" style="html=1;overflow=block;blockSpacing=1;whiteSpace=wrap;shape=component;align=left;spacingLeft=36;fontSize=16.7;spacing=0;strokeColor=#001DBC;strokeOpacity=100;fillOpacity=100;rounded=1;absoluteArcSize=1;arcSize=9;fillColor=#0050ef;strokeWidth=1.5;lucidId=.u7s7yaCdBCG;fontColor=#ffffff;" parent="1" vertex="1">
          <mxGeometry x="-1995" y="495" width="210" height="105" as="geometry" />
        </mxCell>
        <mxCell id="FblqEJ61d_rF8akwRJso-279" value="&lt;div style=&quot;display: flex; justify-content: flex-start; text-align: left; align-items: baseline; font-size: 0; line-height: 1.25;margin-top: -2px;&quot;&gt;&lt;span&gt;&lt;span style=&quot;font-size:13px;color:#0e0e0e;font-weight: bold;&quot;&gt;Parámetros de entrada&lt;/span&gt;&lt;span style=&quot;font-size:16px;&quot;&gt; &#xa;&lt;/span&gt;&lt;span style=&quot;font-size:14px;color:#0e0e0e;&quot;&gt;&#xa;&lt;/span&gt;&lt;span style=&quot;font-size:16px;&quot;&gt; &#xa;&lt;/span&gt;&lt;span style=&quot;font-size:14px;color:#0e0e0e;&quot;&gt;La función recibe un único parámetro:&lt;/span&gt;&lt;span style=&quot;font-size:16px;&quot;&gt; &#xa;&lt;/span&gt;&lt;span style=&quot;font-size:14px;color:#0e0e0e;&quot;&gt;&#x9;•&#x9;clienteBE (ClienteBE):&lt;/span&gt;&lt;span style=&quot;font-size:16px;&quot;&gt; &#xa;&lt;/span&gt;&lt;span style=&quot;font-size:14px;color:#0e0e0e;&quot;&gt;Este es un objeto que contiene toda la información necesaria para registrar un cliente. Las propiedades del objeto ClienteBE se asignan a los parámetros del stored procedure.&lt;/span&gt;&lt;span style=&quot;font-size:16px;&quot;&gt; &#xa;&lt;/span&gt;&lt;span style=&quot;font-size:14px;color:#0e0e0e;&quot;&gt;&#xa;&lt;/span&gt;&lt;span style=&quot;font-size:16px;&quot;&gt; &#xa;&lt;/span&gt;&lt;span style=&quot;font-size:14px;color:#0e0e0e;&quot;&gt;A continuación, se destacan las propiedades utilizadas del objeto ClienteBE:&lt;/span&gt;&lt;span style=&quot;font-size:16px;&quot;&gt; &#xa;&lt;/span&gt;&lt;span style=&quot;font-size:14px;color:#0e0e0e;&quot;&gt;&#x9;•&#x9;NAMECOMPLETEPJ: Nombre completo para personas jurídicas.&lt;/span&gt;&lt;span style=&quot;font-size:16px;&quot;&gt; &#xa;&lt;/span&gt;&lt;span style=&quot;font-size:14px;color:#0e0e0e;&quot;&gt;&#x9;•&#x9;FIRSTNAME: Nombre para personas naturales.&lt;/span&gt;&lt;span style=&quot;font-size:16px;&quot;&gt; &#xa;&lt;/span&gt;&lt;span style=&quot;font-size:14px;color:#0e0e0e;&quot;&gt;&#x9;•&#x9;LASTNAME y LASTNAME2: Apellidos paterno y materno.&lt;/span&gt;&lt;span style=&quot;font-size:16px;&quot;&gt; &#xa;&lt;/span&gt;&lt;span style=&quot;font-size:14px;color:#0e0e0e;&quot;&gt;&#x9;•&#x9;NAMECOMPLETEPN: Nombre completo para personas naturales.&lt;/span&gt;&lt;span style=&quot;font-size:16px;&quot;&gt; &#xa;&lt;/span&gt;&lt;span style=&quot;font-size:14px;color:#0e0e0e;&quot;&gt;&#x9;•&#x9;BIRTHDAT: Fecha de nacimiento.&lt;/span&gt;&lt;span style=&quot;font-size:16px;&quot;&gt; &#xa;&lt;/span&gt;&lt;span style=&quot;font-size:14px;color:#0e0e0e;&quot;&gt;&#x9;•&#x9;DNI, RUC: Documentos de identidad y RUC.&lt;/span&gt;&lt;span style=&quot;font-size:16px;&quot;&gt; &#xa;&lt;/span&gt;&lt;span style=&quot;font-size:14px;color:#0e0e0e;&quot;&gt;&#x9;•&#x9;STREETCOB: Dirección.&lt;/span&gt;&lt;span style=&quot;font-size:16px;&quot;&gt; &#xa;&lt;/span&gt;&lt;span style=&quot;font-size:14px;color:#0e0e0e;&quot;&gt;&#x9;•&#x9;PHONES1: Número de teléfono.&lt;/span&gt;&lt;span style=&quot;font-size:16px;&quot;&gt; &#xa;&lt;/span&gt;&lt;span style=&quot;font-size:14px;color:#0e0e0e;&quot;&gt;&#x9;•&#x9;CLIENT_INX: Código del cliente.&lt;/span&gt;&lt;span style=&quot;font-size:16px;&quot;&gt; &#xa;&lt;/span&gt;&lt;span style=&quot;font-size:14px;color:#0e0e0e;&quot;&gt;&#x9;•&#x9;ZIPCODECOB: Código postal.&lt;/span&gt;&lt;span style=&quot;font-size:16px;&quot;&gt; &#xa;&lt;/span&gt;&lt;span style=&quot;font-size:14px;color:#0e0e0e;&quot;&gt;&#x9;•&#x9;PERTITLE: Título personal.&lt;/span&gt;&lt;span style=&quot;font-size:16px;&quot;&gt; &#xa;&lt;/span&gt;&lt;span style=&quot;font-size:14px;color:#0e0e0e;&quot;&gt;&#x9;•&#x9;PERSON_TYP: Tipo de persona.&lt;/span&gt;&lt;span style=&quot;font-size:16px;&quot;&gt; &#xa;&lt;/span&gt;&lt;span style=&quot;font-size:14px;color:#0e0e0e;&quot;&gt;&#x9;•&#x9;SEXCLIEN: Sexo del cliente.&lt;/span&gt;&lt;span style=&quot;font-size:16px;&quot;&gt; &#xa;&lt;/span&gt;&lt;span style=&quot;font-size:14px;color:#0e0e0e;&quot;&gt;&#x9;•&#x9;TYPECOMPANY: Tipo de empresa.&lt;/span&gt;&lt;span style=&quot;font-size:16px;&quot;&gt; &#xa;&lt;/span&gt;&lt;span style=&quot;font-size:14px;color:#0e0e0e;&quot;&gt;&#x9;•&#x9;CARNETEXT: Información del carnet.&lt;/span&gt;&lt;span style=&quot;font-size:16px;&quot;&gt; &#xa;&lt;/span&gt;&lt;span style=&quot;font-size:14px;color:#0e0e0e;&quot;&gt;&#x9;•&#x9;EMAIL: Correo electrónico.&lt;/span&gt;&lt;span style=&quot;font-size:16px;&quot;&gt; &#xa;&lt;/span&gt;&lt;span style=&quot;font-size:14px;color:#0e0e0e;&quot;&gt;&lt;span style=&quot;font-size:14px;color:#0e0e0e;&quot;&gt;&#x9;•&#x9;TIPOVIA&lt;/span&gt;&lt;span style=&quot;font-size:14px;color:#0e0e0e;font-weight: bold;&quot;&gt;, &lt;/span&gt;&lt;span style=&quot;font-size:14px;color:#0e0e0e;&quot;&gt;NRO&lt;/span&gt;&lt;span style=&quot;font-size:14px;color:#0e0e0e;font-weight: bold;&quot;&gt;, &lt;/span&gt;&lt;span style=&quot;font-size:14px;color:#0e0e0e;&quot;&gt;KM&lt;/span&gt;&lt;span style=&quot;font-size:14px;color:#0e0e0e;font-weight: bold;&quot;&gt;, &lt;/span&gt;&lt;span style=&quot;font-size:14px;color:#0e0e0e;&quot;&gt;MZ&lt;/span&gt;&lt;span style=&quot;font-size:14px;color:#0e0e0e;font-weight: bold;&quot;&gt;, &lt;/span&gt;&lt;span style=&quot;font-size:14px;color:#0e0e0e;&quot;&gt;DPTO&lt;/span&gt;&lt;span style=&quot;font-size:14px;color:#0e0e0e;font-weight: bold;&quot;&gt;, &lt;/span&gt;&lt;span style=&quot;font-size:14px;color:#0e0e0e;&quot;&gt;PISO&lt;/span&gt;&lt;span style=&quot;font-size:14px;color:#0e0e0e;font-weight: bold;&quot;&gt;, &lt;/span&gt;&lt;span style=&quot;font-size:14px;color:#0e0e0e;&quot;&gt;INTER&lt;/span&gt;&lt;span style=&quot;font-size:14px;color:#0e0e0e;font-weight: bold;&quot;&gt;, &lt;/span&gt;&lt;span style=&quot;font-size:14px;color:#0e0e0e;&quot;&gt;LOTE&lt;/span&gt;&lt;span style=&quot;font-size:14px;color:#0e0e0e;font-weight: bold;&quot;&gt;, &lt;/span&gt;&lt;span style=&quot;font-size:14px;color:#0e0e0e;&quot;&gt;URB&lt;/span&gt;&lt;span style=&quot;font-size:14px;color:#0e0e0e;font-weight: bold;&quot;&gt;, &lt;/span&gt;REFERENC: Información adicional sobre dirección.&lt;/span&gt;&lt;/span&gt;&lt;/div&gt;" style="html=1;overflow=block;blockSpacing=1;whiteSpace=wrap;fontSize=13;align=left;spacing=3.8;verticalAlign=top;strokeColor=none;fillOpacity=0;rounded=1;absoluteArcSize=1;arcSize=9;fillColor=#ffffff;strokeWidth=0;lucidId=Ow7skPyHbtD8;" parent="1" vertex="1">
          <mxGeometry x="-1785" y="-45" width="883" height="516" as="geometry" />
        </mxCell>
        <mxCell id="FblqEJ61d_rF8akwRJso-280" value="PKG_OVSP.SP_CLIENTE_INS" style="html=1;overflow=block;blockSpacing=1;whiteSpace=wrap;fontSize=14;fontColor=#0e0e0e;align=left;spacing=3.8;verticalAlign=top;strokeColor=none;fillOpacity=0;rounded=1;absoluteArcSize=1;arcSize=9;fillColor=#ffffff;strokeWidth=0;lucidId=6w7s0s7U5KSW;" parent="1" vertex="1">
          <mxGeometry x="-2175" y="600" width="202" height="24" as="geometry" />
        </mxCell>
        <mxCell id="FblqEJ61d_rF8akwRJso-282" value="&lt;span data-lucid-type=&quot;application/vnd.lucid.text&quot; data-lucid-content=&quot;{&amp;quot;t&amp;quot;:&amp;quot;{\n NAMECOMPLETEPJ = \&amp;quot;Empresa Ejemplo S.A.\&amp;quot;,\n FIRSTNAME = \&amp;quot;Juan\&amp;quot;,\n LASTNAME = \&amp;quot;Pérez\&amp;quot;,\n LASTNAME2 = \&amp;quot;López\&amp;quot;,\n NAMECOMPLETEPN = \&amp;quot;Juan Pérez López\&amp;quot;,\n BIRTHDAT = \&amp;quot;1985-05-15\&amp;quot;,\n DNI = \&amp;quot;12345678\&amp;quot;,\n RUC = \&amp;quot;20123456789\&amp;quot;,\n STREETCOB = \&amp;quot;Calle Falsa 123\&amp;quot;,\n PHONES1 = \&amp;quot;987654321\&amp;quot;,\n CLIENT_INX = \&amp;quot;CL12345\&amp;quot;,\n ZIPCODECOB = \&amp;quot;LIM01\&amp;quot;,\n PERTITLE = 1, // Título personal (e.g., 1 para \&amp;quot;Sr.\&amp;quot;, 2 para \&amp;quot;Sra.\&amp;quot;)\n PERSON_TYP = 1, // 1: Persona Natural, 2: Persona Jurídica\n SEXCLIEN = 1, // 1: Masculino, 2: Femenino\n TYPECOMPANY = 2, // Tipo de empresa\n CARNETEXT = \&amp;quot;1234567890\&amp;quot;,\n EMAIL = \&amp;quot;juan.perez@example.com\&amp;quot;,\n TIPOVIA = 1, // Tipo de vía (e.g., Avenida, Calle)\n NRO = \&amp;quot;123\&amp;quot;,\n KM = null, // Kilómetro (nulo si no aplica)\n MZ = \&amp;quot;A\&amp;quot;,\n DPTO = \&amp;quot;101\&amp;quot;,\n PISO = \&amp;quot;1\&amp;quot;,\n INTER = \&amp;quot;B\&amp;quot;,\n LOTE = \&amp;quot;12\&amp;quot;,\n URB = \&amp;quot;Residencial Ejemplo\&amp;quot;,\n REFERENC = \&amp;quot;Frente al parque\&amp;quot;\n};&amp;quot;,&amp;quot;m&amp;quot;:[{&amp;quot;s&amp;quot;:0,&amp;quot;n&amp;quot;:&amp;quot;a&amp;quot;,&amp;quot;v&amp;quot;:&amp;quot;left&amp;quot;},{&amp;quot;s&amp;quot;:2,&amp;quot;n&amp;quot;:&amp;quot;a&amp;quot;,&amp;quot;v&amp;quot;:&amp;quot;left&amp;quot;},{&amp;quot;s&amp;quot;:44,&amp;quot;n&amp;quot;:&amp;quot;a&amp;quot;,&amp;quot;v&amp;quot;:&amp;quot;left&amp;quot;},{&amp;quot;s&amp;quot;:65,&amp;quot;n&amp;quot;:&amp;quot;a&amp;quot;,&amp;quot;v&amp;quot;:&amp;quot;left&amp;quot;},{&amp;quot;s&amp;quot;:86,&amp;quot;n&amp;quot;:&amp;quot;a&amp;quot;,&amp;quot;v&amp;quot;:&amp;quot;left&amp;quot;},{&amp;quot;s&amp;quot;:108,&amp;quot;n&amp;quot;:&amp;quot;a&amp;quot;,&amp;quot;v&amp;quot;:&amp;quot;left&amp;quot;},{&amp;quot;s&amp;quot;:146,&amp;quot;n&amp;quot;:&amp;quot;a&amp;quot;,&amp;quot;v&amp;quot;:&amp;quot;left&amp;quot;},{&amp;quot;s&amp;quot;:172,&amp;quot;n&amp;quot;:&amp;quot;a&amp;quot;,&amp;quot;v&amp;quot;:&amp;quot;left&amp;quot;},{&amp;quot;s&amp;quot;:191,&amp;quot;n&amp;quot;:&amp;quot;a&amp;quot;,&amp;quot;v&amp;quot;:&amp;quot;left&amp;quot;},{&amp;quot;s&amp;quot;:213,&amp;quot;n&amp;quot;:&amp;quot;a&amp;quot;,&amp;quot;v&amp;quot;:&amp;quot;left&amp;quot;},{&amp;quot;s&amp;quot;:245,&amp;quot;n&amp;quot;:&amp;quot;a&amp;quot;,&amp;quot;v&amp;quot;:&amp;quot;left&amp;quot;},{&amp;quot;s&amp;quot;:269,&amp;quot;n&amp;quot;:&amp;quot;a&amp;quot;,&amp;quot;v&amp;quot;:&amp;quot;left&amp;quot;},{&amp;quot;s&amp;quot;:294,&amp;quot;n&amp;quot;:&amp;quot;a&amp;quot;,&amp;quot;v&amp;quot;:&amp;quot;left&amp;quot;},{&amp;quot;s&amp;quot;:317,&amp;quot;n&amp;quot;:&amp;quot;a&amp;quot;,&amp;quot;v&amp;quot;:&amp;quot;left&amp;quot;},{&amp;quot;s&amp;quot;:387,&amp;quot;n&amp;quot;:&amp;quot;a&amp;quot;,&amp;quot;v&amp;quot;:&amp;quot;left&amp;quot;},{&amp;quot;s&amp;quot;:447,&amp;quot;n&amp;quot;:&amp;quot;a&amp;quot;,&amp;quot;v&amp;quot;:&amp;quot;left&amp;quot;},{&amp;quot;s&amp;quot;:491,&amp;quot;n&amp;quot;:&amp;quot;a&amp;quot;,&amp;quot;v&amp;quot;:&amp;quot;left&amp;quot;},{&amp;quot;s&amp;quot;:528,&amp;quot;n&amp;quot;:&amp;quot;a&amp;quot;,&amp;quot;v&amp;quot;:&amp;quot;left&amp;quot;},{&amp;quot;s&amp;quot;:555,&amp;quot;n&amp;quot;:&amp;quot;a&amp;quot;,&amp;quot;v&amp;quot;:&amp;quot;left&amp;quot;},{&amp;quot;s&amp;quot;:590,&amp;quot;n&amp;quot;:&amp;quot;a&amp;quot;,&amp;quot;v&amp;quot;:&amp;quot;left&amp;quot;},{&amp;quot;s&amp;quot;:642,&amp;quot;n&amp;quot;:&amp;quot;a&amp;quot;,&amp;quot;v&amp;quot;:&amp;quot;left&amp;quot;},{&amp;quot;s&amp;quot;:656,&amp;quot;n&amp;quot;:&amp;quot;a&amp;quot;,&amp;quot;v&amp;quot;:&amp;quot;left&amp;quot;},{&amp;quot;s&amp;quot;:701,&amp;quot;n&amp;quot;:&amp;quot;a&amp;quot;,&amp;quot;v&amp;quot;:&amp;quot;left&amp;quot;},{&amp;quot;s&amp;quot;:712,&amp;quot;n&amp;quot;:&amp;quot;a&amp;quot;,&amp;quot;v&amp;quot;:&amp;quot;left&amp;quot;},{&amp;quot;s&amp;quot;:727,&amp;quot;n&amp;quot;:&amp;quot;a&amp;quot;,&amp;quot;v&amp;quot;:&amp;quot;left&amp;quot;},{&amp;quot;s&amp;quot;:740,&amp;quot;n&amp;quot;:&amp;quot;a&amp;quot;,&amp;quot;v&amp;quot;:&amp;quot;left&amp;quot;},{&amp;quot;s&amp;quot;:754,&amp;quot;n&amp;quot;:&amp;quot;a&amp;quot;,&amp;quot;v&amp;quot;:&amp;quot;left&amp;quot;},{&amp;quot;s&amp;quot;:768,&amp;quot;n&amp;quot;:&amp;quot;a&amp;quot;,&amp;quot;v&amp;quot;:&amp;quot;left&amp;quot;},{&amp;quot;s&amp;quot;:798,&amp;quot;n&amp;quot;:&amp;quot;a&amp;quot;,&amp;quot;v&amp;quot;:&amp;quot;left&amp;quot;},{&amp;quot;s&amp;quot;:829,&amp;quot;n&amp;quot;:&amp;quot;a&amp;quot;,&amp;quot;v&amp;quot;:&amp;quot;left&amp;quot;}]}&quot;&gt;{&lt;br&gt; NAMECOMPLETEPJ = &quot;Empresa Ejemplo S.A.&quot;,&lt;br&gt; FIRSTNAME = &quot;Juan&quot;,&lt;br&gt; LASTNAME = &quot;Pérez&quot;,&lt;br&gt; LASTNAME2 = &quot;López&quot;,&lt;br&gt; NAMECOMPLETEPN = &quot;Juan Pérez López&quot;,&lt;br&gt; BIRTHDAT = &quot;1985-05-15&quot;,&lt;br&gt; DNI = &quot;12345678&quot;,&lt;br&gt; RUC = &quot;20123456789&quot;,&lt;br&gt; STREETCOB = &quot;Calle Falsa 123&quot;,&lt;br&gt; PHONES1 = &quot;987654321&quot;,&lt;br&gt; CLIENT_INX = &quot;CL12345&quot;,&lt;br&gt; ZIPCODECOB = &quot;LIM01&quot;,&lt;br&gt; PERTITLE = 1, // Título personal (e.g., 1 para &quot;Sr.&quot;, 2 para &quot;Sra.&quot;)&lt;br&gt; PERSON_TYP = 1, // 1: Persona Natural, 2: Persona Jurídica&lt;br&gt; SEXCLIEN = 1, // 1: Masculino, 2: Femenino&lt;br&gt; TYPECOMPANY = 2, // Tipo de empresa&lt;br&gt; CARNETEXT = &quot;1234567890&quot;,&lt;br&gt; EMAIL = &quot;juan.perez@example.com&quot;,&lt;br&gt; TIPOVIA = 1, // Tipo de vía (e.g., Avenida, Calle)&lt;br&gt; NRO = &quot;123&quot;,&lt;br&gt; KM = null, // Kilómetro (nulo si no aplica)&lt;br&gt; MZ = &quot;A&quot;,&lt;br&gt; DPTO = &quot;101&quot;,&lt;br&gt; PISO = &quot;1&quot;,&lt;br&gt; INTER = &quot;B&quot;,&lt;br&gt; LOTE = &quot;12&quot;,&lt;br&gt; URB = &quot;Residencial Ejemplo&quot;,&lt;br&gt; REFERENC = &quot;Frente al parque&quot;&lt;br&gt;&lt;div style=&quot;&quot;&gt;&lt;span style=&quot;background-color: initial;&quot;&gt;};&lt;/span&gt;&lt;/div&gt;&lt;/span&gt;" style="html=1;overflow=block;blockSpacing=1;whiteSpace=wrap;fontSize=13;spacing=3.8;strokeColor=none;fillOpacity=0;rounded=1;absoluteArcSize=1;arcSize=9;fillColor=#ffffff;strokeWidth=0;lucidId=xx7scQnRGeiK;fontColor=default;align=left;" parent="1" vertex="1">
          <mxGeometry x="-2230" y="-34" width="400" height="494" as="geometry" />
        </mxCell>
        <mxCell id="FblqEJ61d_rF8akwRJso-283" value="Parametro" style="html=1;overflow=block;blockSpacing=1;whiteSpace=wrap;fontSize=16.7;align=center;spacing=0;rounded=1;absoluteArcSize=1;arcSize=9;strokeWidth=NaN;lucidId=Hx7sX5qMUZam;" parent="1" vertex="1">
          <mxGeometry x="-2235" y="-75" width="180" height="41" as="geometry" />
        </mxCell>
        <mxCell id="FblqEJ61d_rF8akwRJso-284" value="" style="html=1;jettySize=18;whiteSpace=wrap;fontSize=13;strokeColor=#5E5E5E;strokeWidth=1.5;rounded=1;arcSize=12;edgeStyle=orthogonalEdgeStyle;startArrow=none;endArrow=block;endFill=1;exitX=0.989;exitY=0.5;exitPerimeter=0;entryX=0.068;entryY=0.571;entryPerimeter=0;lucidId=RO8s2SWCCIYl;" parent="1" source="FblqEJ61d_rF8akwRJso-274" target="FblqEJ61d_rF8akwRJso-285" edge="1">
          <mxGeometry width="100" height="100" relative="1" as="geometry">
            <Array as="points" />
          </mxGeometry>
        </mxCell>
        <mxCell id="FblqEJ61d_rF8akwRJso-285" value="Registrar" style="html=1;overflow=block;blockSpacing=1;whiteSpace=wrap;shape=component;align=left;spacingLeft=36;fontSize=16.7;spacing=0;strokeColor=#BD7000;strokeOpacity=100;fillOpacity=100;rounded=1;absoluteArcSize=1;arcSize=9;fillColor=#f0a30a;strokeWidth=1.5;lucidId=1O8sqGvaKsRT;fontColor=#000000;" parent="1" vertex="1">
          <mxGeometry x="-1485" y="787" width="210" height="105" as="geometry" />
        </mxCell>
        <mxCell id="FblqEJ61d_rF8akwRJso-286" value="&lt;span data-lucid-type=&quot;application/vnd.lucid.text&quot; data-lucid-content=&quot;{&amp;quot;t&amp;quot;:&amp;quot;{\n TipoSolicitud = 1, // Tipo de solicitud (por ejemplo: 1 = Emisión)\n IdCliente = \&amp;quot;CL12345\&amp;quot;, // Identificador del cliente\n IdRamo = 5, // Identificador del ramo\n IdOficina = 10, // Identificador de la oficina\n IdBroker = 3, // Identificador del intermediario (broker)\n TransaccionBE = new TransaccionBE\n {\n IdTransaccionOrigen = \&amp;quot;TX98765\&amp;quot;, // Identificador de la transacción de origen\n IdAplicacionOrigen = 4 // Identificador de la aplicación de origen\n },\n Observacion = \&amp;quot;Solicitud de prueba para registrar un trámite\&amp;quot;, // Observación o comentario sobre la solicitud\n IdPoliza = 123456, // Identificador de la póliza (si aplica)\n IndicadorPolizaElectronica = 1, // Indicador de póliza electrónica (1 = Sí, 0 = No)\n IdOficinaVT = 10, // Identificador de la oficina en VisualTime\n PagoBE = new PagoBE\n {\n CuotaInicial = 20.5m, // Porcentaje del primer pago\n NumeroLetras = 12, // Número de cuotas\n CodTipoPago = \&amp;quot;001\&amp;quot;, // Código del tipo de pago\n IdCliente = 0, // Puede ser 0 si no aplica\n FechaInicioVigencia = \&amp;quot;2024-01-01\&amp;quot; // Fecha de inicio de vigencia del pago\n }\n};&amp;quot;,&amp;quot;m&amp;quot;:[{&amp;quot;s&amp;quot;:0,&amp;quot;n&amp;quot;:&amp;quot;a&amp;quot;,&amp;quot;v&amp;quot;:&amp;quot;left&amp;quot;},{&amp;quot;s&amp;quot;:2,&amp;quot;n&amp;quot;:&amp;quot;a&amp;quot;,&amp;quot;v&amp;quot;:&amp;quot;left&amp;quot;},{&amp;quot;s&amp;quot;:70,&amp;quot;n&amp;quot;:&amp;quot;a&amp;quot;,&amp;quot;v&amp;quot;:&amp;quot;left&amp;quot;},{&amp;quot;s&amp;quot;:123,&amp;quot;n&amp;quot;:&amp;quot;a&amp;quot;,&amp;quot;v&amp;quot;:&amp;quot;left&amp;quot;},{&amp;quot;s&amp;quot;:162,&amp;quot;n&amp;quot;:&amp;quot;a&amp;quot;,&amp;quot;v&amp;quot;:&amp;quot;left&amp;quot;},{&amp;quot;s&amp;quot;:210,&amp;quot;n&amp;quot;:&amp;quot;a&amp;quot;,&amp;quot;v&amp;quot;:&amp;quot;left&amp;quot;},{&amp;quot;s&amp;quot;:269,&amp;quot;n&amp;quot;:&amp;quot;a&amp;quot;,&amp;quot;v&amp;quot;:&amp;quot;left&amp;quot;},{&amp;quot;s&amp;quot;:304,&amp;quot;n&amp;quot;:&amp;quot;a&amp;quot;,&amp;quot;v&amp;quot;:&amp;quot;left&amp;quot;},{&amp;quot;s&amp;quot;:307,&amp;quot;n&amp;quot;:&amp;quot;a&amp;quot;,&amp;quot;v&amp;quot;:&amp;quot;left&amp;quot;},{&amp;quot;s&amp;quot;:386,&amp;quot;n&amp;quot;:&amp;quot;a&amp;quot;,&amp;quot;v&amp;quot;:&amp;quot;left&amp;quot;},{&amp;quot;s&amp;quot;:454,&amp;quot;n&amp;quot;:&amp;quot;a&amp;quot;,&amp;quot;v&amp;quot;:&amp;quot;left&amp;quot;},{&amp;quot;s&amp;quot;:458,&amp;quot;n&amp;quot;:&amp;quot;a&amp;quot;,&amp;quot;v&amp;quot;:&amp;quot;left&amp;quot;},{&amp;quot;s&amp;quot;:569,&amp;quot;n&amp;quot;:&amp;quot;a&amp;quot;,&amp;quot;v&amp;quot;:&amp;quot;left&amp;quot;},{&amp;quot;s&amp;quot;:631,&amp;quot;n&amp;quot;:&amp;quot;a&amp;quot;,&amp;quot;v&amp;quot;:&amp;quot;left&amp;quot;},{&amp;quot;s&amp;quot;:716,&amp;quot;n&amp;quot;:&amp;quot;a&amp;quot;,&amp;quot;v&amp;quot;:&amp;quot;left&amp;quot;},{&amp;quot;s&amp;quot;:780,&amp;quot;n&amp;quot;:&amp;quot;a&amp;quot;,&amp;quot;v&amp;quot;:&amp;quot;left&amp;quot;},{&amp;quot;s&amp;quot;:801,&amp;quot;n&amp;quot;:&amp;quot;a&amp;quot;,&amp;quot;v&amp;quot;:&amp;quot;left&amp;quot;},{&amp;quot;s&amp;quot;:804,&amp;quot;n&amp;quot;:&amp;quot;a&amp;quot;,&amp;quot;v&amp;quot;:&amp;quot;left&amp;quot;},{&amp;quot;s&amp;quot;:857,&amp;quot;n&amp;quot;:&amp;quot;a&amp;quot;,&amp;quot;v&amp;quot;:&amp;quot;left&amp;quot;},{&amp;quot;s&amp;quot;:897,&amp;quot;n&amp;quot;:&amp;quot;a&amp;quot;,&amp;quot;v&amp;quot;:&amp;quot;left&amp;quot;},{&amp;quot;s&amp;quot;:946,&amp;quot;n&amp;quot;:&amp;quot;a&amp;quot;,&amp;quot;v&amp;quot;:&amp;quot;left&amp;quot;},{&amp;quot;s&amp;quot;:990,&amp;quot;n&amp;quot;:&amp;quot;a&amp;quot;,&amp;quot;v&amp;quot;:&amp;quot;left&amp;quot;},{&amp;quot;s&amp;quot;:1066,&amp;quot;n&amp;quot;:&amp;quot;a&amp;quot;,&amp;quot;v&amp;quot;:&amp;quot;left&amp;quot;},{&amp;quot;s&amp;quot;:1069,&amp;quot;n&amp;quot;:&amp;quot;a&amp;quot;,&amp;quot;v&amp;quot;:&amp;quot;left&amp;quot;}]}&quot;&gt;{&lt;br&gt; TipoSolicitud = 1, // Tipo de solicitud (por ejemplo: 1 = Emisión)&lt;br&gt; IdCliente = &quot;CL12345&quot;, // Identificador del cliente&lt;br&gt; IdRamo = 5, // Identificador del ramo&lt;br&gt; IdOficina = 10, // Identificador de la oficina&lt;br&gt; IdBroker = 3, // Identificador del intermediario (broker)&lt;br&gt; TransaccionBE = new TransaccionBE&lt;br&gt; {&lt;br&gt; IdTransaccionOrigen = &quot;TX98765&quot;, // Identificador de la transacción de origen&lt;br&gt; IdAplicacionOrigen = 4 // Identificador de la aplicación de origen&lt;br&gt; },&lt;br&gt; Observacion = &quot;Solicitud de prueba para registrar un trámite&quot;, // Observación o comentario sobre la solicitud&lt;br&gt; IdPoliza = 123456, // Identificador de la póliza (si aplica)&lt;br&gt; IndicadorPolizaElectronica = 1, // Indicador de póliza electrónica (1 = Sí, 0 = No)&lt;br&gt; IdOficinaVT = 10, // Identificador de la oficina en VisualTime&lt;br&gt; PagoBE = new PagoBE&lt;br&gt; {&lt;br&gt; CuotaInicial = 20.5m, // Porcentaje del primer pago&lt;br&gt; NumeroLetras = 12, // Número de cuotas&lt;br&gt; CodTipoPago = &quot;001&quot;, // Código del tipo de pago&lt;br&gt; IdCliente = 0, // Puede ser 0 si no aplica&lt;br&gt; FechaInicioVigencia = &quot;2024-01-01&quot; // Fecha de inicio de vigencia del pago&lt;br&gt; }&lt;br&gt;};&lt;/span&gt;" style="html=1;overflow=block;blockSpacing=1;whiteSpace=wrap;fontSize=13;spacing=3.8;strokeColor=none;fillOpacity=0;rounded=1;absoluteArcSize=1;arcSize=9;fillColor=#ffffff;strokeWidth=0;lucidId=ES8sbeWN750U;align=left;" parent="1" vertex="1">
          <mxGeometry x="-1530" y="945" width="660" height="435" as="geometry" />
        </mxCell>
        <mxCell id="FblqEJ61d_rF8akwRJso-287" value="Parametro" style="html=1;overflow=block;blockSpacing=1;whiteSpace=wrap;fontSize=16.7;align=center;spacing=0;rounded=1;absoluteArcSize=1;arcSize=9;strokeWidth=NaN;lucidId=-S8sEBYhEFyU;" parent="1" vertex="1">
          <mxGeometry x="-1440" y="915" width="180" height="45" as="geometry" />
        </mxCell>
        <mxCell id="FblqEJ61d_rF8akwRJso-288" value="&lt;div style=&quot;display: flex; justify-content: flex-start; text-align: left; align-items: baseline; font-size: 0; line-height: 1.25;margin-top: -2px;&quot;&gt;&lt;span&gt;&lt;span style=&quot;font-size:14px;color:#0e0e0e;&quot;&gt;&lt;span style=&quot;font-size:14px;color:#0e0e0e;&quot;&gt;1.&#x9;&lt;/span&gt;&lt;span style=&quot;font-size:14px;color:#0e0e0e;font-weight: bold;&quot;&gt;Propiedades principales:&lt;/span&gt;&lt;span style=&quot;font-size:16px;&quot;&gt; &#xa;&lt;/span&gt;&lt;span style=&quot;font-size:14px;color:#0e0e0e;&quot;&gt;&#x9;•&#x9;TipoSolicitud: Tipo de solicitud, relacionado con el proceso a realizar (ej. emisión, inspección, etc.).&lt;/span&gt;&lt;span style=&quot;font-size:16px;&quot;&gt; &#xa;&lt;/span&gt;&lt;span style=&quot;font-size:14px;color:#0e0e0e;&quot;&gt;&#x9;•&#x9;IdCliente: Identificador único del cliente.&lt;/span&gt;&lt;span style=&quot;font-size:16px;&quot;&gt; &#xa;&lt;/span&gt;&lt;span style=&quot;font-size:14px;color:#0e0e0e;&quot;&gt;&#x9;•&#x9;IdRamo: Identificador del ramo asociado a la solicitud.&lt;/span&gt;&lt;span style=&quot;font-size:16px;&quot;&gt; &#xa;&lt;/span&gt;&lt;span style=&quot;font-size:14px;color:#0e0e0e;&quot;&gt;&#x9;•&#x9;IdOficina: Identificador de la oficina en la que se realiza la solicitud.&lt;/span&gt;&lt;span style=&quot;font-size:16px;&quot;&gt; &#xa;&lt;/span&gt;&lt;span style=&quot;font-size:14px;color:#0e0e0e;&quot;&gt;&#x9;•&#x9;IdBroker: Identificador del intermediario o corredor.&lt;/span&gt;&lt;span style=&quot;font-size:16px;&quot;&gt; &#xa;&lt;/span&gt;&lt;span style=&quot;font-size:14px;color:#0e0e0e;&quot;&gt;&lt;span style=&quot;font-size:14px;color:#0e0e0e;&quot;&gt;2.&#x9;&lt;/span&gt;&lt;span style=&quot;font-size:14px;color:#0e0e0e;font-weight: bold;&quot;&gt;Transacción:&lt;/span&gt;&lt;span style=&quot;font-size:16px;&quot;&gt; &#xa;&lt;/span&gt;&lt;span style=&quot;font-size:14px;color:#0e0e0e;&quot;&gt;&#x9;•&#x9;TransaccionBE: Detalles de la transacción relacionada con la solicitud.&lt;/span&gt;&lt;span style=&quot;font-size:16px;&quot;&gt; &#xa;&lt;/span&gt;&lt;span style=&quot;font-size:14px;color:#0e0e0e;&quot;&gt;&#x9;•&#x9;IdTransaccionOrigen: Código que identifica la transacción en el sistema origen.&lt;/span&gt;&lt;span style=&quot;font-size:16px;&quot;&gt; &#xa;&lt;/span&gt;&lt;span style=&quot;font-size:14px;color:#0e0e0e;&quot;&gt;&#x9;•&#x9;IdAplicacionOrigen: Código que identifica la aplicación de origen.&lt;/span&gt;&lt;span style=&quot;font-size:16px;&quot;&gt; &#xa;&lt;/span&gt;&lt;span style=&quot;font-size:14px;color:#0e0e0e;&quot;&gt;&lt;span style=&quot;font-size:14px;color:#0e0e0e;&quot;&gt;3.&#x9;&lt;/span&gt;&lt;span style=&quot;font-size:14px;color:#0e0e0e;font-weight: bold;&quot;&gt;Observaciones y datos opcionales:&lt;/span&gt;&lt;span style=&quot;font-size:16px;&quot;&gt; &#xa;&lt;/span&gt;&lt;span style=&quot;font-size:14px;color:#0e0e0e;&quot;&gt;&#x9;•&#x9;Observacion: Detalles adicionales sobre la solicitud.&lt;/span&gt;&lt;span style=&quot;font-size:16px;&quot;&gt; &#xa;&lt;/span&gt;&lt;span style=&quot;font-size:14px;color:#0e0e0e;&quot;&gt;&#x9;•&#x9;IdPoliza: Puede estar presente si la solicitud está relacionada con una póliza &#x9;&#x9;&#x9;específica.&lt;/span&gt;&lt;span style=&quot;font-size:16px;&quot;&gt; &#xa;&lt;/span&gt;&lt;span style=&quot;font-size:14px;color:#0e0e0e;&quot;&gt;&#x9;•&#x9;IndicadorPolizaElectronica: Especifica si la solicitud incluye una póliza &#x9;&#x9;&#x9;&#x9;electrónica.&lt;/span&gt;&lt;span style=&quot;font-size:16px;&quot;&gt; &#xa;&lt;/span&gt;&lt;span style=&quot;font-size:14px;color:#0e0e0e;&quot;&gt;&lt;span style=&quot;font-size:14px;color:#0e0e0e;&quot;&gt;4.&#x9;&lt;/span&gt;&lt;span style=&quot;font-size:14px;color:#0e0e0e;font-weight: bold;&quot;&gt;Pago:&lt;/span&gt;&lt;span style=&quot;font-size:16px;&quot;&gt; &#xa;&lt;/span&gt;&lt;span style=&quot;font-size:14px;color:#0e0e0e;&quot;&gt;&#x9;•&#x9;PagoBE: Detalles relacionados con el pago de la solicitud.&lt;/span&gt;&lt;span style=&quot;font-size:16px;&quot;&gt; &#xa;&lt;/span&gt;&lt;span style=&quot;font-size:14px;color:#0e0e0e;&quot;&gt;&#x9;•&#x9;CuotaInicial: Porcentaje del primer pago.&lt;/span&gt;&lt;span style=&quot;font-size:16px;&quot;&gt; &#xa;&lt;/span&gt;&lt;span style=&quot;font-size:14px;color:#0e0e0e;&quot;&gt;&#x9;•&#x9;NumeroLetras: Cantidad de cuotas en el plan de pago.&lt;/span&gt;&lt;span style=&quot;font-size:16px;&quot;&gt; &#xa;&lt;/span&gt;&lt;span style=&quot;font-size:14px;color:#0e0e0e;&quot;&gt;&#x9;•&#x9;CodTipoPago: Código que identifica el tipo de pago (e.g., “001” para tarjeta de &#x9;&#x9;crédito).&lt;/span&gt;&lt;span style=&quot;font-size:16px;&quot;&gt; &#xa;&lt;/span&gt;&lt;span style=&quot;font-size:14px;color:#0e0e0e;&quot;&gt;&#x9;•&#x9;FechaInicioVigencia: Fecha en la que el pago entra en vigencia.&lt;/span&gt;&lt;/span&gt;&lt;/span&gt;&lt;/span&gt;&lt;/span&gt;&lt;/span&gt;&lt;/div&gt;" style="html=1;overflow=block;blockSpacing=1;whiteSpace=wrap;fontSize=13;align=left;spacing=3.8;verticalAlign=top;strokeColor=none;fillOpacity=0;rounded=1;absoluteArcSize=1;arcSize=9;fillColor=#ffffff;strokeWidth=0;lucidId=tT8sWwJeM2TK;" parent="1" vertex="1">
          <mxGeometry x="-1530" y="1380" width="555" height="480" as="geometry" />
        </mxCell>
        <mxCell id="FblqEJ61d_rF8akwRJso-289" value="" style="html=1;jettySize=18;whiteSpace=wrap;fontSize=13;strokeColor=#5E5E5E;strokeWidth=1.5;rounded=1;arcSize=12;edgeStyle=orthogonalEdgeStyle;startArrow=none;endArrow=block;endFill=1;exitX=1.004;exitY=0.5;exitPerimeter=0;lucidId=6U8sZ9jfmubP;" parent="1" source="FblqEJ61d_rF8akwRJso-285" edge="1">
          <mxGeometry width="100" height="100" relative="1" as="geometry">
            <Array as="points" />
            <mxPoint x="-915" y="840" as="targetPoint" />
          </mxGeometry>
        </mxCell>
        <mxCell id="FblqEJ61d_rF8akwRJso-290" value="TablaConfiguracionDA" style="html=1;overflow=block;blockSpacing=1;whiteSpace=wrap;shape=component;align=left;spacingLeft=36;fontSize=16.7;spacing=0;strokeColor=#001DBC;strokeOpacity=100;fillOpacity=100;rounded=1;absoluteArcSize=1;arcSize=9;fillColor=#0050ef;strokeWidth=1.5;lucidId=jV8syu7RKmyl;fontColor=#ffffff;" parent="1" vertex="1">
          <mxGeometry x="-930" y="780" width="210" height="105" as="geometry" />
        </mxCell>
        <mxCell id="FblqEJ61d_rF8akwRJso-292" value="PKG_TABLACONFIG.F_TABCONF_VALUE" style="html=1;overflow=block;blockSpacing=1;whiteSpace=wrap;fontSize=13;spacing=3.8;strokeColor=none;fillOpacity=0;rounded=1;absoluteArcSize=1;arcSize=9;fillColor=#ffffff;strokeWidth=0;lucidId=NV8sDziEc_YG;" parent="1" vertex="1">
          <mxGeometry x="-960" y="750" width="271" height="24" as="geometry" />
        </mxCell>
        <mxCell id="FblqEJ61d_rF8akwRJso-293" value="&lt;div style=&quot;display: flex; justify-content: flex-start; text-align: left; align-items: baseline; font-size: 0; line-height: 1.25;margin-top: -2px;&quot;&gt;&lt;span&gt;&lt;span style=&quot;font-size:13px;color:#0e0e0e;font-weight: bold;&quot;&gt;Parámetros de entrada&lt;/span&gt;&lt;span style=&quot;font-size:16px;&quot;&gt; &#xa;&lt;/span&gt;&lt;span style=&quot;font-size:14px;color:#0e0e0e;&quot;&gt;&#xa;&lt;/span&gt;&lt;span style=&quot;font-size:16px;&quot;&gt; &#xa;&lt;/span&gt;&lt;span style=&quot;font-size:14px;color:#0e0e0e;&quot;&gt;La función Obtener tiene un único parámetro de entrada:&lt;/span&gt;&lt;span style=&quot;font-size:16px;&quot;&gt; &#xa;&lt;/span&gt;&lt;span style=&quot;font-size:14px;color:#0e0e0e;&quot;&gt;&#x9;•&#x9;skey (string):&lt;/span&gt;&lt;span style=&quot;font-size:16px;&quot;&gt; &#xa;&lt;/span&gt;&lt;span style=&quot;font-size:14px;color:#0e0e0e;&quot;&gt;Este parámetro es una clave (key) que se utiliza para buscar un valor específico en una tabla de configuración.&lt;/span&gt;&lt;span style=&quot;font-size:16px;&quot;&gt; &#xa;&lt;/span&gt;&lt;span style=&quot;font-size:14px;color:#0e0e0e;&quot;&gt;Se pasa como el parámetro PISKEY al stored procedure.&lt;/span&gt;&lt;/span&gt;&lt;/div&gt;" style="html=1;overflow=block;blockSpacing=1;whiteSpace=wrap;fontSize=13;align=left;spacing=3.8;verticalAlign=top;strokeColor=none;fillOpacity=0;rounded=1;absoluteArcSize=1;arcSize=9;fillColor=#ffffff;strokeWidth=0;lucidId=-W8sL3L6ia6G;" parent="1" vertex="1">
          <mxGeometry x="-840" y="900" width="695" height="137" as="geometry" />
        </mxCell>
        <mxCell id="FblqEJ61d_rF8akwRJso-294" value="&lt;div style=&quot;display: flex; justify-content: flex-start; text-align: left; align-items: baseline; font-size: 0; line-height: 1.25;margin-top: -2px;&quot;&gt;&lt;span&gt;&lt;span style=&quot;font-size:13px;color:#0e0e0e;font-weight: bold;&quot;&gt;Parámetros de salida&lt;/span&gt;&lt;span style=&quot;font-size:16px;&quot;&gt; &#xa;&lt;/span&gt;&lt;span style=&quot;font-size:14px;color:#0e0e0e;&quot;&gt;&#xa;&lt;/span&gt;&lt;span style=&quot;font-size:16px;&quot;&gt; &#xa;&lt;/span&gt;&lt;span style=&quot;font-size:14px;color:#0e0e0e;&quot;&gt;La función retorna un valor:&lt;/span&gt;&lt;span style=&quot;font-size:16px;&quot;&gt; &#xa;&lt;/span&gt;&lt;span style=&quot;font-size:14px;color:#0e0e0e;&quot;&gt;&#x9;•&#x9;valor (string):&lt;/span&gt;&lt;span style=&quot;font-size:16px;&quot;&gt; &#xa;&lt;/span&gt;&lt;span style=&quot;font-size:14px;color:#0e0e0e;&quot;&gt;Es el resultado de la ejecución del stored procedure, obtenido del parámetro de retorno (returnVal).&lt;/span&gt;&lt;span style=&quot;font-size:16px;&quot;&gt; &#xa;&lt;/span&gt;&lt;span style=&quot;font-size:14px;color:#0e0e0e;&quot;&gt;Si el valor es nulo (DBNull), la función devuelve una cadena vacía (&quot;&quot;).&lt;/span&gt;&lt;/span&gt;&lt;/div&gt;" style="html=1;overflow=block;blockSpacing=1;whiteSpace=wrap;fontSize=13;align=left;spacing=3.8;verticalAlign=top;strokeColor=none;fillOpacity=0;rounded=1;absoluteArcSize=1;arcSize=9;fillColor=#ffffff;strokeWidth=0;lucidId=eX8s9tiU~Xff;" parent="1" vertex="1">
          <mxGeometry x="-840" y="1052" width="621" height="137" as="geometry" />
        </mxCell>
        <mxCell id="FblqEJ61d_rF8akwRJso-295" value="ObtenerCentroTramite" style="html=1;overflow=block;blockSpacing=1;whiteSpace=wrap;shape=component;align=left;spacingLeft=36;fontSize=16.7;spacing=0;strokeColor=#001DBC;strokeOpacity=100;fillOpacity=100;rounded=1;absoluteArcSize=1;arcSize=9;fillColor=#0050ef;strokeWidth=1.5;lucidId=~08sORcI3WiQ;fontColor=#ffffff;" parent="1" vertex="1">
          <mxGeometry x="104" y="786" width="240" height="85" as="geometry" />
        </mxCell>
        <mxCell id="FblqEJ61d_rF8akwRJso-296" value="PKG_WORKFLOW.F_CTACTUAL" style="html=1;overflow=block;blockSpacing=1;whiteSpace=wrap;fontSize=13;spacing=3.8;strokeColor=none;fillOpacity=0;rounded=1;absoluteArcSize=1;arcSize=9;fillColor=#ffffff;strokeWidth=0;lucidId=~18sqQF3ehDc;" parent="1" vertex="1">
          <mxGeometry x="117" y="988" width="213" height="24" as="geometry" />
        </mxCell>
        <mxCell id="FblqEJ61d_rF8akwRJso-298" value="&lt;div style=&quot;display: flex; justify-content: flex-start; text-align: left; align-items: baseline; font-size: 0; line-height: 1.25;margin-top: -2px;&quot;&gt;&lt;span&gt;&lt;span style=&quot;font-size:13px;color:#0e0e0e;font-weight: bold;&quot;&gt;Parámetros de entrada&lt;/span&gt;&lt;span style=&quot;font-size:16px;&quot;&gt; &#xa;&lt;/span&gt;&lt;span style=&quot;font-size:14px;color:#0e0e0e;&quot;&gt;&#xa;&lt;/span&gt;&lt;span style=&quot;font-size:16px;&quot;&gt; &#xa;&lt;/span&gt;&lt;span style=&quot;font-size:14px;color:#0e0e0e;&quot;&gt;La función recibe tres parámetros de entrada:&lt;/span&gt;&lt;span style=&quot;font-size:16px;&quot;&gt; &#xa;&lt;/span&gt;&lt;span style=&quot;font-size:14px;color:#0e0e0e;&quot;&gt;&#x9;1.&#x9;idArea (int):&lt;/span&gt;&lt;span style=&quot;font-size:16px;&quot;&gt; &#xa;&lt;/span&gt;&lt;span style=&quot;font-size:14px;color:#0e0e0e;&quot;&gt;Representa el identificador del área. Es un valor entero que se utiliza para determinar el centro de trámite.&lt;/span&gt;&lt;span style=&quot;font-size:16px;&quot;&gt; &#xa;&lt;/span&gt;&lt;span style=&quot;font-size:14px;color:#0e0e0e;&quot;&gt;&#x9;2.&#x9;idOficina (int):&lt;/span&gt;&lt;span style=&quot;font-size:16px;&quot;&gt; &#xa;&lt;/span&gt;&lt;span style=&quot;font-size:14px;color:#0e0e0e;&quot;&gt;Representa el identificador de la oficina. Es un valor entero que indica la oficina asociada.&lt;/span&gt;&lt;span style=&quot;font-size:16px;&quot;&gt; &#xa;&lt;/span&gt;&lt;span style=&quot;font-size:14px;color:#0e0e0e;&quot;&gt;&#x9;3.&#x9;idRamo (int):&lt;/span&gt;&lt;span style=&quot;font-size:16px;&quot;&gt; &#xa;&lt;/span&gt;&lt;span style=&quot;font-size:14px;color:#0e0e0e;&quot;&gt;Representa el identificador del ramo. Es un valor entero relacionado con la categoría o tipo de trámite.&lt;/span&gt;&lt;/span&gt;&lt;/div&gt;" style="html=1;overflow=block;blockSpacing=1;whiteSpace=wrap;fontSize=13;align=left;spacing=3.8;verticalAlign=top;strokeColor=none;fillOpacity=0;rounded=1;absoluteArcSize=1;arcSize=9;fillColor=#ffffff;strokeWidth=0;lucidId=-38sfnqN.hvP;" parent="1" vertex="1">
          <mxGeometry x="-15" y="1023" width="495" height="300" as="geometry" />
        </mxCell>
        <mxCell id="FblqEJ61d_rF8akwRJso-299" value="&lt;div style=&quot;display: flex; justify-content: flex-start; text-align: left; align-items: baseline; font-size: 0; line-height: 1.25;margin-top: -2px;&quot;&gt;&lt;span&gt;&lt;span style=&quot;font-size:13px;color:#0e0e0e;font-weight: bold;&quot;&gt;Parámetro de salida&lt;/span&gt;&lt;span style=&quot;font-size:16px;&quot;&gt; &#xa;&lt;/span&gt;&lt;span style=&quot;font-size:14px;color:#0e0e0e;&quot;&gt;&#xa;&lt;/span&gt;&lt;span style=&quot;font-size:16px;&quot;&gt; &#xa;&lt;/span&gt;&lt;span style=&quot;font-size:14px;color:#0e0e0e;&quot;&gt;La función retorna un único valor:&lt;/span&gt;&lt;span style=&quot;font-size:16px;&quot;&gt; &#xa;&lt;/span&gt;&lt;span style=&quot;font-size:14px;color:#0e0e0e;&quot;&gt;&#x9;•&#x9;idCentroTramite (int):&lt;/span&gt;&lt;span style=&quot;font-size:16px;&quot;&gt; &#xa;&lt;/span&gt;&lt;span style=&quot;font-size:14px;color:#0e0e0e;&quot;&gt;Este es el identificador del centro de trámite resultante de la operación. Si no se encuentra un valor válido, devuelve 0.&lt;/span&gt;&lt;/span&gt;&lt;/div&gt;" style="html=1;overflow=block;blockSpacing=1;whiteSpace=wrap;fontSize=13;align=left;spacing=3.8;verticalAlign=top;strokeColor=none;fillOpacity=0;rounded=1;absoluteArcSize=1;arcSize=9;fillColor=#ffffff;strokeWidth=0;lucidId=m48skMad_9QD;" parent="1" vertex="1">
          <mxGeometry x="-15" y="1329" width="480" height="174" as="geometry" />
        </mxCell>
        <mxCell id="FblqEJ61d_rF8akwRJso-300" value="ObtenerAreaOficinaEmision" style="html=1;overflow=block;blockSpacing=1;whiteSpace=wrap;shape=component;align=left;spacingLeft=36;fontSize=16.7;spacing=0;strokeColor=#001DBC;strokeOpacity=100;fillOpacity=100;rounded=1;absoluteArcSize=1;arcSize=9;fillColor=#0050ef;strokeWidth=1.5;lucidId=4T9sFijXS4q1;fontColor=#ffffff;" parent="1" vertex="1">
          <mxGeometry x="-330" y="790" width="240" height="85" as="geometry" />
        </mxCell>
        <mxCell id="FblqEJ61d_rF8akwRJso-301" value="SP_AREATRAMITE_FNX_SEL" style="html=1;overflow=block;blockSpacing=1;whiteSpace=wrap;fontSize=13;spacing=3.8;strokeColor=none;fillOpacity=0;rounded=1;absoluteArcSize=1;arcSize=9;fillColor=#ffffff;strokeWidth=0;lucidId=4T9shbwzQT6Z;" parent="1" vertex="1">
          <mxGeometry x="-315" y="750" width="213" height="24" as="geometry" />
        </mxCell>
        <mxCell id="FblqEJ61d_rF8akwRJso-303" value="" style="html=1;jettySize=18;whiteSpace=wrap;fontSize=13;strokeColor=#5E5E5E;strokeWidth=1.5;rounded=1;arcSize=12;edgeStyle=orthogonalEdgeStyle;startArrow=none;endArrow=block;endFill=1;exitX=1.004;exitY=0.5;exitPerimeter=0;entryX=0.059;entryY=0.486;entryPerimeter=0;lucidId=.T9sKvz3QBAe;" parent="1" source="FblqEJ61d_rF8akwRJso-290" target="FblqEJ61d_rF8akwRJso-300" edge="1">
          <mxGeometry width="100" height="100" relative="1" as="geometry">
            <Array as="points" />
          </mxGeometry>
        </mxCell>
        <mxCell id="FblqEJ61d_rF8akwRJso-304" value="&lt;div style=&quot;display: flex; justify-content: flex-start; text-align: left; align-items: baseline; font-size: 0; line-height: 1.25;margin-top: -2px;&quot;&gt;&lt;span&gt;&lt;span style=&quot;font-size:13px;color:#0e0e0e;font-weight: bold;&quot;&gt;Parámetros de entrada&lt;/span&gt;&lt;span style=&quot;font-size:16px;&quot;&gt; &#xa;&lt;/span&gt;&lt;span style=&quot;font-size:14px;color:#0e0e0e;&quot;&gt;&#xa;&lt;/span&gt;&lt;span style=&quot;font-size:16px;&quot;&gt; &#xa;&lt;/span&gt;&lt;span style=&quot;font-size:14px;color:#0e0e0e;&quot;&gt;La función recibe tres parámetros de entrada:&lt;/span&gt;&lt;span style=&quot;font-size:16px;&quot;&gt; &#xa;&lt;/span&gt;&lt;span style=&quot;font-size:14px;color:#0e0e0e;&quot;&gt;&#x9;1.&#x9;idOficina (int):&lt;/span&gt;&lt;span style=&quot;font-size:16px;&quot;&gt; &#xa;&lt;/span&gt;&lt;span style=&quot;font-size:14px;color:#0e0e0e;&quot;&gt;Representa el identificador de la oficina desde la cual se desea obtener información.&lt;/span&gt;&lt;span style=&quot;font-size:16px;&quot;&gt; &#xa;&lt;/span&gt;&lt;span style=&quot;font-size:14px;color:#0e0e0e;&quot;&gt;&#x9;2.&#x9;idRamo (int):&lt;/span&gt;&lt;span style=&quot;font-size:16px;&quot;&gt; &#xa;&lt;/span&gt;&lt;span style=&quot;font-size:14px;color:#0e0e0e;&quot;&gt;Identifica el ramo o categoría asociada al área.&lt;/span&gt;&lt;span style=&quot;font-size:16px;&quot;&gt; &#xa;&lt;/span&gt;&lt;span style=&quot;font-size:14px;color:#0e0e0e;&quot;&gt;&#x9;3.&#x9;idGrupoArea (int):&lt;/span&gt;&lt;span style=&quot;font-size:16px;&quot;&gt; &#xa;&lt;/span&gt;&lt;span style=&quot;font-size:14px;color:#0e0e0e;&quot;&gt;Representa el grupo de áreas relacionadas a la oficina y ramo.&lt;/span&gt;&lt;/span&gt;&lt;/div&gt;" style="html=1;overflow=block;blockSpacing=1;whiteSpace=wrap;fontSize=13;align=left;spacing=3.8;verticalAlign=top;strokeColor=none;fillOpacity=0;rounded=1;absoluteArcSize=1;arcSize=9;fillColor=#ffffff;strokeWidth=0;lucidId=_V9sHNvxt_R1;" parent="1" vertex="1">
          <mxGeometry x="-315" y="240" width="530" height="195" as="geometry" />
        </mxCell>
        <mxCell id="FblqEJ61d_rF8akwRJso-305" value="&lt;div style=&quot;display: flex; justify-content: flex-start; text-align: left; align-items: baseline; font-size: 0; line-height: 1.25;margin-top: -2px;&quot;&gt;&lt;span&gt;&lt;span style=&quot;font-size:13px;color:#0e0e0e;font-weight: bold;&quot;&gt;Parámetros de salida&lt;/span&gt;&lt;span style=&quot;font-size:16px;&quot;&gt; &#xa;&lt;/span&gt;&lt;span style=&quot;font-size:14px;color:#0e0e0e;&quot;&gt;&#xa;&lt;/span&gt;&lt;span style=&quot;font-size:16px;&quot;&gt; &#xa;&lt;/span&gt;&lt;span style=&quot;font-size:14px;color:#0e0e0e;&quot;&gt;La función retorna un objeto de tipo AreaDestinoDE, que contiene dos propiedades:&lt;/span&gt;&lt;span style=&quot;font-size:16px;&quot;&gt; &#xa;&lt;/span&gt;&lt;span style=&quot;font-size:14px;color:#0e0e0e;&quot;&gt;&#x9;1.&#x9;IdArea (int):&lt;/span&gt;&lt;span style=&quot;font-size:16px;&quot;&gt; &#xa;&lt;/span&gt;&lt;span style=&quot;font-size:14px;color:#0e0e0e;&quot;&gt;El identificador del área obtenida por el stored procedure.&lt;/span&gt;&lt;span style=&quot;font-size:16px;&quot;&gt; &#xa;&lt;/span&gt;&lt;span style=&quot;font-size:14px;color:#0e0e0e;&quot;&gt;&#x9;2.&#x9;IdOficina (int):&lt;/span&gt;&lt;span style=&quot;font-size:16px;&quot;&gt; &#xa;&lt;/span&gt;&lt;span style=&quot;font-size:14px;color:#0e0e0e;&quot;&gt;El identificador de la oficina destino, devuelto por el stored procedure.&lt;/span&gt;&lt;/span&gt;&lt;/div&gt;" style="html=1;overflow=block;blockSpacing=1;whiteSpace=wrap;fontSize=13;align=left;spacing=3.8;verticalAlign=top;strokeColor=none;fillOpacity=0;rounded=1;absoluteArcSize=1;arcSize=9;fillColor=#ffffff;strokeWidth=0;lucidId=iW9s8LXepaJE;" parent="1" vertex="1">
          <mxGeometry x="-315" y="460" width="527" height="156" as="geometry" />
        </mxCell>
        <mxCell id="FblqEJ61d_rF8akwRJso-306" value="" style="html=1;jettySize=18;whiteSpace=wrap;fontSize=13;strokeColor=#5E5E5E;strokeWidth=1.5;rounded=1;arcSize=12;edgeStyle=orthogonalEdgeStyle;startArrow=none;endArrow=block;endFill=1;exitX=1.003;exitY=0.5;exitPerimeter=0;entryX=0.059;entryY=0.55;entryPerimeter=0;lucidId=iX9sqDck.aqP;" parent="1" source="FblqEJ61d_rF8akwRJso-300" target="FblqEJ61d_rF8akwRJso-295" edge="1">
          <mxGeometry width="100" height="100" relative="1" as="geometry">
            <Array as="points" />
          </mxGeometry>
        </mxCell>
        <mxCell id="FblqEJ61d_rF8akwRJso-307" value="_solicitudDA.Registrar" style="html=1;overflow=block;blockSpacing=1;whiteSpace=wrap;shape=component;align=left;spacingLeft=36;fontSize=16.7;spacing=0;strokeColor=#001DBC;strokeOpacity=100;fillOpacity=100;rounded=1;absoluteArcSize=1;arcSize=9;fillColor=#0050ef;strokeWidth=1.5;lucidId=Ya-sg~-bxU8F;fontColor=#ffffff;" parent="1" vertex="1">
          <mxGeometry x="675" y="790" width="240" height="85" as="geometry" />
        </mxCell>
        <mxCell id="FblqEJ61d_rF8akwRJso-308" value="PKG_WORKFLOW.SP_SOLICITUD_INS" style="html=1;overflow=block;blockSpacing=1;whiteSpace=wrap;fontSize=13;spacing=3.8;strokeColor=none;fillOpacity=0;rounded=1;absoluteArcSize=1;arcSize=9;fillColor=#ffffff;strokeWidth=0;lucidId=Ya-sq6P4cxHf;" parent="1" vertex="1">
          <mxGeometry x="702" y="993" width="213" height="24" as="geometry" />
        </mxCell>
        <mxCell id="FblqEJ61d_rF8akwRJso-310" value="" style="html=1;jettySize=18;whiteSpace=wrap;fontSize=13;strokeColor=#5E5E5E;strokeWidth=1.5;rounded=1;arcSize=12;edgeStyle=orthogonalEdgeStyle;startArrow=none;endArrow=block;endFill=1;entryX=0.059;entryY=0.55;entryPerimeter=0;lucidId=Ya-sbxsl61Mh;" parent="1" target="FblqEJ61d_rF8akwRJso-307" edge="1">
          <mxGeometry width="100" height="100" relative="1" as="geometry">
            <Array as="points" />
            <mxPoint x="344" y="837" as="sourcePoint" />
          </mxGeometry>
        </mxCell>
        <mxCell id="FblqEJ61d_rF8akwRJso-311" value="&lt;div style=&quot;display: flex; justify-content: flex-start; text-align: left; align-items: baseline; font-size: 0; line-height: 1.25;margin-top: -2px;&quot;&gt;&lt;span&gt;&lt;span style=&quot;font-size:13px;color:#0e0e0e;font-weight: bold;&quot;&gt;Parámetros de entrada&lt;/span&gt;&lt;span style=&quot;font-size:16px;&quot;&gt; &#xa;&lt;/span&gt;&lt;span style=&quot;font-size:14px;color:#0e0e0e;&quot;&gt;&#xa;&lt;/span&gt;&lt;span style=&quot;font-size:16px;&quot;&gt; &#xa;&lt;/span&gt;&lt;span style=&quot;font-size:14px;color:#0e0e0e;&quot;&gt;La función Registrar recibe un único parámetro:&lt;/span&gt;&lt;span style=&quot;font-size:16px;&quot;&gt; &#xa;&lt;/span&gt;&lt;span style=&quot;font-size:14px;color:#0e0e0e;&quot;&gt;&#x9;•&#x9;solicitudBE (BusinessEntities.SolicitudBE):&lt;/span&gt;&lt;span style=&quot;font-size:16px;&quot;&gt; &#xa;&lt;/span&gt;&lt;span style=&quot;font-size:14px;color:#0e0e0e;&quot;&gt;Este es un objeto que encapsula toda la información necesaria para registrar una solicitud. Las propiedades del objeto SolicitudBE utilizadas en el método son las siguientes:&lt;/span&gt;&lt;span style=&quot;font-size:16px;&quot;&gt; &#xa;&lt;/span&gt;&lt;span style=&quot;font-size:14px;color:#0e0e0e;&quot;&gt;&#x9;1.&#x9;IdCliente (int):&lt;/span&gt;&lt;span style=&quot;font-size:16px;&quot;&gt; &#xa;&lt;/span&gt;&lt;span style=&quot;font-size:14px;color:#0e0e0e;&quot;&gt;Representa el identificador del cliente relacionado con la solicitud.&lt;/span&gt;&lt;span style=&quot;font-size:16px;&quot;&gt; &#xa;&lt;/span&gt;&lt;span style=&quot;font-size:14px;color:#0e0e0e;&quot;&gt;&#x9;2.&#x9;Observacion (string):&lt;/span&gt;&lt;span style=&quot;font-size:16px;&quot;&gt; &#xa;&lt;/span&gt;&lt;span style=&quot;font-size:14px;color:#0e0e0e;&quot;&gt;Contiene comentarios o información adicional sobre la solicitud.&lt;/span&gt;&lt;span style=&quot;font-size:16px;&quot;&gt; &#xa;&lt;/span&gt;&lt;span style=&quot;font-size:14px;color:#0e0e0e;&quot;&gt;&#x9;3.&#x9;IdUsuario (int):&lt;/span&gt;&lt;span style=&quot;font-size:16px;&quot;&gt; &#xa;&lt;/span&gt;&lt;span style=&quot;font-size:14px;color:#0e0e0e;&quot;&gt;Identifica al usuario que realiza la solicitud.&lt;/span&gt;&lt;span style=&quot;font-size:16px;&quot;&gt; &#xa;&lt;/span&gt;&lt;span style=&quot;font-size:14px;color:#0e0e0e;&quot;&gt;&#x9;4.&#x9;IdBroker (int):&lt;/span&gt;&lt;span style=&quot;font-size:16px;&quot;&gt; &#xa;&lt;/span&gt;&lt;span style=&quot;font-size:14px;color:#0e0e0e;&quot;&gt;Representa el identificador del broker o intermediario.&lt;/span&gt;&lt;span style=&quot;font-size:16px;&quot;&gt; &#xa;&lt;/span&gt;&lt;span style=&quot;font-size:14px;color:#0e0e0e;&quot;&gt;&#x9;5.&#x9;IdOficina (int):&lt;/span&gt;&lt;span style=&quot;font-size:16px;&quot;&gt; &#xa;&lt;/span&gt;&lt;span style=&quot;font-size:14px;color:#0e0e0e;&quot;&gt;Representa el identificador de la oficina relacionada con la solicitud.&lt;/span&gt;&lt;span style=&quot;font-size:16px;&quot;&gt; &#xa;&lt;/span&gt;&lt;span style=&quot;font-size:14px;color:#0e0e0e;&quot;&gt;&#x9;6.&#x9;TipoSolicitud (int):&lt;/span&gt;&lt;span style=&quot;font-size:16px;&quot;&gt; &#xa;&lt;/span&gt;&lt;span style=&quot;font-size:14px;color:#0e0e0e;&quot;&gt;Identifica el tipo de solicitud que se está registrando.&lt;/span&gt;&lt;/span&gt;&lt;/div&gt;" style="html=1;overflow=block;blockSpacing=1;whiteSpace=wrap;fontSize=13;align=left;spacing=3.8;verticalAlign=top;strokeColor=none;fillOpacity=0;rounded=1;absoluteArcSize=1;arcSize=9;fillColor=#ffffff;strokeWidth=0;lucidId=Hb-scbRIPU_Y;" parent="1" vertex="1">
          <mxGeometry x="570" y="1028" width="450" height="382" as="geometry" />
        </mxCell>
        <mxCell id="FblqEJ61d_rF8akwRJso-312" value="&lt;div style=&quot;display: flex; justify-content: flex-start; text-align: left; align-items: baseline; font-size: 0; line-height: 1.25;margin-top: -2px;&quot;&gt;&lt;span&gt;&lt;span style=&quot;font-size:13px;color:#0e0e0e;font-weight: bold;&quot;&gt;Parámetro de salida&lt;/span&gt;&lt;span style=&quot;font-size:16px;&quot;&gt; &#xa;&lt;/span&gt;&lt;span style=&quot;font-size:14px;color:#0e0e0e;&quot;&gt;&#xa;&lt;/span&gt;&lt;span style=&quot;font-size:16px;&quot;&gt; &#xa;&lt;/span&gt;&lt;span style=&quot;font-size:14px;color:#0e0e0e;&quot;&gt;La función retorna un valor entero:&lt;/span&gt;&lt;span style=&quot;font-size:16px;&quot;&gt; &#xa;&lt;/span&gt;&lt;span style=&quot;font-size:14px;color:#0e0e0e;&quot;&gt;&#x9;•&#x9;idSolicitud (int):&lt;/span&gt;&lt;span style=&quot;font-size:16px;&quot;&gt; &#xa;&lt;/span&gt;&lt;span style=&quot;font-size:14px;color:#0e0e0e;&quot;&gt;Este es el identificador único de la solicitud registrada, obtenido del parámetro de salida IDENT del stored procedure.&lt;/span&gt;&lt;/span&gt;&lt;/div&gt;" style="html=1;overflow=block;blockSpacing=1;whiteSpace=wrap;fontSize=13;align=left;spacing=3.8;verticalAlign=top;strokeColor=none;fillOpacity=0;rounded=1;absoluteArcSize=1;arcSize=9;fillColor=#ffffff;strokeWidth=0;lucidId=Xb-sPKYSdJ1w;" parent="1" vertex="1">
          <mxGeometry x="570" y="1425" width="450" height="180" as="geometry" />
        </mxCell>
        <mxCell id="FblqEJ61d_rF8akwRJso-313" value="&lt;span data-lucid-type=&quot;application/vnd.lucid.text&quot; data-lucid-content=&quot;{&amp;quot;t&amp;quot;:&amp;quot;{\n IdCliente = 12345, // ID del cliente asociado a la solicitud\n Observacion = \&amp;quot;Solicitud de prueba para registrar un trámite.\&amp;quot;, // Observaciones adicionales\n IdUsuario = 6789, // ID del usuario que realiza la solicitud\n IdBroker = 12, // ID del broker (intermediario)\n IdOficina = 5, // ID de la oficina desde donde se origina la solicitud\n TipoSolicitud = 1, // Tipo de solicitud (e.g., 1 = Emisión, 7 = Inclusión)\n IdRamo = 3, // ID del ramo asociado a la solicitud\n IdPoliza = 987654, // ID de la póliza, si aplica\n IndicadorPolizaElectronica = 1, // Indicador de póliza electrónica (1 = Sí, 0 = No)\n PagoBE = new PagoBE\n {\n CuotaInicial = 20.5m, // Porcentaje del primer pago\n NumeroLetras = 12, // Número de cuotas del pago\n CodTipoPago = \&amp;quot;001\&amp;quot;, // Código del tipo de pago (e.g., tarjeta, efectivo)\n IdentificadorTramite = 0 // Inicialmente, este será actualizado más adelante\n },\n TransaccionBE = new TransaccionBE\n {\n IdAplicacionOrigen = 4, // ID de la aplicación origen\n IdTransaccionOrigen = \&amp;quot;TX12345\&amp;quot; // ID único de la transacción origen\n },\n IdOficinaVT = 2 // ID de la oficina en el sistema VisualTime, si aplica\n};&amp;quot;,&amp;quot;m&amp;quot;:[{&amp;quot;s&amp;quot;:0,&amp;quot;n&amp;quot;:&amp;quot;a&amp;quot;,&amp;quot;v&amp;quot;:&amp;quot;left&amp;quot;},{&amp;quot;s&amp;quot;:2,&amp;quot;n&amp;quot;:&amp;quot;a&amp;quot;,&amp;quot;v&amp;quot;:&amp;quot;left&amp;quot;},{&amp;quot;s&amp;quot;:64,&amp;quot;n&amp;quot;:&amp;quot;a&amp;quot;,&amp;quot;v&amp;quot;:&amp;quot;left&amp;quot;},{&amp;quot;s&amp;quot;:158,&amp;quot;n&amp;quot;:&amp;quot;a&amp;quot;,&amp;quot;v&amp;quot;:&amp;quot;left&amp;quot;},{&amp;quot;s&amp;quot;:220,&amp;quot;n&amp;quot;:&amp;quot;a&amp;quot;,&amp;quot;v&amp;quot;:&amp;quot;left&amp;quot;},{&amp;quot;s&amp;quot;:269,&amp;quot;n&amp;quot;:&amp;quot;a&amp;quot;,&amp;quot;v&amp;quot;:&amp;quot;left&amp;quot;},{&amp;quot;s&amp;quot;:341,&amp;quot;n&amp;quot;:&amp;quot;a&amp;quot;,&amp;quot;v&amp;quot;:&amp;quot;left&amp;quot;},{&amp;quot;s&amp;quot;:417,&amp;quot;n&amp;quot;:&amp;quot;a&amp;quot;,&amp;quot;v&amp;quot;:&amp;quot;left&amp;quot;},{&amp;quot;s&amp;quot;:469,&amp;quot;n&amp;quot;:&amp;quot;a&amp;quot;,&amp;quot;v&amp;quot;:&amp;quot;left&amp;quot;},{&amp;quot;s&amp;quot;:519,&amp;quot;n&amp;quot;:&amp;quot;a&amp;quot;,&amp;quot;v&amp;quot;:&amp;quot;left&amp;quot;},{&amp;quot;s&amp;quot;:604,&amp;quot;n&amp;quot;:&amp;quot;a&amp;quot;,&amp;quot;v&amp;quot;:&amp;quot;left&amp;quot;},{&amp;quot;s&amp;quot;:625,&amp;quot;n&amp;quot;:&amp;quot;a&amp;quot;,&amp;quot;v&amp;quot;:&amp;quot;left&amp;quot;},{&amp;quot;s&amp;quot;:628,&amp;quot;n&amp;quot;:&amp;quot;a&amp;quot;,&amp;quot;v&amp;quot;:&amp;quot;left&amp;quot;},{&amp;quot;s&amp;quot;:681,&amp;quot;n&amp;quot;:&amp;quot;a&amp;quot;,&amp;quot;v&amp;quot;:&amp;quot;left&amp;quot;},{&amp;quot;s&amp;quot;:730,&amp;quot;n&amp;quot;:&amp;quot;a&amp;quot;,&amp;quot;v&amp;quot;:&amp;quot;left&amp;quot;},{&amp;quot;s&amp;quot;:805,&amp;quot;n&amp;quot;:&amp;quot;a&amp;quot;,&amp;quot;v&amp;quot;:&amp;quot;left&amp;quot;},{&amp;quot;s&amp;quot;:883,&amp;quot;n&amp;quot;:&amp;quot;a&amp;quot;,&amp;quot;v&amp;quot;:&amp;quot;left&amp;quot;},{&amp;quot;s&amp;quot;:887,&amp;quot;n&amp;quot;:&amp;quot;a&amp;quot;,&amp;quot;v&amp;quot;:&amp;quot;left&amp;quot;},{&amp;quot;s&amp;quot;:922,&amp;quot;n&amp;quot;:&amp;quot;a&amp;quot;,&amp;quot;v&amp;quot;:&amp;quot;left&amp;quot;},{&amp;quot;s&amp;quot;:925,&amp;quot;n&amp;quot;:&amp;quot;a&amp;quot;,&amp;quot;v&amp;quot;:&amp;quot;left&amp;quot;},{&amp;quot;s&amp;quot;:980,&amp;quot;n&amp;quot;:&amp;quot;a&amp;quot;,&amp;quot;v&amp;quot;:&amp;quot;left&amp;quot;},{&amp;quot;s&amp;quot;:1050,&amp;quot;n&amp;quot;:&amp;quot;a&amp;quot;,&amp;quot;v&amp;quot;:&amp;quot;left&amp;quot;},{&amp;quot;s&amp;quot;:1054,&amp;quot;n&amp;quot;:&amp;quot;a&amp;quot;,&amp;quot;v&amp;quot;:&amp;quot;left&amp;quot;},{&amp;quot;s&amp;quot;:1127,&amp;quot;n&amp;quot;:&amp;quot;a&amp;quot;,&amp;quot;v&amp;quot;:&amp;quot;left&amp;quot;}]}&quot;&gt;{&lt;br&gt; IdCliente = 12345, // ID del cliente asociado a la solicitud&lt;br&gt; Observacion = &quot;Solicitud de prueba para registrar un trámite.&quot;, // Observaciones adicionales&lt;br&gt; IdUsuario = 6789, // ID del usuario que realiza la solicitud&lt;br&gt; IdBroker = 12, // ID del broker (intermediario)&lt;br&gt; IdOficina = 5, // ID de la oficina desde donde se origina la solicitud&lt;br&gt; TipoSolicitud = 1, // Tipo de solicitud (e.g., 1 = Emisión, 7 = Inclusión)&lt;br&gt; IdRamo = 3, // ID del ramo asociado a la solicitud&lt;br&gt; IdPoliza = 987654, // ID de la póliza, si aplica&lt;br&gt; IndicadorPolizaElectronica = 1, // Indicador de póliza electrónica (1 = Sí, 0 = No)&lt;br&gt; PagoBE = new PagoBE&lt;br&gt; {&lt;br&gt; CuotaInicial = 20.5m, // Porcentaje del primer pago&lt;br&gt; NumeroLetras = 12, // Número de cuotas del pago&lt;br&gt; CodTipoPago = &quot;001&quot;, // Código del tipo de pago (e.g., tarjeta, efectivo)&lt;br&gt; IdentificadorTramite = 0 // Inicialmente, este será actualizado más adelante&lt;br&gt; },&lt;br&gt; TransaccionBE = new TransaccionBE&lt;br&gt; {&lt;br&gt; IdAplicacionOrigen = 4, // ID de la aplicación origen&lt;br&gt; IdTransaccionOrigen = &quot;TX12345&quot; // ID único de la transacción origen&lt;br&gt; },&lt;br&gt; IdOficinaVT = 2 // ID de la oficina en el sistema VisualTime, si aplica&lt;br&gt;};&lt;/span&gt;" style="html=1;overflow=block;blockSpacing=1;whiteSpace=wrap;fontSize=13;spacing=3.8;strokeColor=none;fillOpacity=0;rounded=1;absoluteArcSize=1;arcSize=9;fillColor=#ffffff;strokeWidth=0;lucidId=pd-sn4dui25F;align=left;" parent="1" vertex="1">
          <mxGeometry x="540" y="380" width="558" height="396" as="geometry" />
        </mxCell>
        <mxCell id="FblqEJ61d_rF8akwRJso-314" value="Parametro" style="html=1;overflow=block;blockSpacing=1;whiteSpace=wrap;fontSize=13.3;align=center;spacing=0;rounded=1;absoluteArcSize=1;arcSize=9;strokeWidth=NaN;lucidId=Gd-sDHTyDEE1;" parent="1" vertex="1">
          <mxGeometry x="540" y="330" width="180" height="45" as="geometry" />
        </mxCell>
        <mxCell id="FblqEJ61d_rF8akwRJso-315" value="" style="html=1;jettySize=18;whiteSpace=wrap;fontSize=13;strokeColor=#5E5E5E;strokeWidth=1.5;rounded=1;arcSize=12;edgeStyle=orthogonalEdgeStyle;startArrow=none;endArrow=block;endFill=1;exitX=1.003;exitY=0.5;exitPerimeter=0;entryX=0.073;entryY=0.485;entryPerimeter=0;lucidId=ve-sWv6W~yAA;" parent="1" source="FblqEJ61d_rF8akwRJso-307" target="FblqEJ61d_rF8akwRJso-316" edge="1">
          <mxGeometry width="100" height="100" relative="1" as="geometry">
            <Array as="points" />
          </mxGeometry>
        </mxCell>
        <mxCell id="FblqEJ61d_rF8akwRJso-316" value="ObtenerIdOficinaEqui" style="html=1;overflow=block;blockSpacing=1;whiteSpace=wrap;shape=component;align=left;spacingLeft=36;fontSize=16.7;spacing=0;strokeColor=#001DBC;strokeOpacity=100;fillOpacity=100;rounded=1;absoluteArcSize=1;arcSize=9;fillColor=#0050ef;strokeWidth=1.5;lucidId=xe-syLQeZ97a;fontColor=#ffffff;" parent="1" vertex="1">
          <mxGeometry x="1246" y="789" width="195" height="90" as="geometry" />
        </mxCell>
        <mxCell id="FblqEJ61d_rF8akwRJso-317" value="&lt;div style=&quot;display: flex; justify-content: flex-start; text-align: left; align-items: baseline; font-size: 0; line-height: 1.25;margin-top: -2px;&quot;&gt;&lt;span&gt;&lt;span style=&quot;font-size:13px;color:#0e0e0e;font-weight: bold;&quot;&gt;Parámetros de entrada&lt;/span&gt;&lt;span style=&quot;font-size:16px;&quot;&gt; &#xa;&lt;/span&gt;&lt;span style=&quot;font-size:14px;color:#0e0e0e;&quot;&gt;&#xa;&lt;/span&gt;&lt;span style=&quot;font-size:16px;&quot;&gt; &#xa;&lt;/span&gt;&lt;span style=&quot;font-size:14px;color:#0e0e0e;&quot;&gt;La función ObtenerIdOficinaEqui recibe un único parámetro de entrada:&lt;/span&gt;&lt;span style=&quot;font-size:16px;&quot;&gt; &#xa;&lt;/span&gt;&lt;span style=&quot;font-size:14px;color:#0e0e0e;&quot;&gt;&#x9;1.&#x9;idOficinaCore (int):&lt;/span&gt;&lt;span style=&quot;font-size:16px;&quot;&gt; &#xa;&lt;/span&gt;&lt;span style=&quot;font-size:14px;color:#0e0e0e;&quot;&gt;&#x9;•&#x9;Representa el identificador de una oficina en el sistema Core.&lt;/span&gt;&lt;span style=&quot;font-size:16px;&quot;&gt; &#xa;&lt;/span&gt;&lt;span style=&quot;font-size:14px;color:#0e0e0e;&quot;&gt;&#x9;•&#x9;Este valor se utiliza para buscar el equivalente en otro sistema o base de datos.&lt;/span&gt;&lt;/span&gt;&lt;/div&gt;" style="html=1;overflow=block;blockSpacing=1;whiteSpace=wrap;fontSize=13;align=left;spacing=3.8;verticalAlign=top;strokeColor=none;fillOpacity=0;rounded=1;absoluteArcSize=1;arcSize=9;fillColor=#ffffff;strokeWidth=0;lucidId=Lg-s.7wBC2re;" parent="1" vertex="1">
          <mxGeometry x="1200" y="1023" width="360" height="195" as="geometry" />
        </mxCell>
        <mxCell id="FblqEJ61d_rF8akwRJso-318" value="PKG_TRAMITE.REA_OFFICE" style="html=1;overflow=block;blockSpacing=1;whiteSpace=wrap;fontSize=13;spacing=3.8;strokeColor=none;fillOpacity=0;rounded=1;absoluteArcSize=1;arcSize=9;fillColor=#ffffff;strokeWidth=0;lucidId=3g-sh_XeeMQj;" parent="1" vertex="1">
          <mxGeometry x="1246" y="990" width="213" height="24" as="geometry" />
        </mxCell>
        <mxCell id="FblqEJ61d_rF8akwRJso-320" value="&lt;div style=&quot;display: flex; justify-content: flex-start; text-align: left; align-items: baseline; font-size: 0; line-height: 1.25;margin-top: -2px;&quot;&gt;&lt;span&gt;&lt;span style=&quot;font-size:13px;color:#0e0e0e;font-weight: bold;&quot;&gt;Parámetros de salida&lt;/span&gt;&lt;span style=&quot;font-size:16px;&quot;&gt; &#xa;&lt;/span&gt;&lt;span style=&quot;font-size:14px;color:#0e0e0e;&quot;&gt;&#xa;&lt;/span&gt;&lt;span style=&quot;font-size:16px;&quot;&gt; &#xa;&lt;/span&gt;&lt;span style=&quot;font-size:14px;color:#0e0e0e;&quot;&gt;La función retorna un valor entero:&lt;/span&gt;&lt;span style=&quot;font-size:16px;&quot;&gt; &#xa;&lt;/span&gt;&lt;span style=&quot;font-size:14px;color:#0e0e0e;&quot;&gt;&#x9;•&#x9;idOficina (int):&lt;/span&gt;&lt;span style=&quot;font-size:16px;&quot;&gt; &#xa;&lt;/span&gt;&lt;span style=&quot;font-size:14px;color:#0e0e0e;&quot;&gt;&#x9;•&#x9;Este es el identificador de la oficina equivalente obtenido del stored procedure.&lt;/span&gt;&lt;span style=&quot;font-size:16px;&quot;&gt; &#xa;&lt;/span&gt;&lt;span style=&quot;font-size:14px;color:#0e0e0e;&quot;&gt;&#x9;•&#x9;Si el procedimiento almacenado no encuentra un valor, puede devolver un valor predeterminado (por ejemplo, 0), dependiendo de la implementación.&lt;/span&gt;&lt;/span&gt;&lt;/div&gt;" style="html=1;overflow=block;blockSpacing=1;whiteSpace=wrap;fontSize=13;align=left;spacing=3.8;verticalAlign=top;strokeColor=none;fillOpacity=0;rounded=1;absoluteArcSize=1;arcSize=9;fillColor=#ffffff;strokeWidth=0;lucidId=bh-shgoAqGUP;" parent="1" vertex="1">
          <mxGeometry x="1200" y="1227" width="345" height="228" as="geometry" />
        </mxCell>
        <mxCell id="FblqEJ61d_rF8akwRJso-321" value="" style="html=1;jettySize=18;whiteSpace=wrap;fontSize=13;strokeColor=#5E5E5E;strokeWidth=1.5;rounded=1;arcSize=12;edgeStyle=orthogonalEdgeStyle;startArrow=none;endArrow=block;endFill=1;exitX=1.004;exitY=0.5;exitPerimeter=0;entryX=0.119;entryY=0.545;entryPerimeter=0;lucidId=-l-svNXqVLOl;" parent="1" source="FblqEJ61d_rF8akwRJso-316" target="FblqEJ61d_rF8akwRJso-322" edge="1">
          <mxGeometry width="100" height="100" relative="1" as="geometry">
            <Array as="points" />
          </mxGeometry>
        </mxCell>
        <mxCell id="FblqEJ61d_rF8akwRJso-322" value="ObtenerCorrelativoTramiteFenix" style="html=1;overflow=block;blockSpacing=1;whiteSpace=wrap;shape=component;align=left;spacingLeft=36;fontSize=16.7;spacing=0;strokeColor=#001DBC;strokeOpacity=100;fillOpacity=100;rounded=1;absoluteArcSize=1;arcSize=9;fillColor=#0050ef;strokeWidth=1.5;lucidId=_l-s5elZllY4;fontColor=#ffffff;" parent="1" vertex="1">
          <mxGeometry x="1755" y="785" width="270" height="90" as="geometry" />
        </mxCell>
        <mxCell id="FblqEJ61d_rF8akwRJso-323" value="LPG_FENIX.SEL_OVCORRELATIVOTRAMITE" style="html=1;overflow=block;blockSpacing=1;whiteSpace=wrap;fontSize=13;spacing=3.8;strokeColor=none;fillOpacity=0;rounded=1;absoluteArcSize=1;arcSize=9;fillColor=#ffffff;strokeWidth=0;lucidId=zm-sT5-jPDt.;" parent="1" vertex="1">
          <mxGeometry x="1800" y="981" width="213" height="24" as="geometry" />
        </mxCell>
        <mxCell id="FblqEJ61d_rF8akwRJso-325" value="&lt;div style=&quot;display: flex; justify-content: flex-start; text-align: left; align-items: baseline; font-size: 0; line-height: 1.25;margin-top: -2px;&quot;&gt;&lt;span&gt;&lt;span style=&quot;font-size:13px;color:#0e0e0e;font-weight: bold;&quot;&gt;Parámetros de entrada&lt;/span&gt;&lt;span style=&quot;font-size:16px;&quot;&gt; &#xa;&lt;/span&gt;&lt;span style=&quot;font-size:14px;color:#0e0e0e;&quot;&gt;&#xa;&lt;/span&gt;&lt;span style=&quot;font-size:16px;&quot;&gt; &#xa;&lt;/span&gt;&lt;span style=&quot;font-size:14px;color:#0e0e0e;&quot;&gt;La función ObtenerCorrelativoTramiteFenix no recibe parámetros de entrada.&lt;/span&gt;&lt;/span&gt;&lt;/div&gt;" style="html=1;overflow=block;blockSpacing=1;whiteSpace=wrap;fontSize=13;align=left;spacing=3.8;verticalAlign=top;strokeColor=none;fillOpacity=0;rounded=1;absoluteArcSize=1;arcSize=9;fillColor=#ffffff;strokeWidth=0;lucidId=Zm-sNOQ3EbG~;" parent="1" vertex="1">
          <mxGeometry x="1755" y="1017" width="330" height="108" as="geometry" />
        </mxCell>
        <mxCell id="FblqEJ61d_rF8akwRJso-326" value="&lt;div style=&quot;display: flex; justify-content: flex-start; text-align: left; align-items: baseline; font-size: 0; line-height: 1.25;margin-top: -2px;&quot;&gt;&lt;span&gt;&lt;span style=&quot;font-size:13px;color:#0e0e0e;font-weight: bold;&quot;&gt;Parámetro de salida&lt;/span&gt;&lt;span style=&quot;font-size:16px;&quot;&gt; &#xa;&lt;/span&gt;&lt;span style=&quot;font-size:14px;color:#0e0e0e;&quot;&gt;&#xa;&lt;/span&gt;&lt;span style=&quot;font-size:16px;&quot;&gt; &#xa;&lt;/span&gt;&lt;span style=&quot;font-size:14px;color:#0e0e0e;&quot;&gt;La función retorna un valor:&lt;/span&gt;&lt;span style=&quot;font-size:16px;&quot;&gt; &#xa;&lt;/span&gt;&lt;span style=&quot;font-size:14px;color:#0e0e0e;&quot;&gt;&#x9;•&#x9;result (int):&lt;/span&gt;&lt;span style=&quot;font-size:16px;&quot;&gt; &#xa;&lt;/span&gt;&lt;span style=&quot;font-size:14px;color:#0e0e0e;&quot;&gt;Este es el correlativo del trámite obtenido como resultado de la ejecución del stored procedure.&lt;/span&gt;&lt;/span&gt;&lt;/div&gt;" style="html=1;overflow=block;blockSpacing=1;whiteSpace=wrap;fontSize=13;align=left;spacing=3.8;verticalAlign=top;strokeColor=none;fillOpacity=0;rounded=1;absoluteArcSize=1;arcSize=9;fillColor=#ffffff;strokeWidth=0;lucidId=-m-sZnPCtw_M;" parent="1" vertex="1">
          <mxGeometry x="1755" y="1125" width="330" height="135" as="geometry" />
        </mxCell>
        <mxCell id="FblqEJ61d_rF8akwRJso-327" value="" style="html=1;jettySize=18;whiteSpace=wrap;fontSize=13;strokeColor=#5E5E5E;strokeWidth=1.5;rounded=1;arcSize=12;edgeStyle=orthogonalEdgeStyle;startArrow=none;endArrow=block;endFill=1;exitX=1.003;exitY=0.5;exitPerimeter=0;entryX=0.119;entryY=0.481;entryPerimeter=0;lucidId=Wn-sfmEOiRHb;" parent="1" source="FblqEJ61d_rF8akwRJso-322" target="FblqEJ61d_rF8akwRJso-328" edge="1">
          <mxGeometry width="100" height="100" relative="1" as="geometry">
            <Array as="points" />
          </mxGeometry>
        </mxCell>
        <mxCell id="FblqEJ61d_rF8akwRJso-328" value="_tramiteDA.Registrar" style="html=1;overflow=block;blockSpacing=1;whiteSpace=wrap;shape=component;align=left;spacingLeft=36;fontSize=16.7;spacing=0;strokeColor=#001DBC;strokeOpacity=100;fillOpacity=100;rounded=1;absoluteArcSize=1;arcSize=9;fillColor=#0050ef;strokeWidth=1.5;lucidId=Yn-s7pIH8WWi;fontColor=#ffffff;" parent="1" vertex="1">
          <mxGeometry x="2295" y="786" width="195" height="90" as="geometry" />
        </mxCell>
        <mxCell id="FblqEJ61d_rF8akwRJso-329" value="&lt;div style=&quot;display: flex; justify-content: flex-start; text-align: left; align-items: baseline; font-size: 0; line-height: 1.25;margin-top: -2px;&quot;&gt;&lt;span&gt;&lt;span style=&quot;font-size:13px;color:#0e0e0e;font-weight: bold;&quot;&gt;Parámetros de entrada&lt;/span&gt;&lt;span style=&quot;font-size:16px;&quot;&gt; &#xa;&lt;/span&gt;&lt;span style=&quot;font-size:14px;color:#0e0e0e;&quot;&gt;&#xa;&lt;/span&gt;&lt;span style=&quot;font-size:16px;&quot;&gt; &#xa;&lt;/span&gt;&lt;span style=&quot;font-size:14px;color:#0e0e0e;&quot;&gt;El método TramiteDA.Registrar recibe un único parámetro de entrada:&lt;/span&gt;&lt;span style=&quot;font-size:16px;&quot;&gt; &#xa;&lt;/span&gt;&lt;span style=&quot;font-size:14px;color:#0e0e0e;&quot;&gt;&#x9;1.&#x9;tramiteBE (TramiteBE):&lt;/span&gt;&lt;span style=&quot;font-size:16px;&quot;&gt; &#xa;&lt;/span&gt;&lt;span style=&quot;font-size:14px;color:#0e0e0e;&quot;&gt;Este es un objeto que encapsula toda la información necesaria para registrar un trámite. A continuación se detallan las propiedades del objeto TramiteBE que se usan en el método:&lt;/span&gt;&lt;span style=&quot;font-size:16px;&quot;&gt; &#xa;&lt;/span&gt;&lt;span style=&quot;font-size:14px;color:#0e0e0e;&quot;&gt;&#x9;•&#x9;IdSolicitud (int): Identificador de la solicitud asociada al trámite.&lt;/span&gt;&lt;span style=&quot;font-size:16px;&quot;&gt; &#xa;&lt;/span&gt;&lt;span style=&quot;font-size:14px;color:#0e0e0e;&quot;&gt;&#x9;•&#x9;IdRamo (int): Identificador del ramo asociado al trámite.&lt;/span&gt;&lt;span style=&quot;font-size:16px;&quot;&gt; &#xa;&lt;/span&gt;&lt;span style=&quot;font-size:14px;color:#0e0e0e;&quot;&gt;&#x9;•&#x9;IdOficina (int): Identificador de la oficina asociada al trámite.&lt;/span&gt;&lt;span style=&quot;font-size:16px;&quot;&gt; &#xa;&lt;/span&gt;&lt;span style=&quot;font-size:14px;color:#0e0e0e;&quot;&gt;&#x9;•&#x9;IdPoliza (int?): Identificador de la póliza (puede ser nulo si no aplica).&lt;/span&gt;&lt;span style=&quot;font-size:16px;&quot;&gt; &#xa;&lt;/span&gt;&lt;span style=&quot;font-size:14px;color:#0e0e0e;&quot;&gt;&#x9;•&#x9;IdUsuario (int): Identificador del usuario que realiza la operación.&lt;/span&gt;&lt;span style=&quot;font-size:16px;&quot;&gt; &#xa;&lt;/span&gt;&lt;span style=&quot;font-size:14px;color:#0e0e0e;&quot;&gt;&#x9;•&#x9;TransaccionBE.IdTramite (int): Identificador de la transacción relacionada con el trámite.&lt;/span&gt;&lt;span style=&quot;font-size:16px;&quot;&gt; &#xa;&lt;/span&gt;&lt;span style=&quot;font-size:14px;color:#0e0e0e;&quot;&gt;&#x9;•&#x9;IdCentroTramite (int): Identificador del centro de trámite.&lt;/span&gt;&lt;/span&gt;&lt;/div&gt;" style="html=1;overflow=block;blockSpacing=1;whiteSpace=wrap;fontSize=13;align=left;spacing=3.8;verticalAlign=top;strokeColor=none;fillOpacity=0;rounded=1;absoluteArcSize=1;arcSize=9;fillColor=#ffffff;strokeWidth=0;lucidId=ip-s.yBRDcOU;" parent="1" vertex="1">
          <mxGeometry x="2235" y="1023" width="375" height="446" as="geometry" />
        </mxCell>
        <mxCell id="FblqEJ61d_rF8akwRJso-330" value="&lt;div style=&quot;display: flex; justify-content: flex-start; text-align: left; align-items: baseline; font-size: 0; line-height: 1.25;margin-top: -2px;&quot;&gt;&lt;span&gt;&lt;span style=&quot;font-size:13px;color:#0e0e0e;font-weight: bold;&quot;&gt;Parámetros de salida&lt;/span&gt;&lt;span style=&quot;font-size:16px;&quot;&gt; &#xa;&lt;/span&gt;&lt;span style=&quot;font-size:14px;color:#0e0e0e;&quot;&gt;&#xa;&lt;/span&gt;&lt;span style=&quot;font-size:16px;&quot;&gt; &#xa;&lt;/span&gt;&lt;span style=&quot;font-size:14px;color:#0e0e0e;&quot;&gt;El método retorna un valor entero:&lt;/span&gt;&lt;span style=&quot;font-size:16px;&quot;&gt; &#xa;&lt;/span&gt;&lt;span style=&quot;font-size:14px;color:#0e0e0e;&quot;&gt;&#x9;•&#x9;identificadorTramite (int):&lt;/span&gt;&lt;span style=&quot;font-size:16px;&quot;&gt; &#xa;&lt;/span&gt;&lt;span style=&quot;font-size:14px;color:#0e0e0e;&quot;&gt;Este es el identificador único del trámite registrado, obtenido del parámetro de salida IDENT del stored procedure. Si no se encuentra un valor, se devuelve 0.&lt;/span&gt;&lt;/span&gt;&lt;/div&gt;" style="html=1;overflow=block;blockSpacing=1;whiteSpace=wrap;fontSize=13;align=left;spacing=3.8;verticalAlign=top;strokeColor=none;fillOpacity=0;rounded=1;absoluteArcSize=1;arcSize=9;fillColor=#ffffff;strokeWidth=0;lucidId=xp-sYP_dIqoV;" parent="1" vertex="1">
          <mxGeometry x="2235" y="1469" width="360" height="196" as="geometry" />
        </mxCell>
        <mxCell id="FblqEJ61d_rF8akwRJso-331" value="PKG_WORKFLOW.SP_TRAMITE_INS" style="html=1;overflow=block;blockSpacing=1;whiteSpace=wrap;fontSize=14;fontColor=#0e0e0e;align=left;spacing=3.8;verticalAlign=top;strokeColor=none;fillOpacity=0;rounded=1;absoluteArcSize=1;arcSize=9;fillColor=#ffffff;strokeWidth=0;lucidId=Np-sF1jTb4.g;" parent="1" vertex="1">
          <mxGeometry x="2267" y="984" width="251" height="24" as="geometry" />
        </mxCell>
        <mxCell id="FblqEJ61d_rF8akwRJso-333" value="&lt;span data-lucid-type=&quot;application/vnd.lucid.text&quot; data-lucid-content=&quot;{&amp;quot;t&amp;quot;:&amp;quot;{\n IdSolicitud = 12345, // ID de la solicitud asociada al trámite\n IdRamo = 7, // ID del ramo asociado al trámite\n IdOficina = 12, // ID de la oficina asociada al trámite\n IdPoliza = 987654,  // ID de la póliza, si aplica (puede ser null)\n IdUsuario = 456,  // ID del usuario que realiza la operación\n TransaccionBE = new TransaccionBE\n {\n IdTramite = 789123 // ID del trámite asociado a la transacción\n },\n IdCentroTramite = 3  // ID del centro de trámite asociado\n};&amp;quot;,&amp;quot;m&amp;quot;:[{&amp;quot;s&amp;quot;:0,&amp;quot;n&amp;quot;:&amp;quot;a&amp;quot;,&amp;quot;v&amp;quot;:&amp;quot;left&amp;quot;},{&amp;quot;s&amp;quot;:2,&amp;quot;n&amp;quot;:&amp;quot;a&amp;quot;,&amp;quot;v&amp;quot;:&amp;quot;left&amp;quot;},{&amp;quot;s&amp;quot;:66,&amp;quot;n&amp;quot;:&amp;quot;a&amp;quot;,&amp;quot;v&amp;quot;:&amp;quot;left&amp;quot;},{&amp;quot;s&amp;quot;:114,&amp;quot;n&amp;quot;:&amp;quot;a&amp;quot;,&amp;quot;v&amp;quot;:&amp;quot;left&amp;quot;},{&amp;quot;s&amp;quot;:171,&amp;quot;n&amp;quot;:&amp;quot;a&amp;quot;,&amp;quot;v&amp;quot;:&amp;quot;left&amp;quot;},{&amp;quot;s&amp;quot;:239,&amp;quot;n&amp;quot;:&amp;quot;a&amp;quot;,&amp;quot;v&amp;quot;:&amp;quot;left&amp;quot;},{&amp;quot;s&amp;quot;:301,&amp;quot;n&amp;quot;:&amp;quot;a&amp;quot;,&amp;quot;v&amp;quot;:&amp;quot;left&amp;quot;},{&amp;quot;s&amp;quot;:336,&amp;quot;n&amp;quot;:&amp;quot;a&amp;quot;,&amp;quot;v&amp;quot;:&amp;quot;left&amp;quot;},{&amp;quot;s&amp;quot;:339,&amp;quot;n&amp;quot;:&amp;quot;a&amp;quot;,&amp;quot;v&amp;quot;:&amp;quot;left&amp;quot;},{&amp;quot;s&amp;quot;:403,&amp;quot;n&amp;quot;:&amp;quot;a&amp;quot;,&amp;quot;v&amp;quot;:&amp;quot;left&amp;quot;},{&amp;quot;s&amp;quot;:407,&amp;quot;n&amp;quot;:&amp;quot;a&amp;quot;,&amp;quot;v&amp;quot;:&amp;quot;left&amp;quot;},{&amp;quot;s&amp;quot;:466,&amp;quot;n&amp;quot;:&amp;quot;a&amp;quot;,&amp;quot;v&amp;quot;:&amp;quot;left&amp;quot;}]}&quot;&gt;{&lt;br&gt; IdSolicitud = 12345, // ID de la solicitud asociada al trámite&lt;br&gt; IdRamo = 7, // ID del ramo asociado al trámite&lt;br&gt; IdOficina = 12, // ID de la oficina asociada al trámite&lt;br&gt; IdPoliza = 987654,  // ID de la póliza, si aplica (puede ser null)&lt;br&gt; IdUsuario = 456,  // ID del usuario que realiza la operación&lt;br&gt; TransaccionBE = new TransaccionBE&lt;br&gt; {&lt;br&gt; IdTramite = 789123 // ID del trámite asociado a la transacción&lt;br&gt; },&lt;br&gt; IdCentroTramite = 3  // ID del centro de trámite asociado&lt;br&gt;};&lt;/span&gt;" style="html=1;overflow=block;blockSpacing=1;whiteSpace=wrap;fontSize=13;spacing=3.8;fillOpacity=0;rounded=1;absoluteArcSize=1;arcSize=9;strokeWidth=0;lucidId=QB.sIqIn5qBX;labelBackgroundColor=none;fontColor=default;align=left;" parent="1" vertex="1">
          <mxGeometry x="2250" y="518" width="381" height="202" as="geometry" />
        </mxCell>
        <mxCell id="FblqEJ61d_rF8akwRJso-334" value="Parametro" style="html=1;overflow=block;blockSpacing=1;whiteSpace=wrap;fontSize=16.7;align=center;spacing=0;rounded=1;absoluteArcSize=1;arcSize=9;strokeWidth=NaN;lucidId=XB.sAmmadL.S;" parent="1" vertex="1">
          <mxGeometry x="2250" y="465" width="180" height="45" as="geometry" />
        </mxCell>
        <mxCell id="FblqEJ61d_rF8akwRJso-335" value="_tramiteDA.Actualizar" style="html=1;overflow=block;blockSpacing=1;whiteSpace=wrap;shape=component;align=left;spacingLeft=36;fontSize=16.7;spacing=0;strokeColor=#001DBC;strokeOpacity=100;fillOpacity=100;rounded=1;absoluteArcSize=1;arcSize=9;fillColor=#0050ef;strokeWidth=1.5;lucidId=SD.s.JtHmBVP;fontColor=#ffffff;" parent="1" vertex="1">
          <mxGeometry x="2834" y="782" width="195" height="90" as="geometry" />
        </mxCell>
        <mxCell id="FblqEJ61d_rF8akwRJso-336" value="SP_TRAMITE_APPEXTERNA_UPD" style="html=1;overflow=block;blockSpacing=1;whiteSpace=wrap;fontSize=14;fontColor=#0e0e0e;align=left;spacing=3.8;verticalAlign=top;strokeColor=none;fillOpacity=0;rounded=1;absoluteArcSize=1;arcSize=9;fillColor=#ffffff;strokeWidth=0;lucidId=SD.sa7YxHpMR;" parent="1" vertex="1">
          <mxGeometry x="2806" y="981" width="251" height="24" as="geometry" />
        </mxCell>
        <mxCell id="FblqEJ61d_rF8akwRJso-338" value="" style="html=1;jettySize=18;whiteSpace=wrap;fontSize=13;strokeColor=#5E5E5E;strokeWidth=1.5;rounded=1;arcSize=12;edgeStyle=orthogonalEdgeStyle;startArrow=none;endArrow=block;endFill=1;exitX=1.004;exitY=0.5;exitPerimeter=0;entryX=0.073;entryY=0.54;entryPerimeter=0;lucidId=2D.szDrslccD;" parent="1" source="FblqEJ61d_rF8akwRJso-328" target="FblqEJ61d_rF8akwRJso-335" edge="1">
          <mxGeometry width="100" height="100" relative="1" as="geometry">
            <Array as="points" />
          </mxGeometry>
        </mxCell>
        <mxCell id="FblqEJ61d_rF8akwRJso-339" value="&lt;div style=&quot;display: flex; justify-content: flex-start; text-align: left; align-items: baseline; font-size: 0; line-height: 1.25;margin-top: -2px;&quot;&gt;&lt;span&gt;&lt;span style=&quot;font-size:13px;color:#0e0e0e;font-weight: bold;&quot;&gt;Parámetros de entrada&lt;/span&gt;&lt;span style=&quot;font-size:16px;&quot;&gt; &#xa;&lt;/span&gt;&lt;span style=&quot;font-size:14px;color:#0e0e0e;&quot;&gt;&#xa;&lt;/span&gt;&lt;span style=&quot;font-size:16px;&quot;&gt; &#xa;&lt;/span&gt;&lt;span style=&quot;font-size:14px;color:#0e0e0e;&quot;&gt;La función Actualizar recibe un único parámetro de entrada:&lt;/span&gt;&lt;span style=&quot;font-size:16px;&quot;&gt; &#xa;&lt;/span&gt;&lt;span style=&quot;font-size:14px;color:#0e0e0e;&quot;&gt;&#x9;1.&#x9;tramiteBE (TramiteBE):&lt;/span&gt;&lt;span style=&quot;font-size:16px;&quot;&gt; &#xa;&lt;/span&gt;&lt;span style=&quot;font-size:14px;color:#0e0e0e;&quot;&gt;Este es un objeto que encapsula toda la información necesaria para actualizar un trámite. Las propiedades utilizadas en este método son:&lt;/span&gt;&lt;span style=&quot;font-size:16px;&quot;&gt; &#xa;&lt;/span&gt;&lt;span style=&quot;font-size:14px;color:#0e0e0e;&quot;&gt;&#x9;•&#x9;IdentificadorTramite (int): Identificador único del trámite que se desea actualizar.&lt;/span&gt;&lt;span style=&quot;font-size:16px;&quot;&gt; &#xa;&lt;/span&gt;&lt;span style=&quot;font-size:14px;color:#0e0e0e;&quot;&gt;&#x9;•&#x9;IdAplicacionOrigen (int): Identificador de la aplicación externa que generó el trámite.&lt;/span&gt;&lt;/span&gt;&lt;/div&gt;" style="html=1;overflow=block;blockSpacing=1;whiteSpace=wrap;fontSize=13;align=left;spacing=3.8;verticalAlign=top;strokeColor=none;fillOpacity=0;rounded=1;absoluteArcSize=1;arcSize=9;fillColor=#ffffff;strokeWidth=0;lucidId=WE.sSLoNmw4k;" parent="1" vertex="1">
          <mxGeometry x="2730" y="1023" width="390" height="252" as="geometry" />
        </mxCell>
        <mxCell id="FblqEJ61d_rF8akwRJso-340" value="&lt;div style=&quot;display: flex; justify-content: flex-start; text-align: left; align-items: baseline; font-size: 0; line-height: 1.25;margin-top: -2px;&quot;&gt;&lt;span&gt;&lt;span style=&quot;font-size:13px;color:#0e0e0e;font-weight: bold;&quot;&gt;Parámetros de salida&lt;/span&gt;&lt;span style=&quot;font-size:16px;&quot;&gt; &#xa;&lt;/span&gt;&lt;span style=&quot;font-size:14px;color:#0e0e0e;&quot;&gt;&#xa;&lt;/span&gt;&lt;span style=&quot;font-size:16px;&quot;&gt; &#xa;&lt;/span&gt;&lt;span style=&quot;font-size:14px;color:#0e0e0e;&quot;&gt;La función no tiene un valor de retorno explícito. Es un método void y realiza una operación de actualización en la base de datos. Si ocurre algún error, se lanza una excepción.&lt;/span&gt;&lt;/span&gt;&lt;/div&gt;" style="html=1;overflow=block;blockSpacing=1;whiteSpace=wrap;fontSize=13;align=left;spacing=3.8;verticalAlign=top;strokeColor=none;fillOpacity=0;rounded=1;absoluteArcSize=1;arcSize=9;fillColor=#ffffff;strokeWidth=0;lucidId=_E.sDcES8A~O;" parent="1" vertex="1">
          <mxGeometry x="2730" y="1250" width="360" height="175" as="geometry" />
        </mxCell>
        <mxCell id="FblqEJ61d_rF8akwRJso-341" value="Es igual" style="html=1;overflow=block;blockSpacing=1;whiteSpace=wrap;shape=rhombus;fontSize=16.7;align=center;spacing=3.8;rounded=1;absoluteArcSize=1;arcSize=9;strokeWidth=NaN;lucidId=QG.sXe_7QrA7;fillColor=#008a00;fontColor=#ffffff;strokeColor=#005700;" parent="1" vertex="1">
          <mxGeometry x="3210" y="776" width="120" height="105" as="geometry" />
        </mxCell>
        <mxCell id="FblqEJ61d_rF8akwRJso-342" value="solicitudBE.IndicadorPolizaElectronica" style="html=1;overflow=block;blockSpacing=1;whiteSpace=wrap;fontSize=16.7;align=center;spacing=0;rounded=1;absoluteArcSize=1;arcSize=9;strokeWidth=NaN;lucidId=qH.s597faV3a;" parent="1" vertex="1">
          <mxGeometry x="3195" y="872" width="180" height="45" as="geometry" />
        </mxCell>
        <mxCell id="FblqEJ61d_rF8akwRJso-343" value="" style="html=1;jettySize=18;whiteSpace=wrap;fontSize=13;strokeColor=#5E5E5E;strokeWidth=1.5;rounded=1;arcSize=12;edgeStyle=orthogonalEdgeStyle;startArrow=none;endArrow=block;endFill=1;exitX=1.004;exitY=0.5;exitPerimeter=0;entryX=0.014;entryY=0.483;entryPerimeter=0;lucidId=OH.svzoSxoWd;" parent="1" source="FblqEJ61d_rF8akwRJso-335" target="FblqEJ61d_rF8akwRJso-341" edge="1">
          <mxGeometry width="100" height="100" relative="1" as="geometry">
            <Array as="points" />
          </mxGeometry>
        </mxCell>
        <mxCell id="FblqEJ61d_rF8akwRJso-344" value="" style="html=1;jettySize=18;whiteSpace=wrap;fontSize=13;strokeColor=#5E5E5E;strokeWidth=1.5;rounded=1;arcSize=12;edgeStyle=orthogonalEdgeStyle;startArrow=none;endArrow=block;endFill=1;exitX=0.5;exitY=0.009;exitPerimeter=0;entryX=0.5;entryY=1.008;entryPerimeter=0;lucidId=fI.s4YykXG9D;" parent="1" source="FblqEJ61d_rF8akwRJso-341" target="FblqEJ61d_rF8akwRJso-346" edge="1">
          <mxGeometry width="100" height="100" relative="1" as="geometry">
            <Array as="points" />
          </mxGeometry>
        </mxCell>
        <mxCell id="FblqEJ61d_rF8akwRJso-345" value="1" style="text;html=1;resizable=0;labelBackgroundColor=default;align=center;verticalAlign=middle;fontStyle=1;fontColor=#333333;fontSize=13.3;" parent="FblqEJ61d_rF8akwRJso-344" vertex="1">
          <mxGeometry relative="1" as="geometry" />
        </mxCell>
        <mxCell id="FblqEJ61d_rF8akwRJso-346" value="RegistrarPolizaElectronica" style="html=1;overflow=block;blockSpacing=1;whiteSpace=wrap;shape=component;align=left;spacingLeft=36;fontSize=16.7;spacing=0;strokeColor=#001DBC;strokeOpacity=100;fillOpacity=100;rounded=1;absoluteArcSize=1;arcSize=9;fillColor=#0050ef;strokeWidth=1.5;lucidId=jI.s0z~eb0Cn;fontColor=#ffffff;" parent="1" vertex="1">
          <mxGeometry x="3150" y="600" width="240" height="90" as="geometry" />
        </mxCell>
        <mxCell id="FblqEJ61d_rF8akwRJso-347" value="&lt;div style=&quot;display: flex; justify-content: flex-start; text-align: left; align-items: baseline; font-size: 0; line-height: 1.25;margin-top: -2px;&quot;&gt;&lt;span&gt;&lt;span style=&quot;font-size:13px;color:#0e0e0e;font-weight: bold;&quot;&gt;Parámetro de entrada&lt;/span&gt;&lt;span style=&quot;font-size:16px;&quot;&gt; &#xa;&lt;/span&gt;&lt;span style=&quot;font-size:14px;color:#0e0e0e;&quot;&gt;&#xa;&lt;/span&gt;&lt;span style=&quot;font-size:16px;&quot;&gt; &#xa;&lt;/span&gt;&lt;span style=&quot;font-size:14px;color:#0e0e0e;&quot;&gt;El método RegistrarPolizaElectronica recibe un único parámetro:&lt;/span&gt;&lt;span style=&quot;font-size:16px;&quot;&gt; &#xa;&lt;/span&gt;&lt;span style=&quot;font-size:14px;color:#0e0e0e;&quot;&gt;&#x9;1.&#x9;solicitudPolizaElectronicaBE (SolicitudPolizaElectronicaBE):&lt;/span&gt;&lt;span style=&quot;font-size:16px;&quot;&gt; &#xa;&lt;/span&gt;&lt;span style=&quot;font-size:14px;color:#0e0e0e;&quot;&gt;Este es un objeto que contiene la información necesaria para registrar una solicitud de póliza electrónica. A continuación se detallan las propiedades relevantes de este objeto que son utilizadas en el método:&lt;/span&gt;&lt;span style=&quot;font-size:16px;&quot;&gt; &#xa;&lt;/span&gt;&lt;span style=&quot;font-size:14px;color:#0e0e0e;&quot;&gt;&#x9;•&#x9;IdSolicitud (int):&lt;/span&gt;&lt;span style=&quot;font-size:16px;&quot;&gt; &#xa;&lt;/span&gt;&lt;span style=&quot;font-size:14px;color:#0e0e0e;&quot;&gt;Representa el identificador único de la solicitud.&lt;/span&gt;&lt;span style=&quot;font-size:16px;&quot;&gt; &#xa;&lt;/span&gt;&lt;span style=&quot;font-size:14px;color:#0e0e0e;&quot;&gt;&#x9;•&#x9;IdentificadorTramite (int):&lt;/span&gt;&lt;span style=&quot;font-size:16px;&quot;&gt; &#xa;&lt;/span&gt;&lt;span style=&quot;font-size:14px;color:#0e0e0e;&quot;&gt;Identificador del trámite asociado a la póliza electrónica.&lt;/span&gt;&lt;span style=&quot;font-size:16px;&quot;&gt; &#xa;&lt;/span&gt;&lt;span style=&quot;font-size:14px;color:#0e0e0e;&quot;&gt;&#x9;•&#x9;IndicadorPolizaElectronica (int):&lt;/span&gt;&lt;span style=&quot;font-size:16px;&quot;&gt; &#xa;&lt;/span&gt;&lt;span style=&quot;font-size:14px;color:#0e0e0e;&quot;&gt;Indicador que señala si la póliza es electrónica (1 para sí, 0 para no).&lt;/span&gt;&lt;span style=&quot;font-size:16px;&quot;&gt; &#xa;&lt;/span&gt;&lt;span style=&quot;font-size:14px;color:#0e0e0e;&quot;&gt;&#x9;•&#x9;IdUsuario (int):&lt;/span&gt;&lt;span style=&quot;font-size:16px;&quot;&gt; &#xa;&lt;/span&gt;&lt;span style=&quot;font-size:14px;color:#0e0e0e;&quot;&gt;Identificador del usuario que realiza la operación.&lt;/span&gt;&lt;/span&gt;&lt;/div&gt;" style="html=1;overflow=block;blockSpacing=1;whiteSpace=wrap;fontSize=13;align=left;spacing=3.8;verticalAlign=top;strokeColor=none;fillOpacity=0;rounded=1;absoluteArcSize=1;arcSize=9;fillColor=#ffffff;strokeWidth=0;lucidId=mJ.s9OVcap1S;" parent="1" vertex="1">
          <mxGeometry x="2850" y="-75" width="394" height="324" as="geometry" />
        </mxCell>
        <mxCell id="FblqEJ61d_rF8akwRJso-348" value="&lt;div style=&quot;display: flex; justify-content: flex-start; text-align: left; align-items: baseline; font-size: 0; line-height: 1.25;margin-top: -2px;&quot;&gt;&lt;span&gt;&lt;span style=&quot;font-size:13px;color:#0e0e0e;font-weight: bold;&quot;&gt;Parámetro de salida&lt;/span&gt;&lt;span style=&quot;font-size:16px;&quot;&gt; &#xa;&lt;/span&gt;&lt;span style=&quot;font-size:14px;color:#0e0e0e;&quot;&gt;&#xa;&lt;/span&gt;&lt;span style=&quot;font-size:16px;&quot;&gt; &#xa;&lt;/span&gt;&lt;span style=&quot;font-size:14px;color:#0e0e0e;&quot;&gt;El método no tiene un valor de retorno explícito (es un método void), pero el stored procedure tiene un parámetro de salida:&lt;/span&gt;&lt;span style=&quot;font-size:16px;&quot;&gt; &#xa;&lt;/span&gt;&lt;span style=&quot;font-size:14px;color:#0e0e0e;&quot;&gt;&#x9;•&#x9;SRETURN (OracleDbType.Int32):&lt;/span&gt;&lt;span style=&quot;font-size:16px;&quot;&gt; &#xa;&lt;/span&gt;&lt;span style=&quot;font-size:14px;color:#0e0e0e;&quot;&gt;Este parámetro es de uso interno del stored procedure y no es capturado o procesado en el código.&lt;/span&gt;&lt;/span&gt;&lt;/div&gt;" style="html=1;overflow=block;blockSpacing=1;whiteSpace=wrap;fontSize=13;align=left;spacing=3.8;verticalAlign=top;strokeColor=none;fillOpacity=0;rounded=1;absoluteArcSize=1;arcSize=9;fillColor=#ffffff;strokeWidth=0;lucidId=KJ.sQsCLS8kx;" parent="1" vertex="1">
          <mxGeometry x="2850" y="304" width="427" height="161" as="geometry" />
        </mxCell>
        <mxCell id="FblqEJ61d_rF8akwRJso-349" value="PKG_POLIZAELEC.SP_SOLICITUDPOLELEC_INS" style="html=1;overflow=block;blockSpacing=1;whiteSpace=wrap;fontSize=13;spacing=3.8;strokeColor=none;fillOpacity=0;rounded=1;absoluteArcSize=1;arcSize=9;fillColor=#ffffff;strokeWidth=0;lucidId=.J.slNG9PAMf;" parent="1" vertex="1">
          <mxGeometry x="3110" y="571" width="320" height="24" as="geometry" />
        </mxCell>
        <mxCell id="FblqEJ61d_rF8akwRJso-351" value="" style="html=1;jettySize=18;whiteSpace=wrap;fontSize=13;strokeColor=#5E5E5E;strokeWidth=1.5;rounded=1;arcSize=12;edgeStyle=orthogonalEdgeStyle;startArrow=none;endArrow=block;endFill=1;exitX=0.989;exitY=0.5;exitPerimeter=0;entryX=0.119;entryY=0.513;entryPerimeter=0;lucidId=KM.sJnVSLxSV;" parent="1" source="FblqEJ61d_rF8akwRJso-341" target="FblqEJ61d_rF8akwRJso-352" edge="1">
          <mxGeometry width="100" height="100" relative="1" as="geometry">
            <Array as="points" />
          </mxGeometry>
        </mxCell>
        <mxCell id="FblqEJ61d_rF8akwRJso-352" value="_pagoDA.Registrar" style="html=1;overflow=block;blockSpacing=1;whiteSpace=wrap;shape=component;align=left;spacingLeft=36;fontSize=16.7;spacing=0;strokeColor=#001DBC;strokeOpacity=100;fillOpacity=100;rounded=1;absoluteArcSize=1;arcSize=9;fillColor=#0050ef;strokeWidth=1.5;lucidId=MM.szv4i_tD7;fontColor=#ffffff;" parent="1" vertex="1">
          <mxGeometry x="3630" y="791" width="270" height="74" as="geometry" />
        </mxCell>
        <mxCell id="FblqEJ61d_rF8akwRJso-353" value="&lt;div style=&quot;display: flex; justify-content: flex-start; text-align: left; align-items: baseline; font-size: 0; line-height: 1.25;margin-top: -2px;&quot;&gt;&lt;span&gt;&lt;span style=&quot;font-size:13px;color:#0e0e0e;font-weight: bold;&quot;&gt;Parámetros de entrada&lt;/span&gt;&lt;span style=&quot;font-size:16px;&quot;&gt; &#xa;&lt;/span&gt;&lt;span style=&quot;font-size:14px;color:#0e0e0e;&quot;&gt;&#xa;&lt;/span&gt;&lt;span style=&quot;font-size:16px;&quot;&gt; &#xa;&lt;/span&gt;&lt;span style=&quot;font-size:14px;color:#0e0e0e;&quot;&gt;El método Registrar recibe un único parámetro de entrada:&lt;/span&gt;&lt;span style=&quot;font-size:16px;&quot;&gt; &#xa;&lt;/span&gt;&lt;span style=&quot;font-size:14px;color:#0e0e0e;&quot;&gt;&#x9;1.&#x9;pagoBE (BusinessEntities.PagoBE):&lt;/span&gt;&lt;span style=&quot;font-size:16px;&quot;&gt; &#xa;&lt;/span&gt;&lt;span style=&quot;font-size:14px;color:#0e0e0e;&quot;&gt;Este es un objeto que encapsula toda la información relacionada con el pago. A continuación, se detallan las propiedades relevantes de este objeto que son utilizadas dentro del método:&lt;/span&gt;&lt;span style=&quot;font-size:16px;&quot;&gt; &#xa;&lt;/span&gt;&lt;span style=&quot;font-size:14px;color:#0e0e0e;&quot;&gt;&#x9;•&#x9;CuotaInicial (decimal): Representa el porcentaje de la primera cuota del pago.&lt;/span&gt;&lt;span style=&quot;font-size:16px;&quot;&gt; &#xa;&lt;/span&gt;&lt;span style=&quot;font-size:14px;color:#0e0e0e;&quot;&gt;&#x9;•&#x9;NumeroLetras (int): Número de cuotas para el pago.&lt;/span&gt;&lt;span style=&quot;font-size:16px;&quot;&gt; &#xa;&lt;/span&gt;&lt;span style=&quot;font-size:14px;color:#0e0e0e;&quot;&gt;&#x9;•&#x9;CodTipoPago (int): Código que identifica el tipo de pago (por ejemplo, efectivo, tarjeta de crédito).&lt;/span&gt;&lt;span style=&quot;font-size:16px;&quot;&gt; &#xa;&lt;/span&gt;&lt;span style=&quot;font-size:14px;color:#0e0e0e;&quot;&gt;&#x9;•&#x9;IdentificadorTramite (int): Identificador del trámite asociado al pago.&lt;/span&gt;&lt;span style=&quot;font-size:16px;&quot;&gt; &#xa;&lt;/span&gt;&lt;span style=&quot;font-size:14px;color:#0e0e0e;&quot;&gt;&#x9;•&#x9;IdCliente (int): Identificador único del cliente que realiza el pago.&lt;/span&gt;&lt;span style=&quot;font-size:16px;&quot;&gt; &#xa;&lt;/span&gt;&lt;span style=&quot;font-size:14px;color:#0e0e0e;&quot;&gt;&#x9;•&#x9;FechaInicioVigencia (string): Fecha de inicio de la vigencia del pago.&lt;/span&gt;&lt;/span&gt;&lt;/div&gt;" style="html=1;overflow=block;blockSpacing=1;whiteSpace=wrap;fontSize=13;align=left;spacing=3.8;verticalAlign=top;strokeColor=none;fillOpacity=0;rounded=1;absoluteArcSize=1;arcSize=9;fillColor=#ffffff;strokeWidth=0;lucidId=iN.sKOECKSsF;" parent="1" vertex="1">
          <mxGeometry x="3570" y="891" width="495" height="414" as="geometry" />
        </mxCell>
        <mxCell id="FblqEJ61d_rF8akwRJso-354" value="&lt;div style=&quot;display: flex; justify-content: flex-start; text-align: left; align-items: baseline; font-size: 0; line-height: 1.25;margin-top: -2px;&quot;&gt;&lt;span&gt;&lt;span style=&quot;font-size:13px;color:#0e0e0e;font-weight: bold;&quot;&gt;Parámetro de salida&lt;/span&gt;&lt;span style=&quot;font-size:16px;&quot;&gt; &#xa;&lt;/span&gt;&lt;span style=&quot;font-size:14px;color:#0e0e0e;&quot;&gt;&#xa;&lt;/span&gt;&lt;span style=&quot;font-size:16px;&quot;&gt; &#xa;&lt;/span&gt;&lt;span style=&quot;font-size:14px;color:#0e0e0e;&quot;&gt;El método retorna un valor entero:&lt;/span&gt;&lt;span style=&quot;font-size:16px;&quot;&gt; &#xa;&lt;/span&gt;&lt;span style=&quot;font-size:14px;color:#0e0e0e;&quot;&gt;&#x9;•&#x9;idSolicitud (int):&lt;/span&gt;&lt;span style=&quot;font-size:16px;&quot;&gt; &#xa;&lt;/span&gt;&lt;span style=&quot;font-size:14px;color:#0e0e0e;&quot;&gt;Este es el identificador único de la solicitud registrada como resultado del procedimiento almacenado. Se obtiene del parámetro de salida PORETURN.&lt;/span&gt;&lt;/span&gt;&lt;/div&gt;" style="html=1;overflow=block;blockSpacing=1;whiteSpace=wrap;fontSize=13;align=left;spacing=3.8;verticalAlign=top;strokeColor=none;fillOpacity=0;rounded=1;absoluteArcSize=1;arcSize=9;fillColor=#ffffff;strokeWidth=0;lucidId=xN.s1tGQPIhi;" parent="1" vertex="1">
          <mxGeometry x="3570" y="1227" width="495" height="198" as="geometry" />
        </mxCell>
        <mxCell id="FblqEJ61d_rF8akwRJso-356" value="PKG_OVSP.DATOSEGURO_INS" style="html=1;overflow=block;blockSpacing=1;whiteSpace=wrap;fontSize=13;spacing=3.8;strokeColor=none;fillOpacity=0;rounded=1;absoluteArcSize=1;arcSize=9;fillColor=#ffffff;strokeWidth=0;lucidId=SN.sB8DPzd32;" parent="1" vertex="1">
          <mxGeometry x="3630" y="756" width="320" height="24" as="geometry" />
        </mxCell>
        <mxCell id="FblqEJ61d_rF8akwRJso-357" value="&lt;span data-lucid-type=&quot;application/vnd.lucid.text&quot; data-lucid-content=&quot;{&amp;quot;t&amp;quot;:&amp;quot;{\n CuotaInicial = 20.5m, // Porcentaje de la primera cuota\n NumeroLetras = 12, // Número de cuotas del pago\n CodTipoPago = 1, // Código que representa el tipo de pago (ejemplo: 1 = Tarjeta, 2 = Efectivo)\n IdentificadorTramite = 12345, // ID del trámite relacionado al pago\n IdCliente = 67890, // ID del cliente que realiza el pago\n FechaInicioVigencia = \&amp;quot;2024-01-01\&amp;quot; // Fecha de inicio de vigencia del pago\n}&amp;quot;,&amp;quot;m&amp;quot;:[{&amp;quot;s&amp;quot;:0,&amp;quot;n&amp;quot;:&amp;quot;a&amp;quot;,&amp;quot;v&amp;quot;:&amp;quot;left&amp;quot;},{&amp;quot;s&amp;quot;:2,&amp;quot;n&amp;quot;:&amp;quot;a&amp;quot;,&amp;quot;v&amp;quot;:&amp;quot;left&amp;quot;},{&amp;quot;s&amp;quot;:59,&amp;quot;n&amp;quot;:&amp;quot;a&amp;quot;,&amp;quot;v&amp;quot;:&amp;quot;left&amp;quot;},{&amp;quot;s&amp;quot;:108,&amp;quot;n&amp;quot;:&amp;quot;a&amp;quot;,&amp;quot;v&amp;quot;:&amp;quot;left&amp;quot;},{&amp;quot;s&amp;quot;:204,&amp;quot;n&amp;quot;:&amp;quot;a&amp;quot;,&amp;quot;v&amp;quot;:&amp;quot;left&amp;quot;},{&amp;quot;s&amp;quot;:273,&amp;quot;n&amp;quot;:&amp;quot;a&amp;quot;,&amp;quot;v&amp;quot;:&amp;quot;left&amp;quot;},{&amp;quot;s&amp;quot;:331,&amp;quot;n&amp;quot;:&amp;quot;a&amp;quot;,&amp;quot;v&amp;quot;:&amp;quot;left&amp;quot;},{&amp;quot;s&amp;quot;:407,&amp;quot;n&amp;quot;:&amp;quot;a&amp;quot;,&amp;quot;v&amp;quot;:&amp;quot;left&amp;quot;}]}&quot;&gt;{&lt;br&gt; CuotaInicial = 20.5m, // Porcentaje de la primera cuota&lt;br&gt; NumeroLetras = 12, // Número de cuotas del pago&lt;br&gt; CodTipoPago = 1, // Código que representa el tipo de pago (ejemplo: 1 = Tarjeta, 2 = Efectivo)&lt;br&gt; IdentificadorTramite = 12345, // ID del trámite relacionado al pago&lt;br&gt; IdCliente = 67890, // ID del cliente que realiza el pago&lt;br&gt; FechaInicioVigencia = &quot;2024-01-01&quot; // Fecha de inicio de vigencia del pago&lt;br&gt;&lt;div style=&quot;&quot;&gt;&lt;span style=&quot;background-color: initial;&quot;&gt;}&lt;/span&gt;&lt;/div&gt;&lt;/span&gt;" style="html=1;overflow=block;blockSpacing=1;whiteSpace=wrap;fontSize=13;spacing=3.8;strokeColor=none;fillOpacity=0;rounded=1;absoluteArcSize=1;arcSize=9;fillColor=#ffffff;strokeWidth=0;lucidId=RO.s9-V2ZHMi;align=left;" parent="1" vertex="1">
          <mxGeometry x="3630" y="460" width="450" height="200" as="geometry" />
        </mxCell>
        <mxCell id="FblqEJ61d_rF8akwRJso-358" value="Parametro" style="html=1;overflow=block;blockSpacing=1;whiteSpace=wrap;fontSize=16.7;align=center;spacing=0;rounded=1;absoluteArcSize=1;arcSize=9;strokeWidth=NaN;lucidId=aP.sxc-rllqG;" parent="1" vertex="1">
          <mxGeometry x="3630" y="415" width="180" height="45" as="geometry" />
        </mxCell>
        <mxCell id="FblqEJ61d_rF8akwRJso-359" value="&lt;div style=&quot;display: flex; justify-content: flex-start; text-align: left; align-items: baseline; font-size: 0; line-height: 1.25;margin-top: -2px;&quot;&gt;&lt;span&gt;&lt;span style=&quot;font-size:14px;color:#0e0e0e;&quot;&gt;&lt;span style=&quot;font-size:14px;color:#0e0e0e;&quot;&gt;•&#x9;&lt;/span&gt;&lt;span style=&quot;font-size:14px;color:#0e0e0e;font-weight: bold;&quot;&gt;Parámetros de entrada:&lt;/span&gt;&lt;span style=&quot;font-size:16px;&quot;&gt; &#xa;&lt;/span&gt;&lt;span style=&quot;font-size:14px;color:#0e0e0e;&quot;&gt;&#x9;•&#x9;PISPERIODO (OracleDbType.Char): Recibe una cadena vacía (string.Empty), probablemente para un periodo que no aplica en este caso.&lt;/span&gt;&lt;span style=&quot;font-size:16px;&quot;&gt; &#xa;&lt;/span&gt;&lt;span style=&quot;font-size:14px;color:#0e0e0e;&quot;&gt;&#x9;•&#x9;PINCUOTAINICIAL (OracleDbType.Decimal): Recibe el porcentaje de la primera cuota del pago (CuotaInicial).&lt;/span&gt;&lt;span style=&quot;font-size:16px;&quot;&gt; &#xa;&lt;/span&gt;&lt;span style=&quot;font-size:14px;color:#0e0e0e;&quot;&gt;&#x9;•&#x9;PINNROLETRASCUPON (OracleDbType.Int32): Recibe el número de cuotas para el pago (NumeroLetras).&lt;/span&gt;&lt;span style=&quot;font-size:16px;&quot;&gt; &#xa;&lt;/span&gt;&lt;span style=&quot;font-size:14px;color:#0e0e0e;&quot;&gt;&#x9;•&#x9;PISENDOSATARIO (OracleDbType.Varchar2): Recibe una cadena vacía (string.Empty), reservada para un endosatario no utilizado.&lt;/span&gt;&lt;span style=&quot;font-size:16px;&quot;&gt; &#xa;&lt;/span&gt;&lt;span style=&quot;font-size:14px;color:#0e0e0e;&quot;&gt;&#x9;•&#x9;PISOBSERVACION (OracleDbType.Varchar2): Recibe una cadena vacía (string.Empty), posiblemente para observaciones adicionales.&lt;/span&gt;&lt;span style=&quot;font-size:16px;&quot;&gt; &#xa;&lt;/span&gt;&lt;span style=&quot;font-size:14px;color:#0e0e0e;&quot;&gt;&#x9;•&#x9;PINCODTIPOPAGO (OracleDbType.Int32): Recibe el código del tipo de pago (CodTipoPago).&lt;/span&gt;&lt;span style=&quot;font-size:16px;&quot;&gt; &#xa;&lt;/span&gt;&lt;span style=&quot;font-size:14px;color:#0e0e0e;&quot;&gt;&#x9;•&#x9;PINCODPRODUCTO, PINCODCOBERTURA, PINCODMONEDA (OracleDbType.Int32): Reciben valores predeterminados (0) para productos, coberturas y monedas que no aplican.&lt;/span&gt;&lt;span style=&quot;font-size:16px;&quot;&gt; &#xa;&lt;/span&gt;&lt;span style=&quot;font-size:14px;color:#0e0e0e;&quot;&gt;&#x9;•&#x9;PINIDTRAMITE (OracleDbType.Int32): Recibe el identificador del trámite asociado (IdentificadorTramite).&lt;/span&gt;&lt;span style=&quot;font-size:16px;&quot;&gt; &#xa;&lt;/span&gt;&lt;span style=&quot;font-size:14px;color:#0e0e0e;&quot;&gt;&#x9;•&#x9;PINIDCLIENTE (OracleDbType.Int32): Recibe el identificador del cliente (IdCliente).&lt;/span&gt;&lt;span style=&quot;font-size:16px;&quot;&gt; &#xa;&lt;/span&gt;&lt;span style=&quot;font-size:14px;color:#0e0e0e;&quot;&gt;&#x9;•&#x9;PIDFECINIVIG (OracleDbType.Varchar2): Recibe la fecha de inicio de vigencia del pago (FechaInicioVigencia).&lt;/span&gt;&lt;span style=&quot;font-size:16px;&quot;&gt; &#xa;&lt;/span&gt;&lt;span style=&quot;font-size:14px;color:#0e0e0e;&quot;&gt;&#x9;•&#x9;PINCOMISIONADIC (OracleDbType.Decimal): Recibe un valor predeterminado (0), probablemente para una comisión adicional no utilizada.&lt;/span&gt;&lt;span style=&quot;font-size:16px;&quot;&gt; &#xa;&lt;/span&gt;&lt;span style=&quot;font-size:14px;color:#0e0e0e;&quot;&gt;&lt;span style=&quot;font-size:14px;color:#0e0e0e;&quot;&gt;&#x9;•&#x9;&lt;/span&gt;&lt;span style=&quot;font-size:14px;color:#0e0e0e;font-weight: bold;&quot;&gt;Parámetro de salida:&lt;/span&gt;&lt;span style=&quot;font-size:16px;&quot;&gt; &#xa;&lt;/span&gt;&lt;span style=&quot;font-size:14px;color:#0e0e0e;&quot;&gt;&#x9;•&#x9;PORETURN (OracleDbType.Int32): Devuelve el identificador único de la solicitud registrada.&lt;/span&gt;&lt;/span&gt;&lt;/span&gt;&lt;/span&gt;&lt;/div&gt;" style="html=1;overflow=block;blockSpacing=1;whiteSpace=wrap;fontSize=13;align=left;spacing=3.8;verticalAlign=top;strokeColor=none;fillOpacity=0;rounded=1;absoluteArcSize=1;arcSize=9;fillColor=#ffffff;strokeWidth=0;lucidId=HP.sJNTeAnXq;" parent="1" vertex="1">
          <mxGeometry x="3615" y="-5" width="720" height="420" as="geometry" />
        </mxCell>
        <mxCell id="FblqEJ61d_rF8akwRJso-360" value="" style="html=1;jettySize=18;whiteSpace=wrap;fontSize=13;strokeColor=#5E5E5E;strokeWidth=1.5;rounded=1;arcSize=12;edgeStyle=orthogonalEdgeStyle;startArrow=none;endArrow=block;endFill=1;exitX=1.003;exitY=0.5;exitPerimeter=0;entryX=-0.013;entryY=0.5;entryPerimeter=0;lucidId=KR.sFfkNoHbj;" parent="1" source="FblqEJ61d_rF8akwRJso-352" target="FblqEJ61d_rF8akwRJso-361" edge="1">
          <mxGeometry width="100" height="100" relative="1" as="geometry">
            <Array as="points" />
          </mxGeometry>
        </mxCell>
        <mxCell id="FblqEJ61d_rF8akwRJso-361" value="Fin" style="html=1;overflow=block;blockSpacing=1;whiteSpace=wrap;ellipse;fontSize=16.7;fontColor=#ffffff;align=center;spacing=3.8;strokeColor=#008573;strokeOpacity=100;fillOpacity=100;rounded=1;absoluteArcSize=1;arcSize=9;fillColor=#e81313;strokeWidth=1.5;lucidId=LR.slCgPOaXu;" parent="1" vertex="1">
          <mxGeometry x="4185" y="798" width="60" height="60" as="geometry" />
        </mxCell>
        <mxCell id="FblqEJ61d_rF8akwRJso-368" value="" style="sketch=0;outlineConnect=0;fontColor=#232F3E;gradientColor=none;fillColor=#C925D1;strokeColor=none;dashed=0;verticalLabelPosition=bottom;verticalAlign=top;align=center;html=1;fontSize=12;fontStyle=0;aspect=fixed;pointerEvents=1;shape=mxgraph.aws4.rds_oracle_instance;" parent="1" vertex="1">
          <mxGeometry x="3726" y="660" width="78" height="78" as="geometry" />
        </mxCell>
        <mxCell id="FblqEJ61d_rF8akwRJso-369" value="" style="sketch=0;outlineConnect=0;fontColor=#232F3E;gradientColor=none;fillColor=#C925D1;strokeColor=none;dashed=0;verticalLabelPosition=bottom;verticalAlign=top;align=center;html=1;fontSize=12;fontStyle=0;aspect=fixed;pointerEvents=1;shape=mxgraph.aws4.rds_oracle_instance;" parent="1" vertex="1">
          <mxGeometry x="3230" y="480" width="78" height="78" as="geometry" />
        </mxCell>
        <mxCell id="FblqEJ61d_rF8akwRJso-370" value="" style="sketch=0;outlineConnect=0;fontColor=#232F3E;gradientColor=none;fillColor=#C925D1;strokeColor=none;dashed=0;verticalLabelPosition=bottom;verticalAlign=top;align=center;html=1;fontSize=12;fontStyle=0;aspect=fixed;pointerEvents=1;shape=mxgraph.aws4.rds_oracle_instance;" parent="1" vertex="1">
          <mxGeometry x="2900" y="888" width="78" height="78" as="geometry" />
        </mxCell>
        <mxCell id="FblqEJ61d_rF8akwRJso-371" value="" style="sketch=0;outlineConnect=0;fontColor=#232F3E;gradientColor=none;fillColor=#C925D1;strokeColor=none;dashed=0;verticalLabelPosition=bottom;verticalAlign=top;align=center;html=1;fontSize=12;fontStyle=0;aspect=fixed;pointerEvents=1;shape=mxgraph.aws4.rds_oracle_instance;" parent="1" vertex="1">
          <mxGeometry x="2354" y="891" width="78" height="78" as="geometry" />
        </mxCell>
        <mxCell id="9Z9Ab-ga8VxSFr9oqgLG-1" value="" style="sketch=0;outlineConnect=0;fontColor=#232F3E;gradientColor=none;fillColor=#C925D1;strokeColor=none;dashed=0;verticalLabelPosition=bottom;verticalAlign=top;align=center;html=1;fontSize=12;fontStyle=0;aspect=fixed;pointerEvents=1;shape=mxgraph.aws4.rds_oracle_instance;" vertex="1" parent="1">
          <mxGeometry x="1881" y="888" width="78" height="78" as="geometry" />
        </mxCell>
        <mxCell id="9Z9Ab-ga8VxSFr9oqgLG-2" value="" style="sketch=0;outlineConnect=0;fontColor=#232F3E;gradientColor=none;fillColor=#C925D1;strokeColor=none;dashed=0;verticalLabelPosition=bottom;verticalAlign=top;align=center;html=1;fontSize=12;fontStyle=0;aspect=fixed;pointerEvents=1;shape=mxgraph.aws4.rds_oracle_instance;" vertex="1" parent="1">
          <mxGeometry x="1313.5" y="897" width="78" height="78" as="geometry" />
        </mxCell>
        <mxCell id="9Z9Ab-ga8VxSFr9oqgLG-3" value="" style="sketch=0;outlineConnect=0;fontColor=#232F3E;gradientColor=none;fillColor=#C925D1;strokeColor=none;dashed=0;verticalLabelPosition=bottom;verticalAlign=top;align=center;html=1;fontSize=12;fontStyle=0;aspect=fixed;pointerEvents=1;shape=mxgraph.aws4.rds_oracle_instance;" vertex="1" parent="1">
          <mxGeometry x="769.5" y="900" width="78" height="78" as="geometry" />
        </mxCell>
        <mxCell id="9Z9Ab-ga8VxSFr9oqgLG-4" value="" style="sketch=0;outlineConnect=0;fontColor=#232F3E;gradientColor=none;fillColor=#C925D1;strokeColor=none;dashed=0;verticalLabelPosition=bottom;verticalAlign=top;align=center;html=1;fontSize=12;fontStyle=0;aspect=fixed;pointerEvents=1;shape=mxgraph.aws4.rds_oracle_instance;" vertex="1" parent="1">
          <mxGeometry x="184.5" y="891" width="78" height="78" as="geometry" />
        </mxCell>
        <mxCell id="9Z9Ab-ga8VxSFr9oqgLG-5" value="" style="sketch=0;outlineConnect=0;fontColor=#232F3E;gradientColor=none;fillColor=#C925D1;strokeColor=none;dashed=0;verticalLabelPosition=bottom;verticalAlign=top;align=center;html=1;fontSize=12;fontStyle=0;aspect=fixed;pointerEvents=1;shape=mxgraph.aws4.rds_oracle_instance;" vertex="1" parent="1">
          <mxGeometry x="-249" y="658" width="78" height="78" as="geometry" />
        </mxCell>
        <mxCell id="9Z9Ab-ga8VxSFr9oqgLG-6" value="" style="sketch=0;outlineConnect=0;fontColor=#232F3E;gradientColor=none;fillColor=#C925D1;strokeColor=none;dashed=0;verticalLabelPosition=bottom;verticalAlign=top;align=center;html=1;fontSize=12;fontStyle=0;aspect=fixed;pointerEvents=1;shape=mxgraph.aws4.rds_oracle_instance;" vertex="1" parent="1">
          <mxGeometry x="-864" y="658" width="78" height="78" as="geometry" />
        </mxCell>
        <mxCell id="9Z9Ab-ga8VxSFr9oqgLG-7" value="" style="sketch=0;outlineConnect=0;fontColor=#232F3E;gradientColor=none;fillColor=#C925D1;strokeColor=none;dashed=0;verticalLabelPosition=bottom;verticalAlign=top;align=center;html=1;fontSize=12;fontStyle=0;aspect=fixed;pointerEvents=1;shape=mxgraph.aws4.rds_oracle_instance;" vertex="1" parent="1">
          <mxGeometry x="-2120" y="499" width="78" height="78" as="geometry" />
        </mxCell>
        <mxCell id="9Z9Ab-ga8VxSFr9oqgLG-8" value="" style="sketch=0;outlineConnect=0;fontColor=#232F3E;gradientColor=none;fillColor=#C925D1;strokeColor=none;dashed=0;verticalLabelPosition=bottom;verticalAlign=top;align=center;html=1;fontSize=12;fontStyle=0;aspect=fixed;pointerEvents=1;shape=mxgraph.aws4.rds_oracle_instance;" vertex="1" parent="1">
          <mxGeometry x="-2235" y="915" width="78" height="78" as="geometry" />
        </mxCell>
        <mxCell id="9Z9Ab-ga8VxSFr9oqgLG-9" value="" style="sketch=0;outlineConnect=0;fontColor=#232F3E;gradientColor=none;fillColor=#C925D1;strokeColor=none;dashed=0;verticalLabelPosition=bottom;verticalAlign=top;align=center;html=1;fontSize=12;fontStyle=0;aspect=fixed;pointerEvents=1;shape=mxgraph.aws4.rds_oracle_instance;" vertex="1" parent="1">
          <mxGeometry x="-2572" y="910" width="78" height="78" as="geometry" />
        </mxCell>
      </root>
    </mxGraphModel>
  </diagram>
</mxfile>
